  0
SECTION
  2
HEADER
  9
$ACADVER
  1
AC1024
  9
$ACADMAINTVER
 70
6
  9
$DWGCODEPAGE
  3
ANSI_1252
  9
$LASTSAVEDBY
  1
ezdxf
  9
$INSBASE
 10
0.0
 20
0.0
 30
0.0
  9
$EXTMIN
 10
1e+20
 20
1e+20
 30
1e+20
  9
$EXTMAX
 10
-1e+20
 20
-1e+20
 30
-1e+20
  9
$LIMMIN
 10
0.0
 20
0.0
  9
$LIMMAX
 10
420.0
 20
297.0
  9
$ORTHOMODE
 70
0
  9
$REGENMODE
 70
1
  9
$FILLMODE
 70
1
  9
$QTEXTMODE
 70
0
  9
$MIRRTEXT
 70
1
  9
$LTSCALE
 40
1.0
  9
$ATTMODE
 70
1
  9
$TEXTSIZE
 40
2.5
  9
$TRACEWID
 40
1.0
  9
$TEXTSTYLE
  7
OpenSans
  9
$CLAYER
  8
0
  9
$CELTYPE
  6
ByLayer
  9
$CECOLOR
 62
256
  9
$CELTSCALE
 40
1.0
  9
$DISPSILH
 70
0
  9
$DIMSCALE
 40
1.0
  9
$DIMASZ
 40
0.175
  9
$DIMEXO
 40
0.125
  9
$DIMDLI
 40
3.75
  9
$DIMRND
 40
0.0
  9
$DIMDLE
 40
0.0
  9
$DIMEXE
 40
0.375
  9
$DIMTP
 40
0.0
  9
$DIMTM
 40
0.0
  9
$DIMTXT
 40
0.25
  9
$DIMCEN
 40
2.5
  9
$DIMTSZ
 40
0.0
  9
$DIMTOL
 70
0
  9
$DIMLIM
 70
0
  9
$DIMTIH
 70
0
  9
$DIMTOH
 70
0
  9
$DIMSE1
 70
0
  9
$DIMSE2
 70
0
  9
$DIMTAD
 70
1
  9
$DIMZIN
 70
12
  9
$DIMBLK
  1
ARCHTICK
  9
$DIMASO
 70
1
  9
$DIMSHO
 70
1
  9
$DIMPOST
  1

  9
$DIMAPOST
  1

  9
$DIMALT
 70
0
  9
$DIMALTD
 70
3
  9
$DIMALTF
 40
0.03937007874
  9
$DIMLFAC
 40
100.0
  9
$DIMTOFL
 70
1
  9
$DIMTVP
 40
0.0
  9
$DIMTIX
 70
0
  9
$DIMSOXD
 70
0
  9
$DIMSAH
 70
0
  9
$DIMBLK1
  1

  9
$DIMBLK2
  1

  9
$DIMSTYLE
  2
EZDXF
  9
$DIMCLRD
 70
0
  9
$DIMCLRE
 70
0
  9
$DIMCLRT
 70
0
  9
$DIMTFAC
 40
0.5
  9
$DIMGAP
 40
0.1
  9
$DIMJUST
 70
0
  9
$DIMSD1
 70
0
  9
$DIMSD2
 70
0
  9
$DIMTOLJ
 70
0
  9
$DIMTZIN
 70
8
  9
$DIMALTZ
 70
0
  9
$DIMALTTZ
 70
0
  9
$DIMUPT
 70
1
  9
$DIMDEC
 70
2
  9
$DIMTDEC
 70
2
  9
$DIMALTU
 70
2
  9
$DIMALTTD
 70
3
  9
$DIMTXSTY
  7
OpenSansCondensed-Light
  9
$DIMAUNIT
 70
0
  9
$DIMADEC
 70
2
  9
$DIMALTRND
 40
0.0
  9
$DIMAZIN
 70
3
  9
$DIMDSEP
 70
46
  9
$DIMATFIT
 70
3
  9
$DIMFRAC
 70
0
  9
$DIMLDRBLK
  1

  9
$DIMLUNIT
 70
2
  9
$DIMLWD
 70
-2
  9
$DIMLWE
 70
-2
  9
$DIMTMOVE
 70
2
  9
$DIMFXL
 40
1.0
  9
$DIMFXLON
 70
0
  9
$DIMJOGANG
 40
0.785398163397
  9
$DIMTFILL
 70
0
  9
$DIMTFILLCLR
 70
0
  9
$DIMARCSYM
 70
0
  9
$DIMLTYPE
  6

  9
$DIMLTEX1
  6

  9
$DIMLTEX2
  6

  9
$DIMTXTDIRECTION
 70
0
  9
$LUNITS
 70
2
  9
$LUPREC
 70
4
  9
$SKETCHINC
 40
1.0
  9
$FILLETRAD
 40
10.0
  9
$AUNITS
 70
0
  9
$AUPREC
 70
2
  9
$MENU
  1
.
  9
$ELEVATION
 40
0.0
  9
$PELEVATION
 40
0.0
  9
$THICKNESS
 40
0.0
  9
$LIMCHECK
 70
0
  9
$CHAMFERA
 40
0.0
  9
$CHAMFERB
 40
0.0
  9
$CHAMFERC
 40
0.0
  9
$CHAMFERD
 40
0.0
  9
$SKPOLY
 70
0
  9
$TDCREATE
 40
2461243.1410648148
  9
$TDUCREATE
 40
2458532.153996898
  9
$TDUPDATE
 40
2461243.141076389
  9
$TDUUPDATE
 40
2458532.1544311
  9
$TDINDWG
 40
0.0
  9
$TDUSRTIMER
 40
0.0
  9
$USRTIMER
 70
1
  9
$ANGBASE
 50
0.0
  9
$ANGDIR
 70
0
  9
$PDMODE
 70
0
  9
$PDSIZE
 40
0.0
  9
$PLINEWID
 40
0.0
  9
$SPLFRAME
 70
0
  9
$SPLINETYPE
 70
6
  9
$SPLINESEGS
 70
8
  9
$HANDSEED
  5
3C9
  9
$SURFTAB1
 70
6
  9
$SURFTAB2
 70
6
  9
$SURFTYPE
 70
6
  9
$SURFU
 70
6
  9
$SURFV
 70
6
  9
$UCSBASE
  2

  9
$UCSNAME
  2

  9
$UCSORG
 10
0.0
 20
0.0
 30
0.0
  9
$UCSXDIR
 10
1.0
 20
0.0
 30
0.0
  9
$UCSYDIR
 10
0.0
 20
1.0
 30
0.0
  9
$UCSORTHOREF
  2

  9
$UCSORTHOVIEW
 70
0
  9
$UCSORGTOP
 10
0.0
 20
0.0
 30
0.0
  9
$UCSORGBOTTOM
 10
0.0
 20
0.0
 30
0.0
  9
$UCSORGLEFT
 10
0.0
 20
0.0
 30
0.0
  9
$UCSORGRIGHT
 10
0.0
 20
0.0
 30
0.0
  9
$UCSORGFRONT
 10
0.0
 20
0.0
 30
0.0
  9
$UCSORGBACK
 10
0.0
 20
0.0
 30
0.0
  9
$PUCSBASE
  2

  9
$PUCSNAME
  2

  9
$PUCSORG
 10
0.0
 20
0.0
 30
0.0
  9
$PUCSXDIR
 10
1.0
 20
0.0
 30
0.0
  9
$PUCSYDIR
 10
0.0
 20
1.0
 30
0.0
  9
$PUCSORTHOREF
  2

  9
$PUCSORTHOVIEW
 70
0
  9
$PUCSORGTOP
 10
0.0
 20
0.0
 30
0.0
  9
$PUCSORGBOTTOM
 10
0.0
 20
0.0
 30
0.0
  9
$PUCSORGLEFT
 10
0.0
 20
0.0
 30
0.0
  9
$PUCSORGRIGHT
 10
0.0
 20
0.0
 30
0.0
  9
$PUCSORGFRONT
 10
0.0
 20
0.0
 30
0.0
  9
$PUCSORGBACK
 10
0.0
 20
0.0
 30
0.0
  9
$USERI1
 70
0
  9
$USERI2
 70
0
  9
$USERI3
 70
0
  9
$USERI4
 70
0
  9
$USERI5
 70
0
  9
$USERR1
 40
0.0
  9
$USERR2
 40
0.0
  9
$USERR3
 40
0.0
  9
$USERR4
 40
0.0
  9
$USERR5
 40
0.0
  9
$WORLDVIEW
 70
1
  9
$SHADEDGE
 70
3
  9
$SHADEDIF
 70
70
  9
$TILEMODE
 70
1
  9
$MAXACTVP
 70
64
  9
$PINSBASE
 10
0.0
 20
0.0
 30
0.0
  9
$PLIMCHECK
 70
0
  9
$PEXTMIN
 10
1e+20
 20
1e+20
 30
1e+20
  9
$PEXTMAX
 10
-1e+20
 20
-1e+20
 30
-1e+20
  9
$PLIMMIN
 10
0.0
 20
0.0
  9
$PLIMMAX
 10
420.0
 20
297.0
  9
$UNITMODE
 70
0
  9
$VISRETAIN
 70
1
  9
$PLINEGEN
 70
0
  9
$PSLTSCALE
 70
1
  9
$TREEDEPTH
 70
3020
  9
$CMLSTYLE
  2
Standard
  9
$CMLJUST
 70
0
  9
$CMLSCALE
 40
20.0
  9
$PROXYGRAPHICS
 70
1
  9
$MEASUREMENT
 70
1
  9
$CELWEIGHT
370
-1
  9
$ENDCAPS
280
0
  9
$JOINSTYLE
280
0
  9
$LWDISPLAY
290
0
  9
$INSUNITS
 70
4
  9
$HYPERLINKBASE
  1

  9
$STYLESHEET
  1

  9
$XEDIT
290
1
  9
$CEPSNTYPE
380
0
  9
$PSTYLEMODE
290
1
  9
$FINGERPRINTGUID
  2
{6F52BA96-93CC-4D5C-9A0B-C2DD4BAA898E}
  9
$VERSIONGUID
  2
{2D4EC6E3-5578-4BD0-82F6-3D63830F7AF2}
  9
$EXTNAMES
290
1
  9
$PSVPSCALE
 40
0.0
  9
$OLESTARTUP
290
0
  9
$SORTENTS
280
127
  9
$INDEXCTL
280
0
  9
$HIDETEXT
280
1
  9
$XCLIPFRAME
280
1
  9
$HALOGAP
280
0
  9
$OBSCOLOR
 70
257
  9
$OBSLTYPE
280
0
  9
$INTERSECTIONDISPLAY
280
0
  9
$INTERSECTIONCOLOR
 70
257
  9
$DIMASSOC
280
2
  9
$PROJECTNAME
  1

  9
$CAMERADISPLAY
290
0
  9
$LENSLENGTH
 40
50.0
  9
$CAMERAHEIGHT
 40
0.0
  9
$STEPSPERSEC
 40
24.0
  9
$STEPSIZE
 40
100.0
  9
$3DDWFPREC
 40
2.0
  9
$PSOLWIDTH
 40
0.005
  9
$PSOLHEIGHT
 40
0.08
  9
$LOFTANG1
 40
1.570796326795
  9
$LOFTANG2
 40
1.570796326795
  9
$LOFTMAG1
 40
0.0
  9
$LOFTMAG2
 40
0.0
  9
$LOFTPARAM
 70
7
  9
$LOFTNORMALS
280
1
  9
$LATITUDE
 40
37.795
  9
$LONGITUDE
 40
-122.394
  9
$NORTHDIRECTION
 40
0.0
  9
$TIMEZONE
 70
-8000
  9
$LIGHTGLYPHDISPLAY
280
1
  9
$TILEMODELIGHTSYNCH
280
1
  9
$CMATERIAL
347
20
  9
$SOLIDHIST
280
0
  9
$SHOWHIST
280
1
  9
$DWFFRAME
280
2
  9
$DGNFRAME
280
2
  9
$REALWORLDSCALE
290
1
  9
$INTERFERECOLOR
 62
256
  9
$CSHADOW
280
0
  9
$SHADOWPLANELOCATION
 40
0.0
  0
ENDSEC
  0
SECTION
  2
CLASSES
  0
CLASS
  1
ACDBDICTIONARYWDFLT
  2
AcDbDictionaryWithDefault
  3
ObjectDBX Classes
 90
0
 91
0
280
0
281
0
  0
CLASS
  1
SUN
  2
AcDbSun
  3
SCENEOE
 90
1153
 91
0
280
0
281
0
  0
CLASS
  1
VISUALSTYLE
  2
AcDbVisualStyle
  3
ObjectDBX Classes
 90
4095
 91
0
280
0
281
0
  0
CLASS
  1
MATERIAL
  2
AcDbMaterial
  3
ObjectDBX Classes
 90
1153
 91
0
280
0
281
0
  0
CLASS
  1
SCALE
  2
AcDbScale
  3
ObjectDBX Classes
 90
1153
 91
0
280
0
281
0
  0
CLASS
  1
TABLESTYLE
  2
AcDbTableStyle
  3
ObjectDBX Classes
 90
4095
 91
0
280
0
281
0
  0
CLASS
  1
MLEADERSTYLE
  2
AcDbMLeaderStyle
  3
ACDB_MLEADERSTYLE_CLASS
 90
4095
 91
0
280
0
281
0
  0
CLASS
  1
DICTIONARYVAR
  2
AcDbDictionaryVar
  3
ObjectDBX Classes
 90
0
 91
0
280
0
281
0
  0
CLASS
  1
CELLSTYLEMAP
  2
AcDbCellStyleMap
  3
ObjectDBX Classes
 90
1152
 91
0
280
0
281
0
  0
CLASS
  1
MENTALRAYRENDERSETTINGS
  2
AcDbMentalRayRenderSettings
  3
SCENEOE
 90
1024
 91
0
280
0
281
0
  0
CLASS
  1
ACDBDETAILVIEWSTYLE
  2
AcDbDetailViewStyle
  3
ObjectDBX Classes
 90
1025
 91
0
280
0
281
0
  0
CLASS
  1
ACDBSECTIONVIEWSTYLE
  2
AcDbSectionViewStyle
  3
ObjectDBX Classes
 90
1025
 91
0
280
0
281
0
  0
CLASS
  1
RASTERVARIABLES
  2
AcDbRasterVariables
  3
ISM
 90
0
 91
0
280
0
281
0
  0
CLASS
  1
ACDBPLACEHOLDER
  2
AcDbPlaceHolder
  3
ObjectDBX Classes
 90
0
 91
0
280
0
281
0
  0
CLASS
  1
LAYOUT
  2
AcDbLayout
  3
ObjectDBX Classes
 90
0
 91
0
280
0
281
0
  0
ENDSEC
  0
SECTION
  2
TABLES
  0
TABLE
  2
VPORT
  5
8
330
0
100
AcDbSymbolTable
 70
1
  0
VPORT
  5
23
330
8
100
AcDbSymbolTableRecord
100
AcDbViewportTableRecord
  2
*Active
 70
0
 10
0.0
 20
0.0
 11
1.0
 21
1.0
 12
0.0
 22
0.0
 13
0.0
 23
0.0
 14
0.5
 24
0.5
 15
0.5
 25
0.5
 16
0.0
 26
0.0
 36
1.0
 17
0.0
 27
0.0
 37
0.0
 40
1000.0
 41
1.34
 42
50.0
 43
0.0
 44
0.0
 50
0.0
 51
0.0
 71
0
 72
1000
 73
1
 74
3
 75
0
 76
0
 77
0
 78
0
281
0
 65
0
146
0.0
  0
ENDTAB
  0
TABLE
  2
LTYPE
  5
2
330
0
100
AcDbSymbolTable
 70
21
  0
LTYPE
  5
24
330
2
100
AcDbSymbolTableRecord
100
AcDbLinetypeTableRecord
  2
ByBlock
 70
0
  3

 72
65
 73
0
 40
0.0
  0
LTYPE
  5
25
330
2
100
AcDbSymbolTableRecord
100
AcDbLinetypeTableRecord
  2
ByLayer
 70
0
  3

 72
65
 73
0
 40
0.0
  0
LTYPE
  5
26
330
2
100
AcDbSymbolTableRecord
100
AcDbLinetypeTableRecord
  2
Continuous
 70
0
  3

 72
65
 73
0
 40
0.0
  0
LTYPE
  5
2F
330
2
100
AcDbSymbolTableRecord
100
AcDbLinetypeTableRecord
  2
CENTER
 70
0
  3
Center ____ _ ____ _ ____ _ ____ _ ____ _ ____
 72
65
 73
4
 40
5.08
 49
3.175
 74
0
 49
-0.635
 74
0
 49
0.635
 74
0
 49
-0.635
 74
0
  0
LTYPE
  5
30
330
2
100
AcDbSymbolTableRecord
100
AcDbLinetypeTableRecord
  2
CENTERX2
 70
0
  3
Center (2x) ________  __  ________  __  ________
 72
65
 73
4
 40
8.89
 49
6.35
 74
0
 49
-0.635
 74
0
 49
1.27
 74
0
 49
-0.635
 74
0
  0
LTYPE
  5
31
330
2
100
AcDbSymbolTableRecord
100
AcDbLinetypeTableRecord
  2
CENTER2
 70
0
  3
Center (.5x) ____ _ ____ _ ____ _ ____ _ ____
 72
65
 73
4
 40
2.54
 49
1.587
 74
0
 49
-0.318
 74
0
 49
0.318
 74
0
 49
-0.318
 74
0
  0
LTYPE
  5
32
330
2
100
AcDbSymbolTableRecord
100
AcDbLinetypeTableRecord
  2
DASHED
 70
0
  3
Dashed __ __ __ __ __ __ __ __ __ __ __ __ __ _
 72
65
 73
2
 40
1.524
 49
1.27
 74
0
 49
-0.254
 74
0
  0
LTYPE
  5
33
330
2
100
AcDbSymbolTableRecord
100
AcDbLinetypeTableRecord
  2
DASHEDX2
 70
0
  3
Dashed (2x) ____  ____  ____  ____  ____  ____
 72
65
 73
2
 40
3.048
 49
2.54
 74
0
 49
-0.508
 74
0
  0
LTYPE
  5
34
330
2
100
AcDbSymbolTableRecord
100
AcDbLinetypeTableRecord
  2
DASHED2
 70
0
  3
Dashed (.5x) _ _ _ _ _ _ _ _ _ _ _ _ _ _
 72
65
 73
2
 40
0.762
 49
0.635
 74
0
 49
-0.127
 74
0
  0
LTYPE
  5
35
330
2
100
AcDbSymbolTableRecord
100
AcDbLinetypeTableRecord
  2
PHANTOM
 70
0
  3
Phantom ______  __  __  ______  __  __  ______
 72
65
 73
6
 40
6.35
 49
3.175
 74
0
 49
-0.635
 74
0
 49
0.635
 74
0
 49
-0.635
 74
0
 49
0.635
 74
0
 49
-0.635
 74
0
  0
LTYPE
  5
36
330
2
100
AcDbSymbolTableRecord
100
AcDbLinetypeTableRecord
  2
PHANTOMX2
 70
0
  3
Phantom (2x)____________    ____    ____    ____________
 72
65
 73
6
 40
10.795
 49
6.35
 74
0
 49
-0.635
 74
0
 49
1.27
 74
0
 49
-0.635
 74
0
 49
1.27
 74
0
 49
-0.635
 74
0
  0
LTYPE
  5
37
330
2
100
AcDbSymbolTableRecord
100
AcDbLinetypeTableRecord
  2
PHANTOM2
 70
0
  3
Phantom (.5x) ___ _ _ ___ _ _ ___ _ _ ___ _ _ ___
 72
65
 73
6
 40
3.175
 49
1.587
 74
0
 49
-0.318
 74
0
 49
0.318
 74
0
 49
-0.318
 74
0
 49
0.318
 74
0
 49
-0.318
 74
0
  0
LTYPE
  5
38
330
2
100
AcDbSymbolTableRecord
100
AcDbLinetypeTableRecord
  2
DASHDOT
 70
0
  3
Dash dot __ . __ . __ . __ . __ . __ . __ . __
 72
65
 73
4
 40
3.556
 49
2.54
 74
0
 49
-0.508
 74
0
 49
0.0
 74
0
 49
-0.508
 74
0
  0
LTYPE
  5
39
330
2
100
AcDbSymbolTableRecord
100
AcDbLinetypeTableRecord
  2
DASHDOTX2
 70
0
  3
Dash dot (2x) ____  .  ____  .  ____  .  ____
 72
65
 73
4
 40
6.096
 49
5.08
 74
0
 49
-0.508
 74
0
 49
0.0
 74
0
 49
-0.508
 74
0
  0
LTYPE
  5
3A
330
2
100
AcDbSymbolTableRecord
100
AcDbLinetypeTableRecord
  2
DASHDOT2
 70
0
  3
Dash dot (.5x) _ . _ . _ . _ . _ . _ . _ . _
 72
65
 73
4
 40
1.778
 49
1.27
 74
0
 49
-0.254
 74
0
 49
0.0
 74
0
 49
-0.254
 74
0
  0
LTYPE
  5
3B
330
2
100
AcDbSymbolTableRecord
100
AcDbLinetypeTableRecord
  2
DOT
 70
0
  3
Dot .  .  .  .  .  .  .  .  .  .  .  .  .  .  .  .
 72
65
 73
2
 40
0.508
 49
0.0
 74
0
 49
-0.508
 74
0
  0
LTYPE
  5
3C
330
2
100
AcDbSymbolTableRecord
100
AcDbLinetypeTableRecord
  2
DOTX2
 70
0
  3
Dot (2x) .    .    .    .    .    .    .    . 
 72
65
 73
2
 40
1.016
 49
0.0
 74
0
 49
-1.016
 74
0
  0
LTYPE
  5
3D
330
2
100
AcDbSymbolTableRecord
100
AcDbLinetypeTableRecord
  2
DOT2
 70
0
  3
Dot (.5) . . . . . . . . . . . . . . . . . . . 
 72
65
 73
2
 40
0.254
 49
0.0
 74
0
 49
-0.254
 74
0
  0
LTYPE
  5
3E
330
2
100
AcDbSymbolTableRecord
100
AcDbLinetypeTableRecord
  2
DIVIDE
 70
0
  3
Divide __ . . __ . . __ . . __ . . __ . . __
 72
65
 73
6
 40
4.064
 49
2.54
 74
0
 49
-0.508
 74
0
 49
0.0
 74
0
 49
-0.508
 74
0
 49
0.0
 74
0
 49
-0.508
 74
0
  0
LTYPE
  5
3F
330
2
100
AcDbSymbolTableRecord
100
AcDbLinetypeTableRecord
  2
DIVIDEX2
 70
0
  3
Divide (2x) ____  . .  ____  . .  ____  . .  ____
 72
65
 73
6
 40
6.604
 49
5.08
 74
0
 49
-0.508
 74
0
 49
0.0
 74
0
 49
-0.508
 74
0
 49
0.0
 74
0
 49
-0.508
 74
0
  0
LTYPE
  5
40
330
2
100
AcDbSymbolTableRecord
100
AcDbLinetypeTableRecord
  2
DIVIDE2
 70
0
  3
Divide(.5x) _ . _ . _ . _ . _ . _ . _ . _
 72
65
 73
6
 40
2.032
 49
1.27
 74
0
 49
-0.254
 74
0
 49
0.0
 74
0
 49
-0.254
 74
0
 49
0.0
 74
0
 49
-0.254
 74
0
  0
ENDTAB
  0
TABLE
  2
LAYER
  5
1
330
0
100
AcDbSymbolTable
 70
15
  0
LAYER
  5
27
330
1
100
AcDbSymbolTableRecord
100
AcDbLayerTableRecord
  2
0
 70
0
 62
7
  6
Continuous
370
-3
390
13
347
21
  0
LAYER
  5
28
330
1
100
AcDbSymbolTableRecord
100
AcDbLayerTableRecord
  2
Defpoints
 70
0
 62
7
  6
Continuous
290
0
370
-3
390
13
347
21
  0
LAYER
  5
8B
330
1
100
AcDbSymbolTableRecord
100
AcDbLayerTableRecord
  2
0CONC
 70
0
 62
7
  6
Continuous
370
-3
390
13
347
21
  0
LAYER
  5
8C
330
1
100
AcDbSymbolTableRecord
100
AcDbLayerTableRecord
  2
해치벽체
 70
0
 62
8
  6
Continuous
370
-3
390
13
347
21
  0
LAYER
  5
8D
330
1
100
AcDbSymbolTableRecord
100
AcDbLayerTableRecord
  2
0WIN
 70
0
 62
4
  6
Continuous
370
-3
390
13
347
21
  0
LAYER
  5
8E
330
1
100
AcDbSymbolTableRecord
100
AcDbLayerTableRecord
  2
DOOR
 70
0
 62
2
  6
Continuous
370
-3
390
13
347
21
  0
LAYER
  5
8F
330
1
100
AcDbSymbolTableRecord
100
AcDbLayerTableRecord
  2
FUR
 70
0
 62
3
  6
Continuous
370
-3
390
13
347
21
  0
LAYER
  5
90
330
1
100
AcDbSymbolTableRecord
100
AcDbLayerTableRecord
  2
TOIL
 70
0
 62
5
  6
Continuous
370
-3
390
13
347
21
  0
LAYER
  5
91
330
1
100
AcDbSymbolTableRecord
100
AcDbLayerTableRecord
  2
0TEXT-1
 70
0
 62
7
  6
Continuous
370
-3
390
13
347
21
  0
LAYER
  5
92
330
1
100
AcDbSymbolTableRecord
100
AcDbLayerTableRecord
  2
S-DIM
 70
0
 62
1
  6
Continuous
370
-3
390
13
347
21
  0
LAYER
  5
93
330
1
100
AcDbSymbolTableRecord
100
AcDbLayerTableRecord
  2
0CEN
 70
0
 62
9
  6
DASHDOT
370
-3
390
13
347
21
  0
LAYER
  5
94
330
1
100
AcDbSymbolTableRecord
100
AcDbLayerTableRecord
  2
COL
 70
0
 62
8
  6
Continuous
370
-3
390
13
347
21
  0
LAYER
  5
95
330
1
100
AcDbSymbolTableRecord
100
AcDbLayerTableRecord
  2
0LOFT
 70
0
 62
6
  6
DASHED
370
-3
390
13
347
21
  0
LAYER
  5
96
330
1
100
AcDbSymbolTableRecord
100
AcDbLayerTableRecord
  2
0OTB
 70
0
 62
9
  6
Continuous
370
-3
390
13
347
21
  0
LAYER
  5
97
330
1
100
AcDbSymbolTableRecord
100
AcDbLayerTableRecord
  2
STAIR
 70
0
 62
2
  6
Continuous
370
-3
390
13
347
21
  0
ENDTAB
  0
TABLE
  2
STYLE
  5
5
330
0
100
AcDbSymbolTable
 70
27
  0
STYLE
  5
29
330
5
100
AcDbSymbolTableRecord
100
AcDbTextStyleTableRecord
  2
Standard
 70
0
 40
0.0
 41
1.0
 50
0.0
 71
0
 42
2.5
  3
txt
  4

  0
STYLE
  5
41
330
5
100
AcDbSymbolTableRecord
100
AcDbTextStyleTableRecord
  2
OpenSans-Light
 70
0
 40
0.0
 41
1.0
 50
0.0
 71
0
 42
2.5
  3
OpenSans-Light.ttf
  4

  0
STYLE
  5
42
330
5
100
AcDbSymbolTableRecord
100
AcDbTextStyleTableRecord
  2
OpenSans-Light-Italic
 70
0
 40
0.0
 41
1.0
 50
0.0
 71
0
 42
2.5
  3
OpenSans-LightItalic.ttf
  4

  0
STYLE
  5
43
330
5
100
AcDbSymbolTableRecord
100
AcDbTextStyleTableRecord
  2
OpenSans
 70
0
 40
0.0
 41
1.0
 50
0.0
 71
0
 42
2.5
  3
OpenSans-Regular.ttf
  4

  0
STYLE
  5
44
330
5
100
AcDbSymbolTableRecord
100
AcDbTextStyleTableRecord
  2
OpenSans-Italic
 70
0
 40
0.0
 41
1.0
 50
0.0
 71
0
 42
2.5
  3
OpenSans-Italic.ttf
  4

  0
STYLE
  5
45
330
5
100
AcDbSymbolTableRecord
100
AcDbTextStyleTableRecord
  2
OpenSans-SemiBold
 70
0
 40
0.0
 41
1.0
 50
0.0
 71
0
 42
2.5
  3
OpenSans-SemiBold.ttf
  4

  0
STYLE
  5
46
330
5
100
AcDbSymbolTableRecord
100
AcDbTextStyleTableRecord
  2
OpenSans-SemiBoldItalic
 70
0
 40
0.0
 41
1.0
 50
0.0
 71
0
 42
2.5
  3
OpenSans-SemiBoldItalic.ttf
  4

  0
STYLE
  5
47
330
5
100
AcDbSymbolTableRecord
100
AcDbTextStyleTableRecord
  2
OpenSans-Bold
 70
0
 40
0.0
 41
1.0
 50
0.0
 71
0
 42
2.5
  3
OpenSans-Bold.ttf
  4

  0
STYLE
  5
48
330
5
100
AcDbSymbolTableRecord
100
AcDbTextStyleTableRecord
  2
OpenSans-BoldItalic
 70
0
 40
0.0
 41
1.0
 50
0.0
 71
0
 42
2.5
  3
OpenSans-BoldItalic.ttf
  4

  0
STYLE
  5
49
330
5
100
AcDbSymbolTableRecord
100
AcDbTextStyleTableRecord
  2
OpenSans-ExtraBold
 70
0
 40
0.0
 41
1.0
 50
0.0
 71
0
 42
2.5
  3
OpenSans-ExtraBold.ttf
  4

  0
STYLE
  5
4A
330
5
100
AcDbSymbolTableRecord
100
AcDbTextStyleTableRecord
  2
OpenSans-ExtraBoldItalic
 70
0
 40
0.0
 41
1.0
 50
0.0
 71
0
 42
2.5
  3
OpenSans-ExtraBoldItalic.ttf
  4

  0
STYLE
  5
4B
330
5
100
AcDbSymbolTableRecord
100
AcDbTextStyleTableRecord
  2
OpenSansCondensed-Bold
 70
0
 40
0.0
 41
1.0
 50
0.0
 71
0
 42
2.5
  3
OpenSansCondensed-Bold.ttf
  4

  0
STYLE
  5
4C
330
5
100
AcDbSymbolTableRecord
100
AcDbTextStyleTableRecord
  2
OpenSansCondensed-Light
 70
0
 40
0.0
 41
1.0
 50
0.0
 71
0
 42
2.5
  3
OpenSansCondensed-Light.ttf
  4

  0
STYLE
  5
4D
330
5
100
AcDbSymbolTableRecord
100
AcDbTextStyleTableRecord
  2
OpenSansCondensed-Italic
 70
0
 40
0.0
 41
1.0
 50
0.0
 71
0
 42
2.5
  3
OpenSansCondensed-LightItalic.ttf
  4

  0
STYLE
  5
4E
330
5
100
AcDbSymbolTableRecord
100
AcDbTextStyleTableRecord
  2
LiberationSans
 70
0
 40
0.0
 41
1.0
 50
0.0
 71
0
 42
2.5
  3
LiberationSans-Regular.ttf
  4

  0
STYLE
  5
4F
330
5
100
AcDbSymbolTableRecord
100
AcDbTextStyleTableRecord
  2
LiberationSans-Bold
 70
0
 40
0.0
 41
1.0
 50
0.0
 71
0
 42
2.5
  3
LiberationSans-Bold.ttf
  4

  0
STYLE
  5
50
330
5
100
AcDbSymbolTableRecord
100
AcDbTextStyleTableRecord
  2
LiberationSans-BoldItalic
 70
0
 40
0.0
 41
1.0
 50
0.0
 71
0
 42
2.5
  3
LiberationSans-BoldItalic.ttf
  4

  0
STYLE
  5
51
330
5
100
AcDbSymbolTableRecord
100
AcDbTextStyleTableRecord
  2
LiberationSans-Italic
 70
0
 40
0.0
 41
1.0
 50
0.0
 71
0
 42
2.5
  3
LiberationSans-Italic.ttf
  4

  0
STYLE
  5
52
330
5
100
AcDbSymbolTableRecord
100
AcDbTextStyleTableRecord
  2
LiberationSerif
 70
0
 40
0.0
 41
1.0
 50
0.0
 71
0
 42
2.5
  3
LiberationSerif-Regular.ttf
  4

  0
STYLE
  5
53
330
5
100
AcDbSymbolTableRecord
100
AcDbTextStyleTableRecord
  2
LiberationSerif-Bold
 70
0
 40
0.0
 41
1.0
 50
0.0
 71
0
 42
2.5
  3
LiberationSerif-Bold.ttf
  4

  0
STYLE
  5
54
330
5
100
AcDbSymbolTableRecord
100
AcDbTextStyleTableRecord
  2
LiberationSerif-BoldItalic
 70
0
 40
0.0
 41
1.0
 50
0.0
 71
0
 42
2.5
  3
LiberationSerif-BoldItalic.ttf
  4

  0
STYLE
  5
55
330
5
100
AcDbSymbolTableRecord
100
AcDbTextStyleTableRecord
  2
LiberationSerif-Italic
 70
0
 40
0.0
 41
1.0
 50
0.0
 71
0
 42
2.5
  3
LiberationSerif-Italic.ttf
  4

  0
STYLE
  5
56
330
5
100
AcDbSymbolTableRecord
100
AcDbTextStyleTableRecord
  2
LiberationMono
 70
0
 40
0.0
 41
1.0
 50
0.0
 71
0
 42
2.5
  3
LiberationMono-Regular.ttf
  4

  0
STYLE
  5
57
330
5
100
AcDbSymbolTableRecord
100
AcDbTextStyleTableRecord
  2
LiberationMono-Bold
 70
0
 40
0.0
 41
1.0
 50
0.0
 71
0
 42
2.5
  3
LiberationMono-Bold.ttf
  4

  0
STYLE
  5
58
330
5
100
AcDbSymbolTableRecord
100
AcDbTextStyleTableRecord
  2
LiberationMono-BoldItalic
 70
0
 40
0.0
 41
1.0
 50
0.0
 71
0
 42
2.5
  3
LiberationMono-BoldItalic.ttf
  4

  0
STYLE
  5
59
330
5
100
AcDbSymbolTableRecord
100
AcDbTextStyleTableRecord
  2
LiberationMono-Italic
 70
0
 40
0.0
 41
1.0
 50
0.0
 71
0
 42
2.5
  3
LiberationMono-Italic.ttf
  4

  0
STYLE
  5
8A
330
5
100
AcDbSymbolTableRecord
100
AcDbTextStyleTableRecord
  2
KOR
 70
0
 40
0.0
 41
1.0
 50
0.0
 71
0
 42
2.5
  3
Pretendard-Regular.ttf
  4

  0
ENDTAB
  0
TABLE
  2
VIEW
  5
7
330
0
100
AcDbSymbolTable
 70
0
  0
ENDTAB
  0
TABLE
  2
UCS
  5
6
330
0
100
AcDbSymbolTable
 70
0
  0
ENDTAB
  0
TABLE
  2
APPID
  5
3
330
0
100
AcDbSymbolTable
 70
3
  0
APPID
  5
2A
330
3
100
AcDbSymbolTableRecord
100
AcDbRegAppTableRecord
  2
ACAD
 70
0
  0
APPID
  5
3C6
330
3
100
AcDbSymbolTableRecord
100
AcDbRegAppTableRecord
  2
HATCHBACKGROUNDCOLOR
 70
0
  0
APPID
  5
3C7
330
3
100
AcDbSymbolTableRecord
100
AcDbRegAppTableRecord
  2
EZDXF
 70
0
  0
ENDTAB
  0
TABLE
  2
DIMSTYLE
  5
4
330
0
100
AcDbSymbolTable
 70
13
100
AcDbDimStyleTable
  0
DIMSTYLE
105
2B
330
4
100
AcDbSymbolTableRecord
100
AcDbDimStyleTableRecord
  2
Standard
 70
0
 40
1.0
 41
2.5
 42
0.625
 43
3.75
 44
1.25
 45
0.0
 46
0.0
 47
0.0
 48
0.0
 49
2.5
140
2.5
141
2.5
142
0.0
143
0.03937007874
144
1.0
145
0.0
146
1.0
147
0.625
148
0.0
 69
0
 70
0
 71
0
 72
0
 73
0
 74
0
 75
0
 76
0
 77
1
 78
8
 79
3
170
0
171
3
172
1
173
0
174
0
175
0
176
0
177
0
178
0
179
2
271
2
272
2
273
2
274
3
275
0
276
0
277
2
278
44
279
0
280
0
281
0
282
0
283
0
284
8
285
0
286
0
288
0
289
3
290
0
371
-2
372
-2
  0
DIMSTYLE
105
73
330
4
100
AcDbSymbolTableRecord
100
AcDbDimStyleTableRecord
  2
EZDXF
 70
0
 40
1.0
 41
0.175
 42
0.125
 43
3.75
 44
0.375
 45
0.0
 46
0.0
 47
0.0
 48
0.0
 49
2.5
140
0.25
141
2.5
142
0.0
143
0.03937007874
144
100.0
145
0.0
146
0.5
147
0.1
148
0.0
 69
0
 70
0
 71
0
 72
0
 73
0
 74
0
 75
0
 76
0
 77
1
 78
12
 79
3
170
0
171
3
172
1
173
0
174
0
175
0
176
0
177
0
178
0
179
2
271
2
272
2
273
2
274
3
275
0
276
0
277
2
278
46
279
2
280
0
281
0
282
0
283
0
284
8
285
0
286
0
288
1
289
3
290
0
340
4C
342
74
371
-2
372
-2
  0
DIMSTYLE
105
7C
330
4
100
AcDbSymbolTableRecord
100
AcDbDimStyleTableRecord
  2
EZ_M_100_H25_CM
 70
0
 40
1.0
 41
0.25
 42
0.125
 43
3.75
 44
0.375
 45
0.0
 46
0.0
 47
0.0
 48
0.0
 49
2.5
140
0.25
141
2.5
142
0.125
143
0.03937007874
144
100.0
145
0.0
146
0.5
147
0.1
148
0.0
 69
0
 70
0
 71
0
 72
0
 73
0
 74
0
 75
0
 76
0
 77
1
 78
12
 79
3
170
0
171
3
172
1
173
0
174
0
175
0
176
0
177
0
178
0
179
2
271
2
272
2
273
2
274
3
275
0
276
0
277
2
278
46
279
2
280
0
281
0
282
0
283
0
284
8
285
0
286
0
288
1
289
3
290
0
340
4C
371
-2
372
-2
  0
DIMSTYLE
105
7D
330
4
100
AcDbSymbolTableRecord
100
AcDbDimStyleTableRecord
  2
EZ_M_50_H25_CM
 70
0
 40
1.0
 41
0.125
 42
0.0625
 43
3.75
 44
0.1875
 45
0.0
 46
0.0
 47
0.0
 48
0.0
 49
2.5
140
0.125
141
2.5
142
0.0625
143
0.03937007874
144
100.0
145
0.0
146
0.5
147
0.05
148
0.0
 69
0
 70
0
 71
0
 72
0
 73
0
 74
0
 75
0
 76
0
 77
1
 78
12
 79
3
170
0
171
3
172
1
173
0
174
0
175
0
176
0
177
0
178
0
179
2
271
2
272
2
273
2
274
3
275
0
276
0
277
2
278
46
279
2
280
0
281
0
282
0
283
0
284
8
285
0
286
0
288
1
289
3
290
0
340
4C
371
-2
372
-2
  0
DIMSTYLE
105
7E
330
4
100
AcDbSymbolTableRecord
100
AcDbDimStyleTableRecord
  2
EZ_M_25_H25_CM
 70
0
 40
1.0
 41
0.0625
 42
0.03125
 43
3.75
 44
0.09375
 45
0.0
 46
0.0
 47
0.0
 48
0.0
 49
2.5
140
0.0625
141
2.5
142
0.03125
143
0.03937007874
144
100.0
145
0.0
146
0.5
147
0.025
148
0.0
 69
0
 70
0
 71
0
 72
0
 73
0
 74
0
 75
0
 76
0
 77
1
 78
12
 79
3
170
0
171
3
172
1
173
0
174
0
175
0
176
0
177
0
178
0
179
2
271
2
272
2
273
2
274
3
275
0
276
0
277
2
278
46
279
2
280
0
281
0
282
0
283
0
284
8
285
0
286
0
288
1
289
3
290
0
340
4C
371
-2
372
-2
  0
DIMSTYLE
105
7F
330
4
100
AcDbSymbolTableRecord
100
AcDbDimStyleTableRecord
  2
EZ_M_20_H25_CM
 70
0
 40
1.0
 41
0.05
 42
0.025
 43
3.75
 44
0.07500000000000001
 45
0.0
 46
0.0
 47
0.0
 48
0.0
 49
2.5
140
0.05
141
2.5
142
0.025
143
0.03937007874
144
100.0
145
0.0
146
0.5
147
0.020000000000000004
148
0.0
 69
0
 70
0
 71
0
 72
0
 73
0
 74
0
 75
0
 76
0
 77
1
 78
12
 79
3
170
0
171
3
172
1
173
0
174
0
175
0
176
0
177
0
178
0
179
2
271
2
272
2
273
2
274
3
275
0
276
0
277
2
278
46
279
2
280
0
281
0
282
0
283
0
284
8
285
0
286
0
288
1
289
3
290
0
340
4C
371
-2
372
-2
  0
DIMSTYLE
105
80
330
4
100
AcDbSymbolTableRecord
100
AcDbDimStyleTableRecord
  2
EZ_M_10_H25_CM
 70
0
 40
1.0
 41
0.025
 42
0.0125
 43
3.75
 44
0.037500000000000006
 45
0.0
 46
0.0
 47
0.0
 48
0.0
 49
2.5
140
0.025
141
2.5
142
0.0125
143
0.03937007874
144
100.0
145
0.0
146
0.5
147
0.010000000000000002
148
0.0
 69
0
 70
0
 71
0
 72
0
 73
0
 74
0
 75
0
 76
0
 77
1
 78
12
 79
3
170
0
171
3
172
1
173
0
174
0
175
0
176
0
177
0
178
0
179
2
271
2
272
2
273
2
274
3
275
0
276
0
277
2
278
46
279
2
280
0
281
0
282
0
283
0
284
8
285
0
286
0
288
1
289
3
290
0
340
4C
371
-2
372
-2
  0
DIMSTYLE
105
81
330
4
100
AcDbSymbolTableRecord
100
AcDbDimStyleTableRecord
  2
EZ_M_5_H25_CM
 70
0
 40
1.0
 41
0.0125
 42
0.00625
 43
3.75
 44
0.018750000000000003
 45
0.0
 46
0.0
 47
0.0
 48
0.0
 49
2.5
140
0.0125
141
2.5
142
0.00625
143
0.03937007874
144
100.0
145
0.0
146
0.5
147
0.005000000000000001
148
0.0
 69
0
 70
0
 71
0
 72
0
 73
0
 74
0
 75
0
 76
0
 77
1
 78
12
 79
3
170
0
171
3
172
1
173
0
174
0
175
0
176
0
177
0
178
0
179
2
271
2
272
2
273
2
274
3
275
0
276
0
277
2
278
46
279
2
280
0
281
0
282
0
283
0
284
8
285
0
286
0
288
1
289
3
290
0
340
4C
371
-2
372
-2
  0
DIMSTYLE
105
82
330
4
100
AcDbSymbolTableRecord
100
AcDbDimStyleTableRecord
  2
EZ_M_1_H25_CM
 70
0
 40
1.0
 41
0.0025
 42
0.00125
 43
3.75
 44
0.00375
 45
0.0
 46
0.0
 47
0.0
 48
0.0
 49
2.5
140
0.0025
141
2.5
142
0.00125
143
0.03937007874
144
100.0
145
0.0
146
0.5
147
0.001
148
0.0
 69
0
 70
0
 71
0
 72
0
 73
0
 74
0
 75
0
 76
0
 77
1
 78
12
 79
3
170
0
171
3
172
1
173
0
174
0
175
0
176
0
177
0
178
0
179
2
271
2
272
2
273
2
274
3
275
0
276
0
277
2
278
46
279
2
280
0
281
0
282
0
283
0
284
8
285
0
286
0
288
1
289
3
290
0
340
4C
371
-2
372
-2
  0
DIMSTYLE
105
83
330
4
100
AcDbSymbolTableRecord
100
AcDbDimStyleTableRecord
  2
EZ_RADIUS
 70
0
 40
1.0
 41
0.25
 42
0.125
 43
3.75
 44
0.375
 45
0.0
 46
0.0
 47
0.0
 48
0.0
 49
2.5
140
0.25
141
0.0
142
0.0
143
0.03937007874
144
100.0
145
0.0
146
0.5
147
0.1
148
0.0
 69
0
 70
0
 71
0
 72
0
 73
0
 74
0
 75
0
 76
0
 77
1
 78
12
 79
3
170
0
171
3
172
0
173
0
174
0
175
0
176
0
177
0
178
0
179
2
271
2
272
2
273
2
274
3
275
0
276
0
277
2
278
46
279
1
280
0
281
0
282
0
283
0
284
8
285
0
286
0
288
1
289
3
290
0
340
4C
342
84
371
-2
372
-2
  0
DIMSTYLE
105
88
330
4
100
AcDbSymbolTableRecord
100
AcDbDimStyleTableRecord
  2
EZ_RADIUS_INSIDE
 70
0
 40
1.0
 41
0.25
 42
0.125
 43
3.75
 44
0.375
 45
0.0
 46
0.0
 47
0.0
 48
0.0
 49
2.5
140
0.25
141
0.0
142
0.0
143
0.03937007874
144
100.0
145
0.0
146
0.5
147
0.1
148
0.0
 69
0
 70
0
 71
0
 72
0
 73
0
 74
0
 75
0
 76
0
 77
0
 78
12
 79
3
170
0
171
3
172
0
173
0
174
1
175
0
176
0
177
0
178
0
179
2
271
2
272
2
273
2
274
3
275
0
276
0
277
2
278
46
279
0
280
0
281
0
282
0
283
0
284
8
285
0
286
0
288
1
289
0
290
0
340
4C
342
84
371
-2
372
-2
  0
DIMSTYLE
105
89
330
4
100
AcDbSymbolTableRecord
100
AcDbDimStyleTableRecord
  2
EZ_CURVED
 70
0
 40
1.0
 41
0.25
 42
0.125
 43
3.75
 44
0.375
 45
0.0
 46
0.0
 47
0.0
 48
0.0
 49
2.5
140
0.25
141
2.5
142
0.0
143
0.03937007874
144
100.0
145
0.0
146
0.5
147
0.1
148
0.0
 69
0
 70
0
 71
0
 72
0
 73
0
 74
0
 75
0
 76
0
 77
1
 78
12
 79
2
 90
2
170
0
171
3
172
1
173
0
174
0
175
0
176
0
177
0
178
0
179
2
271
2
272
2
273
2
274
3
275
0
276
0
277
2
278
46
279
2
280
0
281
0
282
0
283
0
284
8
285
0
286
0
288
1
289
3
290
0
340
4C
371
-2
372
-2
  0
DIMSTYLE
105
98
330
4
100
AcDbSymbolTableRecord
100
AcDbDimStyleTableRecord
  2
D100
 70
0
 40
1.0
 41
220.0
 42
200.0
 43
3.75
 44
150.0
 45
0.0
 46
0.0
 47
0.0
 48
0.0
 49
2.5
140
300.0
141
2.5
142
0.0
143
0.03937007874
144
1.0
145
0.0
146
1.0
147
90.0
148
0.0
 69
0
 70
0
 71
0
 72
0
 73
0
 74
0
 75
0
 76
0
 77
1
 78
8
 79
3
170
0
171
3
172
1
173
0
174
0
175
0
176
1
177
1
178
1
179
2
271
0
272
2
273
2
274
3
275
0
276
0
277
2
278
44
279
0
280
0
281
0
282
0
283
0
284
8
285
0
286
0
288
0
289
3
290
0
340
8A
371
-2
372
-2
  0
ENDTAB
  0
TABLE
  2
BLOCK_RECORD
  5
9
330
0
100
AcDbSymbolTable
 70
20
  0
BLOCK_RECORD
  5
17
330
9
100
AcDbSymbolTableRecord
100
AcDbBlockTableRecord
  2
*Model_Space
340
1A
 70
0
280
1
281
0
  0
BLOCK_RECORD
  5
1B
330
9
100
AcDbSymbolTableRecord
100
AcDbBlockTableRecord
  2
*Paper_Space
340
1E
 70
0
280
1
281
0
  0
BLOCK_RECORD
  5
74
330
9
100
AcDbSymbolTableRecord
100
AcDbBlockTableRecord
  2
_ARCHTICK
340
0
 70
0
280
1
281
0
  0
BLOCK_RECORD
  5
78
330
9
100
AcDbSymbolTableRecord
100
AcDbBlockTableRecord
  2
_CLOSEDFILLED
340
0
 70
0
280
1
281
0
  0
BLOCK_RECORD
  5
84
330
9
100
AcDbSymbolTableRecord
100
AcDbBlockTableRecord
  2
_CLOSEDBLANK
340
0
 70
0
280
1
281
0
  0
BLOCK_RECORD
  5
2D7
330
9
100
AcDbSymbolTableRecord
100
AcDbBlockTableRecord
  2
*D1
340
0
 70
0
280
1
281
0
  0
BLOCK_RECORD
  5
2E6
330
9
100
AcDbSymbolTableRecord
100
AcDbBlockTableRecord
  2
*D2
340
0
 70
0
280
1
281
0
  0
BLOCK_RECORD
  5
2F5
330
9
100
AcDbSymbolTableRecord
100
AcDbBlockTableRecord
  2
*D3
340
0
 70
0
280
1
281
0
  0
BLOCK_RECORD
  5
304
330
9
100
AcDbSymbolTableRecord
100
AcDbBlockTableRecord
  2
*D4
340
0
 70
0
280
1
281
0
  0
BLOCK_RECORD
  5
313
330
9
100
AcDbSymbolTableRecord
100
AcDbBlockTableRecord
  2
*D5
340
0
 70
0
280
1
281
0
  0
BLOCK_RECORD
  5
322
330
9
100
AcDbSymbolTableRecord
100
AcDbBlockTableRecord
  2
*D6
340
0
 70
0
280
1
281
0
  0
BLOCK_RECORD
  5
331
330
9
100
AcDbSymbolTableRecord
100
AcDbBlockTableRecord
  2
*D7
340
0
 70
0
280
1
281
0
  0
BLOCK_RECORD
  5
340
330
9
100
AcDbSymbolTableRecord
100
AcDbBlockTableRecord
  2
*D8
340
0
 70
0
280
1
281
0
  0
BLOCK_RECORD
  5
34F
330
9
100
AcDbSymbolTableRecord
100
AcDbBlockTableRecord
  2
*D9
340
0
 70
0
280
1
281
0
  0
BLOCK_RECORD
  5
35E
330
9
100
AcDbSymbolTableRecord
100
AcDbBlockTableRecord
  2
*D10
340
0
 70
0
280
1
281
0
  0
BLOCK_RECORD
  5
36D
330
9
100
AcDbSymbolTableRecord
100
AcDbBlockTableRecord
  2
*D11
340
0
 70
0
280
1
281
0
  0
BLOCK_RECORD
  5
37C
330
9
100
AcDbSymbolTableRecord
100
AcDbBlockTableRecord
  2
*D12
340
0
 70
0
280
1
281
0
  0
BLOCK_RECORD
  5
38B
330
9
100
AcDbSymbolTableRecord
100
AcDbBlockTableRecord
  2
*D13
340
0
 70
0
280
1
281
0
  0
BLOCK_RECORD
  5
39A
330
9
100
AcDbSymbolTableRecord
100
AcDbBlockTableRecord
  2
*D14
340
0
 70
0
280
1
281
0
  0
BLOCK_RECORD
  5
3A9
330
9
100
AcDbSymbolTableRecord
100
AcDbBlockTableRecord
  2
*D15
340
0
 70
0
280
1
281
0
  0
ENDTAB
  0
ENDSEC
  0
SECTION
  2
BLOCKS
  0
BLOCK
  5
18
330
17
100
AcDbEntity
  8
0
100
AcDbBlockBegin
  2
*Model_Space
 70
0
 10
0.0
 20
0.0
 30
0.0
  3
*Model_Space
  1

  0
ENDBLK
  5
19
330
17
100
AcDbEntity
  8
0
100
AcDbBlockEnd
  0
BLOCK
  5
1C
330
1B
100
AcDbEntity
  8
0
100
AcDbBlockBegin
  2
*Paper_Space
 70
0
 10
0.0
 20
0.0
 30
0.0
  3
*Paper_Space
  1

  0
ENDBLK
  5
1D
330
1B
100
AcDbEntity
  8
0
100
AcDbBlockEnd
  0
BLOCK
  5
75
330
74
100
AcDbEntity
  8
0
100
AcDbBlockBegin
  2
_ARCHTICK
 70
0
 10
0.0
 20
0.0
 30
0.0
  3
_ARCHTICK
  1

  0
LWPOLYLINE
  5
77
330
74
100
AcDbEntity
  8
0
  6
BYBLOCK
 62
0
100
AcDbPolyline
 90
2
 70
0
 43
0.15
 10
-0.5
 20
-0.5
 10
0.5
 20
0.5
  0
ENDBLK
  5
76
330
74
100
AcDbEntity
  8
0
100
AcDbBlockEnd
  0
BLOCK
  5
79
330
78
100
AcDbEntity
  8
0
100
AcDbBlockBegin
  2
_CLOSEDFILLED
 70
0
 10
0.0
 20
0.0
 30
0.0
  3
_CLOSEDFILLED
  1

  0
SOLID
  5
7B
330
78
100
AcDbEntity
  8
0
  6
BYBLOCK
 62
0
100
AcDbTrace
 10
-1.0
 20
0.16439898372402537
 30
0.0
 11
0.0
 21
0.0
 31
0.0
 12
-1.0
 22
-0.16439898372402537
 32
0.0
 13
-1.0
 23
-0.16439898372402537
 33
0.0
  0
ENDBLK
  5
7A
330
78
100
AcDbEntity
  8
0
100
AcDbBlockEnd
  0
BLOCK
  5
85
330
84
100
AcDbEntity
  8
0
100
AcDbBlockBegin
  2
_CLOSEDBLANK
 70
0
 10
0.0
 20
0.0
 30
0.0
  3
_CLOSEDBLANK
  1

  0
LWPOLYLINE
  5
87
330
84
100
AcDbEntity
  8
0
  6
BYBLOCK
 62
0
100
AcDbPolyline
 90
3
 70
1
 10
-1.0
 20
0.16439898372402537
 10
0.0
 20
0.0
 10
-1.0
 20
-0.16439898372402537
  0
ENDBLK
  5
86
330
84
100
AcDbEntity
  8
0
100
AcDbBlockEnd
  0
BLOCK
  5
2D8
330
2D7
100
AcDbEntity
  8
0
100
AcDbBlockBegin
  2
*D1
 70
1
 10
0.0
 20
0.0
 30
0.0
  3
*D1
  1

  0
LINE
  5
2DA
330
2D7
100
AcDbEntity
  8
0
 62
1
100
AcDbLine
 10
0.0
 20
-200.0
 30
0.0
 11
0.0
 21
-1350.0
 31
0.0
  0
LINE
  5
2DB
330
2D7
100
AcDbEntity
  8
0
 62
1
100
AcDbLine
 10
5000.0
 20
-200.0
 30
0.0
 11
5000.0
 21
-1350.0
 31
0.0
  0
INSERT
  5
2DC
330
2D7
100
AcDbEntity
  8
S-DIM
 62
1
100
AcDbBlockReference
  2
_CLOSEDFILLED
 10
0.0
 20
-1200.0
 30
0.0
 41
220.0
 42
220.0
 50
180.0
  0
INSERT
  5
2DE
330
2D7
100
AcDbEntity
  8
S-DIM
 62
1
100
AcDbBlockReference
  2
_CLOSEDFILLED
 10
5000.0
 20
-1200.0
 30
0.0
 41
220.0
 42
220.0
  0
LINE
  5
2E0
330
2D7
100
AcDbEntity
  8
0
 62
1
100
AcDbLine
 10
220.0
 20
-1200.0
 30
0.0
 11
4780.0
 21
-1200.0
 31
0.0
  0
MTEXT
  5
2E1
330
2D7
100
AcDbEntity
  8
S-DIM
 62
1
100
AcDbMText
 10
2500.0
 20
-960.0
 30
0.0
 40
300.0
 71
5
  1
5000
  7
KOR
  0
POINT
  5
2E2
330
2D7
100
AcDbEntity
  8
Defpoints
100
AcDbPoint
 10
0.0
 20
-1200.0
 30
0.0
  0
POINT
  5
2E3
330
2D7
100
AcDbEntity
  8
Defpoints
100
AcDbPoint
 10
0.0
 20
0.0
 30
0.0
  0
POINT
  5
2E4
330
2D7
100
AcDbEntity
  8
Defpoints
100
AcDbPoint
 10
5000.0
 20
0.0
 30
0.0
  0
ENDBLK
  5
2D9
330
2D7
100
AcDbEntity
  8
0
100
AcDbBlockEnd
  0
BLOCK
  5
2E7
330
2E6
100
AcDbEntity
  8
0
100
AcDbBlockBegin
  2
*D2
 70
1
 10
0.0
 20
0.0
 30
0.0
  3
*D2
  1

  0
LINE
  5
2E9
330
2E6
100
AcDbEntity
  8
0
 62
1
100
AcDbLine
 10
5000.0
 20
-200.0
 30
0.0
 11
5000.0
 21
-1350.0
 31
0.0
  0
LINE
  5
2EA
330
2E6
100
AcDbEntity
  8
0
 62
1
100
AcDbLine
 10
12000.0
 20
-200.0
 30
0.0
 11
12000.0
 21
-1350.0
 31
0.0
  0
INSERT
  5
2EB
330
2E6
100
AcDbEntity
  8
S-DIM
 62
1
100
AcDbBlockReference
  2
_CLOSEDFILLED
 10
5000.0
 20
-1200.0
 30
0.0
 41
220.0
 42
220.0
 50
180.0
  0
INSERT
  5
2ED
330
2E6
100
AcDbEntity
  8
S-DIM
 62
1
100
AcDbBlockReference
  2
_CLOSEDFILLED
 10
12000.0
 20
-1200.0
 30
0.0
 41
220.0
 42
220.0
  0
LINE
  5
2EF
330
2E6
100
AcDbEntity
  8
0
 62
1
100
AcDbLine
 10
5220.0
 20
-1200.0
 30
0.0
 11
11780.0
 21
-1200.0
 31
0.0
  0
MTEXT
  5
2F0
330
2E6
100
AcDbEntity
  8
S-DIM
 62
1
100
AcDbMText
 10
8500.0
 20
-960.0
 30
0.0
 40
300.0
 71
5
  1
7000
  7
KOR
  0
POINT
  5
2F1
330
2E6
100
AcDbEntity
  8
Defpoints
100
AcDbPoint
 10
5000.0
 20
-1200.0
 30
0.0
  0
POINT
  5
2F2
330
2E6
100
AcDbEntity
  8
Defpoints
100
AcDbPoint
 10
5000.0
 20
0.0
 30
0.0
  0
POINT
  5
2F3
330
2E6
100
AcDbEntity
  8
Defpoints
100
AcDbPoint
 10
12000.0
 20
0.0
 30
0.0
  0
ENDBLK
  5
2E8
330
2E6
100
AcDbEntity
  8
0
100
AcDbBlockEnd
  0
BLOCK
  5
2F6
330
2F5
100
AcDbEntity
  8
0
100
AcDbBlockBegin
  2
*D3
 70
1
 10
0.0
 20
0.0
 30
0.0
  3
*D3
  1

  0
LINE
  5
2F8
330
2F5
100
AcDbEntity
  8
0
 62
1
100
AcDbLine
 10
12000.0
 20
-200.0
 30
0.0
 11
12000.0
 21
-1350.0
 31
0.0
  0
LINE
  5
2F9
330
2F5
100
AcDbEntity
  8
0
 62
1
100
AcDbLine
 10
21000.0
 20
-200.0
 30
0.0
 11
21000.0
 21
-1350.0
 31
0.0
  0
INSERT
  5
2FA
330
2F5
100
AcDbEntity
  8
S-DIM
 62
1
100
AcDbBlockReference
  2
_CLOSEDFILLED
 10
12000.0
 20
-1200.0
 30
0.0
 41
220.0
 42
220.0
 50
180.0
  0
INSERT
  5
2FC
330
2F5
100
AcDbEntity
  8
S-DIM
 62
1
100
AcDbBlockReference
  2
_CLOSEDFILLED
 10
21000.0
 20
-1200.0
 30
0.0
 41
220.0
 42
220.0
  0
LINE
  5
2FE
330
2F5
100
AcDbEntity
  8
0
 62
1
100
AcDbLine
 10
12220.0
 20
-1200.0
 30
0.0
 11
20780.0
 21
-1200.0
 31
0.0
  0
MTEXT
  5
2FF
330
2F5
100
AcDbEntity
  8
S-DIM
 62
1
100
AcDbMText
 10
16500.0
 20
-960.0
 30
0.0
 40
300.0
 71
5
  1
9000
  7
KOR
  0
POINT
  5
300
330
2F5
100
AcDbEntity
  8
Defpoints
100
AcDbPoint
 10
12000.0
 20
-1200.0
 30
0.0
  0
POINT
  5
301
330
2F5
100
AcDbEntity
  8
Defpoints
100
AcDbPoint
 10
12000.0
 20
0.0
 30
0.0
  0
POINT
  5
302
330
2F5
100
AcDbEntity
  8
Defpoints
100
AcDbPoint
 10
21000.0
 20
0.0
 30
0.0
  0
ENDBLK
  5
2F7
330
2F5
100
AcDbEntity
  8
0
100
AcDbBlockEnd
  0
BLOCK
  5
305
330
304
100
AcDbEntity
  8
0
100
AcDbBlockBegin
  2
*D4
 70
1
 10
0.0
 20
0.0
 30
0.0
  3
*D4
  1

  0
LINE
  5
307
330
304
100
AcDbEntity
  8
0
 62
1
100
AcDbLine
 10
21000.0
 20
-200.0
 30
0.0
 11
21000.0
 21
-1350.0
 31
0.0
  0
LINE
  5
308
330
304
100
AcDbEntity
  8
0
 62
1
100
AcDbLine
 10
26000.0
 20
-200.0
 30
0.0
 11
26000.0
 21
-1350.0
 31
0.0
  0
INSERT
  5
309
330
304
100
AcDbEntity
  8
S-DIM
 62
1
100
AcDbBlockReference
  2
_CLOSEDFILLED
 10
21000.0
 20
-1200.0
 30
0.0
 41
220.0
 42
220.0
 50
180.0
  0
INSERT
  5
30B
330
304
100
AcDbEntity
  8
S-DIM
 62
1
100
AcDbBlockReference
  2
_CLOSEDFILLED
 10
26000.0
 20
-1200.0
 30
0.0
 41
220.0
 42
220.0
  0
LINE
  5
30D
330
304
100
AcDbEntity
  8
0
 62
1
100
AcDbLine
 10
21220.0
 20
-1200.0
 30
0.0
 11
25780.0
 21
-1200.0
 31
0.0
  0
MTEXT
  5
30E
330
304
100
AcDbEntity
  8
S-DIM
 62
1
100
AcDbMText
 10
23500.0
 20
-960.0
 30
0.0
 40
300.0
 71
5
  1
5000
  7
KOR
  0
POINT
  5
30F
330
304
100
AcDbEntity
  8
Defpoints
100
AcDbPoint
 10
21000.0
 20
-1200.0
 30
0.0
  0
POINT
  5
310
330
304
100
AcDbEntity
  8
Defpoints
100
AcDbPoint
 10
21000.0
 20
0.0
 30
0.0
  0
POINT
  5
311
330
304
100
AcDbEntity
  8
Defpoints
100
AcDbPoint
 10
26000.0
 20
0.0
 30
0.0
  0
ENDBLK
  5
306
330
304
100
AcDbEntity
  8
0
100
AcDbBlockEnd
  0
BLOCK
  5
314
330
313
100
AcDbEntity
  8
0
100
AcDbBlockBegin
  2
*D5
 70
1
 10
0.0
 20
0.0
 30
0.0
  3
*D5
  1

  0
LINE
  5
316
330
313
100
AcDbEntity
  8
0
 62
1
100
AcDbLine
 10
26000.0
 20
-200.0
 30
0.0
 11
26000.0
 21
-1350.0
 31
0.0
  0
LINE
  5
317
330
313
100
AcDbEntity
  8
0
 62
1
100
AcDbLine
 10
33000.0
 20
-200.0
 30
0.0
 11
33000.0
 21
-1350.0
 31
0.0
  0
INSERT
  5
318
330
313
100
AcDbEntity
  8
S-DIM
 62
1
100
AcDbBlockReference
  2
_CLOSEDFILLED
 10
26000.0
 20
-1200.0
 30
0.0
 41
220.0
 42
220.0
 50
180.0
  0
INSERT
  5
31A
330
313
100
AcDbEntity
  8
S-DIM
 62
1
100
AcDbBlockReference
  2
_CLOSEDFILLED
 10
33000.0
 20
-1200.0
 30
0.0
 41
220.0
 42
220.0
  0
LINE
  5
31C
330
313
100
AcDbEntity
  8
0
 62
1
100
AcDbLine
 10
26220.0
 20
-1200.0
 30
0.0
 11
32780.0
 21
-1200.0
 31
0.0
  0
MTEXT
  5
31D
330
313
100
AcDbEntity
  8
S-DIM
 62
1
100
AcDbMText
 10
29500.0
 20
-960.0
 30
0.0
 40
300.0
 71
5
  1
7000
  7
KOR
  0
POINT
  5
31E
330
313
100
AcDbEntity
  8
Defpoints
100
AcDbPoint
 10
26000.0
 20
-1200.0
 30
0.0
  0
POINT
  5
31F
330
313
100
AcDbEntity
  8
Defpoints
100
AcDbPoint
 10
26000.0
 20
0.0
 30
0.0
  0
POINT
  5
320
330
313
100
AcDbEntity
  8
Defpoints
100
AcDbPoint
 10
33000.0
 20
0.0
 30
0.0
  0
ENDBLK
  5
315
330
313
100
AcDbEntity
  8
0
100
AcDbBlockEnd
  0
BLOCK
  5
323
330
322
100
AcDbEntity
  8
0
100
AcDbBlockBegin
  2
*D6
 70
1
 10
0.0
 20
0.0
 30
0.0
  3
*D6
  1

  0
LINE
  5
325
330
322
100
AcDbEntity
  8
0
 62
1
100
AcDbLine
 10
0.0
 20
-200.0
 30
0.0
 11
0.0
 21
-2450.0
 31
0.0
  0
LINE
  5
326
330
322
100
AcDbEntity
  8
0
 62
1
100
AcDbLine
 10
33000.0
 20
-200.0
 30
0.0
 11
33000.0
 21
-2450.0
 31
0.0
  0
INSERT
  5
327
330
322
100
AcDbEntity
  8
S-DIM
 62
1
100
AcDbBlockReference
  2
_CLOSEDFILLED
 10
0.0
 20
-2300.0
 30
0.0
 41
220.0
 42
220.0
 50
180.0
  0
INSERT
  5
329
330
322
100
AcDbEntity
  8
S-DIM
 62
1
100
AcDbBlockReference
  2
_CLOSEDFILLED
 10
33000.0
 20
-2300.0
 30
0.0
 41
220.0
 42
220.0
  0
LINE
  5
32B
330
322
100
AcDbEntity
  8
0
 62
1
100
AcDbLine
 10
220.0
 20
-2300.0
 30
0.0
 11
32780.0
 21
-2300.0
 31
0.0
  0
MTEXT
  5
32C
330
322
100
AcDbEntity
  8
S-DIM
 62
1
100
AcDbMText
 10
16500.0
 20
-2060.0
 30
0.0
 40
300.0
 71
5
  1
33000
  7
KOR
  0
POINT
  5
32D
330
322
100
AcDbEntity
  8
Defpoints
100
AcDbPoint
 10
0.0
 20
-2300.0
 30
0.0
  0
POINT
  5
32E
330
322
100
AcDbEntity
  8
Defpoints
100
AcDbPoint
 10
0.0
 20
0.0
 30
0.0
  0
POINT
  5
32F
330
322
100
AcDbEntity
  8
Defpoints
100
AcDbPoint
 10
33000.0
 20
0.0
 30
0.0
  0
ENDBLK
  5
324
330
322
100
AcDbEntity
  8
0
100
AcDbBlockEnd
  0
BLOCK
  5
332
330
331
100
AcDbEntity
  8
0
100
AcDbBlockBegin
  2
*D7
 70
1
 10
0.0
 20
0.0
 30
0.0
  3
*D7
  1

  0
LINE
  5
334
330
331
100
AcDbEntity
  8
0
 62
1
100
AcDbLine
 10
0.0
 20
23000.0
 30
0.0
 11
0.0
 21
24350.0
 31
0.0
  0
LINE
  5
335
330
331
100
AcDbEntity
  8
0
 62
1
100
AcDbLine
 10
7000.0
 20
23000.0
 30
0.0
 11
7000.0
 21
24350.0
 31
0.0
  0
INSERT
  5
336
330
331
100
AcDbEntity
  8
S-DIM
 62
1
100
AcDbBlockReference
  2
_CLOSEDFILLED
 10
0.0
 20
24200.0
 30
0.0
 41
220.0
 42
220.0
 50
180.0
  0
INSERT
  5
338
330
331
100
AcDbEntity
  8
S-DIM
 62
1
100
AcDbBlockReference
  2
_CLOSEDFILLED
 10
7000.0
 20
24200.0
 30
0.0
 41
220.0
 42
220.0
  0
LINE
  5
33A
330
331
100
AcDbEntity
  8
0
 62
1
100
AcDbLine
 10
220.0
 20
24200.0
 30
0.0
 11
6780.0
 21
24200.0
 31
0.0
  0
MTEXT
  5
33B
330
331
100
AcDbEntity
  8
S-DIM
 62
1
100
AcDbMText
 10
3500.0
 20
24440.0
 30
0.0
 40
300.0
 71
5
  1
7000
  7
KOR
  0
POINT
  5
33C
330
331
100
AcDbEntity
  8
Defpoints
100
AcDbPoint
 10
0.0
 20
24200.0
 30
0.0
  0
POINT
  5
33D
330
331
100
AcDbEntity
  8
Defpoints
100
AcDbPoint
 10
0.0
 20
22800.0
 30
0.0
  0
POINT
  5
33E
330
331
100
AcDbEntity
  8
Defpoints
100
AcDbPoint
 10
7000.0
 20
22800.0
 30
0.0
  0
ENDBLK
  5
333
330
331
100
AcDbEntity
  8
0
100
AcDbBlockEnd
  0
BLOCK
  5
341
330
340
100
AcDbEntity
  8
0
100
AcDbBlockBegin
  2
*D8
 70
1
 10
0.0
 20
0.0
 30
0.0
  3
*D8
  1

  0
LINE
  5
343
330
340
100
AcDbEntity
  8
0
 62
1
100
AcDbLine
 10
7000.0
 20
23000.0
 30
0.0
 11
7000.0
 21
24350.0
 31
0.0
  0
LINE
  5
344
330
340
100
AcDbEntity
  8
0
 62
1
100
AcDbLine
 10
14000.0
 20
23000.0
 30
0.0
 11
14000.0
 21
24350.0
 31
0.0
  0
INSERT
  5
345
330
340
100
AcDbEntity
  8
S-DIM
 62
1
100
AcDbBlockReference
  2
_CLOSEDFILLED
 10
7000.0
 20
24200.0
 30
0.0
 41
220.0
 42
220.0
 50
180.0
  0
INSERT
  5
347
330
340
100
AcDbEntity
  8
S-DIM
 62
1
100
AcDbBlockReference
  2
_CLOSEDFILLED
 10
14000.0
 20
24200.0
 30
0.0
 41
220.0
 42
220.0
  0
LINE
  5
349
330
340
100
AcDbEntity
  8
0
 62
1
100
AcDbLine
 10
7220.0
 20
24200.0
 30
0.0
 11
13780.0
 21
24200.0
 31
0.0
  0
MTEXT
  5
34A
330
340
100
AcDbEntity
  8
S-DIM
 62
1
100
AcDbMText
 10
10500.0
 20
24440.0
 30
0.0
 40
300.0
 71
5
  1
7000
  7
KOR
  0
POINT
  5
34B
330
340
100
AcDbEntity
  8
Defpoints
100
AcDbPoint
 10
7000.0
 20
24200.0
 30
0.0
  0
POINT
  5
34C
330
340
100
AcDbEntity
  8
Defpoints
100
AcDbPoint
 10
7000.0
 20
22800.0
 30
0.0
  0
POINT
  5
34D
330
340
100
AcDbEntity
  8
Defpoints
100
AcDbPoint
 10
14000.0
 20
22800.0
 30
0.0
  0
ENDBLK
  5
342
330
340
100
AcDbEntity
  8
0
100
AcDbBlockEnd
  0
BLOCK
  5
350
330
34F
100
AcDbEntity
  8
0
100
AcDbBlockBegin
  2
*D9
 70
1
 10
0.0
 20
0.0
 30
0.0
  3
*D9
  1

  0
LINE
  5
352
330
34F
100
AcDbEntity
  8
0
 62
1
100
AcDbLine
 10
14000.0
 20
23000.0
 30
0.0
 11
14000.0
 21
24350.0
 31
0.0
  0
LINE
  5
353
330
34F
100
AcDbEntity
  8
0
 62
1
100
AcDbLine
 10
17500.0
 20
23000.0
 30
0.0
 11
17500.0
 21
24350.0
 31
0.0
  0
INSERT
  5
354
330
34F
100
AcDbEntity
  8
S-DIM
 62
1
100
AcDbBlockReference
  2
_CLOSEDFILLED
 10
14000.0
 20
24200.0
 30
0.0
 41
220.0
 42
220.0
 50
180.0
  0
INSERT
  5
356
330
34F
100
AcDbEntity
  8
S-DIM
 62
1
100
AcDbBlockReference
  2
_CLOSEDFILLED
 10
17500.0
 20
24200.0
 30
0.0
 41
220.0
 42
220.0
  0
LINE
  5
358
330
34F
100
AcDbEntity
  8
0
 62
1
100
AcDbLine
 10
14220.0
 20
24200.0
 30
0.0
 11
17280.0
 21
24200.0
 31
0.0
  0
MTEXT
  5
359
330
34F
100
AcDbEntity
  8
S-DIM
 62
1
100
AcDbMText
 10
15750.0
 20
24440.0
 30
0.0
 40
300.0
 71
5
  1
3500
  7
KOR
  0
POINT
  5
35A
330
34F
100
AcDbEntity
  8
Defpoints
100
AcDbPoint
 10
14000.0
 20
24200.0
 30
0.0
  0
POINT
  5
35B
330
34F
100
AcDbEntity
  8
Defpoints
100
AcDbPoint
 10
14000.0
 20
22800.0
 30
0.0
  0
POINT
  5
35C
330
34F
100
AcDbEntity
  8
Defpoints
100
AcDbPoint
 10
17500.0
 20
22800.0
 30
0.0
  0
ENDBLK
  5
351
330
34F
100
AcDbEntity
  8
0
100
AcDbBlockEnd
  0
BLOCK
  5
35F
330
35E
100
AcDbEntity
  8
0
100
AcDbBlockBegin
  2
*D10
 70
1
 10
0.0
 20
0.0
 30
0.0
  3
*D10
  1

  0
LINE
  5
361
330
35E
100
AcDbEntity
  8
0
 62
1
100
AcDbLine
 10
17500.0
 20
23000.0
 30
0.0
 11
17500.0
 21
24350.0
 31
0.0
  0
LINE
  5
362
330
35E
100
AcDbEntity
  8
0
 62
1
100
AcDbLine
 10
24500.0
 20
23000.0
 30
0.0
 11
24500.0
 21
24350.0
 31
0.0
  0
INSERT
  5
363
330
35E
100
AcDbEntity
  8
S-DIM
 62
1
100
AcDbBlockReference
  2
_CLOSEDFILLED
 10
17500.0
 20
24200.0
 30
0.0
 41
220.0
 42
220.0
 50
180.0
  0
INSERT
  5
365
330
35E
100
AcDbEntity
  8
S-DIM
 62
1
100
AcDbBlockReference
  2
_CLOSEDFILLED
 10
24500.0
 20
24200.0
 30
0.0
 41
220.0
 42
220.0
  0
LINE
  5
367
330
35E
100
AcDbEntity
  8
0
 62
1
100
AcDbLine
 10
17720.0
 20
24200.0
 30
0.0
 11
24280.0
 21
24200.0
 31
0.0
  0
MTEXT
  5
368
330
35E
100
AcDbEntity
  8
S-DIM
 62
1
100
AcDbMText
 10
21000.0
 20
24440.0
 30
0.0
 40
300.0
 71
5
  1
7000
  7
KOR
  0
POINT
  5
369
330
35E
100
AcDbEntity
  8
Defpoints
100
AcDbPoint
 10
17500.0
 20
24200.0
 30
0.0
  0
POINT
  5
36A
330
35E
100
AcDbEntity
  8
Defpoints
100
AcDbPoint
 10
17500.0
 20
22800.0
 30
0.0
  0
POINT
  5
36B
330
35E
100
AcDbEntity
  8
Defpoints
100
AcDbPoint
 10
24500.0
 20
22800.0
 30
0.0
  0
ENDBLK
  5
360
330
35E
100
AcDbEntity
  8
0
100
AcDbBlockEnd
  0
BLOCK
  5
36E
330
36D
100
AcDbEntity
  8
0
100
AcDbBlockBegin
  2
*D11
 70
1
 10
0.0
 20
0.0
 30
0.0
  3
*D11
  1

  0
LINE
  5
370
330
36D
100
AcDbEntity
  8
0
 62
1
100
AcDbLine
 10
24500.0
 20
23000.0
 30
0.0
 11
24500.0
 21
24350.0
 31
0.0
  0
LINE
  5
371
330
36D
100
AcDbEntity
  8
0
 62
1
100
AcDbLine
 10
31500.0
 20
23000.0
 30
0.0
 11
31500.0
 21
24350.0
 31
0.0
  0
INSERT
  5
372
330
36D
100
AcDbEntity
  8
S-DIM
 62
1
100
AcDbBlockReference
  2
_CLOSEDFILLED
 10
24500.0
 20
24200.0
 30
0.0
 41
220.0
 42
220.0
 50
180.0
  0
INSERT
  5
374
330
36D
100
AcDbEntity
  8
S-DIM
 62
1
100
AcDbBlockReference
  2
_CLOSEDFILLED
 10
31500.0
 20
24200.0
 30
0.0
 41
220.0
 42
220.0
  0
LINE
  5
376
330
36D
100
AcDbEntity
  8
0
 62
1
100
AcDbLine
 10
24720.0
 20
24200.0
 30
0.0
 11
31280.0
 21
24200.0
 31
0.0
  0
MTEXT
  5
377
330
36D
100
AcDbEntity
  8
S-DIM
 62
1
100
AcDbMText
 10
28000.0
 20
24440.0
 30
0.0
 40
300.0
 71
5
  1
7000
  7
KOR
  0
POINT
  5
378
330
36D
100
AcDbEntity
  8
Defpoints
100
AcDbPoint
 10
24500.0
 20
24200.0
 30
0.0
  0
POINT
  5
379
330
36D
100
AcDbEntity
  8
Defpoints
100
AcDbPoint
 10
24500.0
 20
22800.0
 30
0.0
  0
POINT
  5
37A
330
36D
100
AcDbEntity
  8
Defpoints
100
AcDbPoint
 10
31500.0
 20
22800.0
 30
0.0
  0
ENDBLK
  5
36F
330
36D
100
AcDbEntity
  8
0
100
AcDbBlockEnd
  0
BLOCK
  5
37D
330
37C
100
AcDbEntity
  8
0
100
AcDbBlockBegin
  2
*D12
 70
1
 10
0.0
 20
0.0
 30
0.0
  3
*D12
  1

  0
LINE
  5
37F
330
37C
100
AcDbEntity
  8
0
 62
1
100
AcDbLine
 10
-200.0
 20
0.0
 30
0.0
 11
-1350.0
 21
0.0
 31
0.0
  0
LINE
  5
380
330
37C
100
AcDbEntity
  8
0
 62
1
100
AcDbLine
 10
-200.0
 20
6500.0
 30
0.0
 11
-1350.0
 21
6500.0
 31
0.0
  0
INSERT
  5
381
330
37C
100
AcDbEntity
  8
S-DIM
 62
1
100
AcDbBlockReference
  2
_CLOSEDFILLED
 10
-1200.0
 20
0.0
 30
0.0
 41
220.0
 42
220.0
 50
270.0
  0
INSERT
  5
383
330
37C
100
AcDbEntity
  8
S-DIM
 62
1
100
AcDbBlockReference
  2
_CLOSEDFILLED
 10
-1200.0
 20
6500.0
 30
0.0
 41
220.0
 42
220.0
 50
90.0
  0
LINE
  5
385
330
37C
100
AcDbEntity
  8
0
 62
1
100
AcDbLine
 10
-1200.0
 20
220.0
 30
0.0
 11
-1200.0
 21
6280.0
 31
0.0
  0
MTEXT
  5
386
330
37C
100
AcDbEntity
  8
S-DIM
 62
1
100
AcDbMText
 10
-1440.0
 20
3250.0
 30
0.0
 40
300.0
 71
5
  1
6500
  7
KOR
 50
90.0
  0
POINT
  5
387
330
37C
100
AcDbEntity
  8
Defpoints
100
AcDbPoint
 10
-1200.0
 20
0.0
 30
0.0
  0
POINT
  5
388
330
37C
100
AcDbEntity
  8
Defpoints
100
AcDbPoint
 10
0.0
 20
0.0
 30
0.0
  0
POINT
  5
389
330
37C
100
AcDbEntity
  8
Defpoints
100
AcDbPoint
 10
0.0
 20
6500.0
 30
0.0
  0
ENDBLK
  5
37E
330
37C
100
AcDbEntity
  8
0
100
AcDbBlockEnd
  0
BLOCK
  5
38C
330
38B
100
AcDbEntity
  8
0
100
AcDbBlockBegin
  2
*D13
 70
1
 10
0.0
 20
0.0
 30
0.0
  3
*D13
  1

  0
LINE
  5
38E
330
38B
100
AcDbEntity
  8
0
 62
1
100
AcDbLine
 10
-200.0
 20
6500.0
 30
0.0
 11
-1350.0
 21
6500.0
 31
0.0
  0
LINE
  5
38F
330
38B
100
AcDbEntity
  8
0
 62
1
100
AcDbLine
 10
-200.0
 20
16300.0
 30
0.0
 11
-1350.0
 21
16300.0
 31
0.0
  0
INSERT
  5
390
330
38B
100
AcDbEntity
  8
S-DIM
 62
1
100
AcDbBlockReference
  2
_CLOSEDFILLED
 10
-1200.0
 20
6500.0
 30
0.0
 41
220.0
 42
220.0
 50
270.0
  0
INSERT
  5
392
330
38B
100
AcDbEntity
  8
S-DIM
 62
1
100
AcDbBlockReference
  2
_CLOSEDFILLED
 10
-1200.0
 20
16300.0
 30
0.0
 41
220.0
 42
220.0
 50
90.0
  0
LINE
  5
394
330
38B
100
AcDbEntity
  8
0
 62
1
100
AcDbLine
 10
-1200.0
 20
6720.0
 30
0.0
 11
-1200.0
 21
16080.0
 31
0.0
  0
MTEXT
  5
395
330
38B
100
AcDbEntity
  8
S-DIM
 62
1
100
AcDbMText
 10
-1440.0
 20
11400.0
 30
0.0
 40
300.0
 71
5
  1
9800
  7
KOR
 50
90.0
  0
POINT
  5
396
330
38B
100
AcDbEntity
  8
Defpoints
100
AcDbPoint
 10
-1200.0
 20
6500.0
 30
0.0
  0
POINT
  5
397
330
38B
100
AcDbEntity
  8
Defpoints
100
AcDbPoint
 10
0.0
 20
6500.0
 30
0.0
  0
POINT
  5
398
330
38B
100
AcDbEntity
  8
Defpoints
100
AcDbPoint
 10
0.0
 20
16300.0
 30
0.0
  0
ENDBLK
  5
38D
330
38B
100
AcDbEntity
  8
0
100
AcDbBlockEnd
  0
BLOCK
  5
39B
330
39A
100
AcDbEntity
  8
0
100
AcDbBlockBegin
  2
*D14
 70
1
 10
0.0
 20
0.0
 30
0.0
  3
*D14
  1

  0
LINE
  5
39D
330
39A
100
AcDbEntity
  8
0
 62
1
100
AcDbLine
 10
-200.0
 20
16300.0
 30
0.0
 11
-1350.0
 21
16300.0
 31
0.0
  0
LINE
  5
39E
330
39A
100
AcDbEntity
  8
0
 62
1
100
AcDbLine
 10
-200.0
 20
22800.0
 30
0.0
 11
-1350.0
 21
22800.0
 31
0.0
  0
INSERT
  5
39F
330
39A
100
AcDbEntity
  8
S-DIM
 62
1
100
AcDbBlockReference
  2
_CLOSEDFILLED
 10
-1200.0
 20
16300.0
 30
0.0
 41
220.0
 42
220.0
 50
270.0
  0
INSERT
  5
3A1
330
39A
100
AcDbEntity
  8
S-DIM
 62
1
100
AcDbBlockReference
  2
_CLOSEDFILLED
 10
-1200.0
 20
22800.0
 30
0.0
 41
220.0
 42
220.0
 50
90.0
  0
LINE
  5
3A3
330
39A
100
AcDbEntity
  8
0
 62
1
100
AcDbLine
 10
-1200.0
 20
16520.0
 30
0.0
 11
-1200.0
 21
22580.0
 31
0.0
  0
MTEXT
  5
3A4
330
39A
100
AcDbEntity
  8
S-DIM
 62
1
100
AcDbMText
 10
-1440.0
 20
19550.0
 30
0.0
 40
300.0
 71
5
  1
6500
  7
KOR
 50
90.0
  0
POINT
  5
3A5
330
39A
100
AcDbEntity
  8
Defpoints
100
AcDbPoint
 10
-1200.0
 20
16300.0
 30
0.0
  0
POINT
  5
3A6
330
39A
100
AcDbEntity
  8
Defpoints
100
AcDbPoint
 10
0.0
 20
16300.0
 30
0.0
  0
POINT
  5
3A7
330
39A
100
AcDbEntity
  8
Defpoints
100
AcDbPoint
 10
0.0
 20
22800.0
 30
0.0
  0
ENDBLK
  5
39C
330
39A
100
AcDbEntity
  8
0
100
AcDbBlockEnd
  0
BLOCK
  5
3AA
330
3A9
100
AcDbEntity
  8
0
100
AcDbBlockBegin
  2
*D15
 70
1
 10
0.0
 20
0.0
 30
0.0
  3
*D15
  1

  0
LINE
  5
3AC
330
3A9
100
AcDbEntity
  8
0
 62
1
100
AcDbLine
 10
-200.0
 20
0.0
 30
0.0
 11
-2450.0
 21
0.0
 31
0.0
  0
LINE
  5
3AD
330
3A9
100
AcDbEntity
  8
0
 62
1
100
AcDbLine
 10
-200.0
 20
22800.0
 30
0.0
 11
-2450.0
 21
22800.0
 31
0.0
  0
INSERT
  5
3AE
330
3A9
100
AcDbEntity
  8
S-DIM
 62
1
100
AcDbBlockReference
  2
_CLOSEDFILLED
 10
-2300.0
 20
0.0
 30
0.0
 41
220.0
 42
220.0
 50
270.0
  0
INSERT
  5
3B0
330
3A9
100
AcDbEntity
  8
S-DIM
 62
1
100
AcDbBlockReference
  2
_CLOSEDFILLED
 10
-2300.0
 20
22800.0
 30
0.0
 41
220.0
 42
220.0
 50
90.0
  0
LINE
  5
3B2
330
3A9
100
AcDbEntity
  8
0
 62
1
100
AcDbLine
 10
-2300.0
 20
220.0
 30
0.0
 11
-2300.0
 21
22580.0
 31
0.0
  0
MTEXT
  5
3B3
330
3A9
100
AcDbEntity
  8
S-DIM
 62
1
100
AcDbMText
 10
-2540.0
 20
11400.0
 30
0.0
 40
300.0
 71
5
  1
22800
  7
KOR
 50
90.0
  0
POINT
  5
3B4
330
3A9
100
AcDbEntity
  8
Defpoints
100
AcDbPoint
 10
-2300.0
 20
0.0
 30
0.0
  0
POINT
  5
3B5
330
3A9
100
AcDbEntity
  8
Defpoints
100
AcDbPoint
 10
0.0
 20
0.0
 30
0.0
  0
POINT
  5
3B6
330
3A9
100
AcDbEntity
  8
Defpoints
100
AcDbPoint
 10
0.0
 20
22800.0
 30
0.0
  0
ENDBLK
  5
3AB
330
3A9
100
AcDbEntity
  8
0
100
AcDbBlockEnd
  0
ENDSEC
  0
SECTION
  2
ENTITIES
  0
LWPOLYLINE
  5
99
330
17
100
AcDbEntity
  8
0CONC
100
AcDbPolyline
 90
4
 70
1
 10
5000.0
 20
0.0
 10
6200.0
 20
0.0
 10
6200.0
 20
200.0
 10
5000.0
 20
200.0
  0
HATCH
  5
9A
330
17
100
AcDbEntity
  8
해치벽체
 62
8
100
AcDbHatch
 10
0.0
 20
0.0
 30
0.0
210
0.0
220
0.0
230
1.0
  2
ANSI31
 70
0
 71
0
 91
1
 92
3
 72
0
 73
1
 93
4
 10
5000.0
 20
0.0
 10
6200.0
 20
0.0
 10
6200.0
 20
200.0
 10
5000.0
 20
200.0
 97
0
 75
1
 76
1
 52
0.0
 41
18.0
 77
0
 78
1
 53
45.0
 43
0.0
 44
0.0
 45
-40.4111525454
 46
40.4111525454
 79
0
 98
0
  0
LWPOLYLINE
  5
9B
330
17
100
AcDbEntity
  8
0CONC
100
AcDbPolyline
 90
4
 70
1
 10
10800.0
 20
0.0
 10
13500.0
 20
0.0
 10
13500.0
 20
200.0
 10
10800.0
 20
200.0
  0
HATCH
  5
9C
330
17
100
AcDbEntity
  8
해치벽체
 62
8
100
AcDbHatch
 10
0.0
 20
0.0
 30
0.0
210
0.0
220
0.0
230
1.0
  2
ANSI31
 70
0
 71
0
 91
1
 92
3
 72
0
 73
1
 93
4
 10
10800.0
 20
0.0
 10
13500.0
 20
0.0
 10
13500.0
 20
200.0
 10
10800.0
 20
200.0
 97
0
 75
1
 76
1
 52
0.0
 41
18.0
 77
0
 78
1
 53
45.0
 43
0.0
 44
0.0
 45
-40.4111525454
 46
40.4111525454
 79
0
 98
0
  0
LWPOLYLINE
  5
9D
330
17
100
AcDbEntity
  8
0CONC
100
AcDbPolyline
 90
4
 70
1
 10
19500.0
 20
0.0
 10
27200.0
 20
0.0
 10
27200.0
 20
200.0
 10
19500.0
 20
200.0
  0
HATCH
  5
9E
330
17
100
AcDbEntity
  8
해치벽체
 62
8
100
AcDbHatch
 10
0.0
 20
0.0
 30
0.0
210
0.0
220
0.0
230
1.0
  2
ANSI31
 70
0
 71
0
 91
1
 92
3
 72
0
 73
1
 93
4
 10
19500.0
 20
0.0
 10
27200.0
 20
0.0
 10
27200.0
 20
200.0
 10
19500.0
 20
200.0
 97
0
 75
1
 76
1
 52
0.0
 41
18.0
 77
0
 78
1
 53
45.0
 43
0.0
 44
0.0
 45
-40.4111525454
 46
40.4111525454
 79
0
 98
0
  0
LWPOLYLINE
  5
9F
330
17
100
AcDbEntity
  8
0CONC
100
AcDbPolyline
 90
4
 70
1
 10
31800.0
 20
0.0
 10
33000.0
 20
0.0
 10
33000.0
 20
200.0
 10
31800.0
 20
200.0
  0
HATCH
  5
A0
330
17
100
AcDbEntity
  8
해치벽체
 62
8
100
AcDbHatch
 10
0.0
 20
0.0
 30
0.0
210
0.0
220
0.0
230
1.0
  2
ANSI31
 70
0
 71
0
 91
1
 92
3
 72
0
 73
1
 93
4
 10
31800.0
 20
0.0
 10
33000.0
 20
0.0
 10
33000.0
 20
200.0
 10
31800.0
 20
200.0
 97
0
 75
1
 76
1
 52
0.0
 41
18.0
 77
0
 78
1
 53
45.0
 43
0.0
 44
0.0
 45
-40.4111525454
 46
40.4111525454
 79
0
 98
0
  0
LINE
  5
A1
330
17
100
AcDbEntity
  8
0WIN
100
AcDbLine
 10
6200.0
 20
0.0
 30
0.0
 11
10800.0
 21
0.0
 31
0.0
  0
LINE
  5
A2
330
17
100
AcDbEntity
  8
0WIN
100
AcDbLine
 10
6200.0
 20
66.66666666666667
 30
0.0
 11
10800.0
 21
66.66666666666667
 31
0.0
  0
LINE
  5
A3
330
17
100
AcDbEntity
  8
0WIN
100
AcDbLine
 10
6200.0
 20
133.33333333333331
 30
0.0
 11
10800.0
 21
133.33333333333331
 31
0.0
  0
LINE
  5
A4
330
17
100
AcDbEntity
  8
0WIN
100
AcDbLine
 10
6200.0
 20
200.0
 30
0.0
 11
10800.0
 21
200.0
 31
0.0
  0
LINE
  5
A5
330
17
100
AcDbEntity
  8
0WIN
100
AcDbLine
 10
6200.0
 20
0.0
 30
0.0
 11
6200.0
 21
200.0
 31
0.0
  0
LINE
  5
A6
330
17
100
AcDbEntity
  8
0WIN
100
AcDbLine
 10
10800.0
 20
0.0
 30
0.0
 11
10800.0
 21
200.0
 31
0.0
  0
LINE
  5
A7
330
17
100
AcDbEntity
  8
0WIN
100
AcDbLine
 10
13500.0
 20
0.0
 30
0.0
 11
19500.0
 21
0.0
 31
0.0
  0
LINE
  5
A8
330
17
100
AcDbEntity
  8
0WIN
100
AcDbLine
 10
13500.0
 20
66.66666666666667
 30
0.0
 11
19500.0
 21
66.66666666666667
 31
0.0
  0
LINE
  5
A9
330
17
100
AcDbEntity
  8
0WIN
100
AcDbLine
 10
13500.0
 20
133.33333333333331
 30
0.0
 11
19500.0
 21
133.33333333333331
 31
0.0
  0
LINE
  5
AA
330
17
100
AcDbEntity
  8
0WIN
100
AcDbLine
 10
13500.0
 20
200.0
 30
0.0
 11
19500.0
 21
200.0
 31
0.0
  0
LINE
  5
AB
330
17
100
AcDbEntity
  8
0WIN
100
AcDbLine
 10
13500.0
 20
0.0
 30
0.0
 11
13500.0
 21
200.0
 31
0.0
  0
LINE
  5
AC
330
17
100
AcDbEntity
  8
0WIN
100
AcDbLine
 10
19500.0
 20
0.0
 30
0.0
 11
19500.0
 21
200.0
 31
0.0
  0
LINE
  5
AD
330
17
100
AcDbEntity
  8
0WIN
100
AcDbLine
 10
27200.0
 20
0.0
 30
0.0
 11
31800.0
 21
0.0
 31
0.0
  0
LINE
  5
AE
330
17
100
AcDbEntity
  8
0WIN
100
AcDbLine
 10
27200.0
 20
66.66666666666667
 30
0.0
 11
31800.0
 21
66.66666666666667
 31
0.0
  0
LINE
  5
AF
330
17
100
AcDbEntity
  8
0WIN
100
AcDbLine
 10
27200.0
 20
133.33333333333331
 30
0.0
 11
31800.0
 21
133.33333333333331
 31
0.0
  0
LINE
  5
B0
330
17
100
AcDbEntity
  8
0WIN
100
AcDbLine
 10
27200.0
 20
200.0
 30
0.0
 11
31800.0
 21
200.0
 31
0.0
  0
LINE
  5
B1
330
17
100
AcDbEntity
  8
0WIN
100
AcDbLine
 10
27200.0
 20
0.0
 30
0.0
 11
27200.0
 21
200.0
 31
0.0
  0
LINE
  5
B2
330
17
100
AcDbEntity
  8
0WIN
100
AcDbLine
 10
31800.0
 20
0.0
 30
0.0
 11
31800.0
 21
200.0
 31
0.0
  0
LWPOLYLINE
  5
B3
330
17
100
AcDbEntity
  8
0CONC
100
AcDbPolyline
 90
4
 70
1
 10
5000.0
 20
200.0
 10
5200.0
 20
200.0
 10
5200.0
 20
6500.0
 10
5000.0
 20
6500.0
  0
HATCH
  5
B4
330
17
100
AcDbEntity
  8
해치벽체
 62
8
100
AcDbHatch
 10
0.0
 20
0.0
 30
0.0
210
0.0
220
0.0
230
1.0
  2
ANSI31
 70
0
 71
0
 91
1
 92
3
 72
0
 73
1
 93
4
 10
5000.0
 20
200.0
 10
5200.0
 20
200.0
 10
5200.0
 20
6500.0
 10
5000.0
 20
6500.0
 97
0
 75
1
 76
1
 52
0.0
 41
18.0
 77
0
 78
1
 53
45.0
 43
0.0
 44
0.0
 45
-40.4111525454
 46
40.4111525454
 79
0
 98
0
  0
LWPOLYLINE
  5
B5
330
17
100
AcDbEntity
  8
0CONC
100
AcDbPolyline
 90
4
 70
1
 10
32800.0
 20
200.0
 10
33000.0
 20
200.0
 10
33000.0
 20
6500.0
 10
32800.0
 20
6500.0
  0
HATCH
  5
B6
330
17
100
AcDbEntity
  8
해치벽체
 62
8
100
AcDbHatch
 10
0.0
 20
0.0
 30
0.0
210
0.0
220
0.0
230
1.0
  2
ANSI31
 70
0
 71
0
 91
1
 92
3
 72
0
 73
1
 93
4
 10
32800.0
 20
200.0
 10
33000.0
 20
200.0
 10
33000.0
 20
6500.0
 10
32800.0
 20
6500.0
 97
0
 75
1
 76
1
 52
0.0
 41
18.0
 77
0
 78
1
 53
45.0
 43
0.0
 44
0.0
 45
-40.4111525454
 46
40.4111525454
 79
0
 98
0
  0
LWPOLYLINE
  5
B7
330
17
100
AcDbEntity
  8
0CONC
100
AcDbPolyline
 90
4
 70
1
 10
5200.0
 20
6300.0
 10
12000.0
 20
6300.0
 10
12000.0
 20
6500.0
 10
5200.0
 20
6500.0
  0
HATCH
  5
B8
330
17
100
AcDbEntity
  8
해치벽체
 62
8
100
AcDbHatch
 10
0.0
 20
0.0
 30
0.0
210
0.0
220
0.0
230
1.0
  2
ANSI31
 70
0
 71
0
 91
1
 92
3
 72
0
 73
1
 93
4
 10
5200.0
 20
6300.0
 10
12000.0
 20
6300.0
 10
12000.0
 20
6500.0
 10
5200.0
 20
6500.0
 97
0
 75
1
 76
1
 52
0.0
 41
18.0
 77
0
 78
1
 53
45.0
 43
0.0
 44
0.0
 45
-40.4111525454
 46
40.4111525454
 79
0
 98
0
  0
LWPOLYLINE
  5
B9
330
17
100
AcDbEntity
  8
0CONC
100
AcDbPolyline
 90
4
 70
1
 10
12000.0
 20
6300.0
 10
12400.0
 20
6300.0
 10
12400.0
 20
6500.0
 10
12000.0
 20
6500.0
  0
HATCH
  5
BA
330
17
100
AcDbEntity
  8
해치벽체
 62
8
100
AcDbHatch
 10
0.0
 20
0.0
 30
0.0
210
0.0
220
0.0
230
1.0
  2
ANSI31
 70
0
 71
0
 91
1
 92
3
 72
0
 73
1
 93
4
 10
12000.0
 20
6300.0
 10
12400.0
 20
6300.0
 10
12400.0
 20
6500.0
 10
12000.0
 20
6500.0
 97
0
 75
1
 76
1
 52
0.0
 41
18.0
 77
0
 78
1
 53
45.0
 43
0.0
 44
0.0
 45
-40.4111525454
 46
40.4111525454
 79
0
 98
0
  0
LWPOLYLINE
  5
BB
330
17
100
AcDbEntity
  8
0CONC
100
AcDbPolyline
 90
4
 70
1
 10
17000.0
 20
6300.0
 10
17400.0
 20
6300.0
 10
17400.0
 20
6500.0
 10
17000.0
 20
6500.0
  0
HATCH
  5
BC
330
17
100
AcDbEntity
  8
해치벽체
 62
8
100
AcDbHatch
 10
0.0
 20
0.0
 30
0.0
210
0.0
220
0.0
230
1.0
  2
ANSI31
 70
0
 71
0
 91
1
 92
3
 72
0
 73
1
 93
4
 10
17000.0
 20
6300.0
 10
17400.0
 20
6300.0
 10
17400.0
 20
6500.0
 10
17000.0
 20
6500.0
 97
0
 75
1
 76
1
 52
0.0
 41
18.0
 77
0
 78
1
 53
45.0
 43
0.0
 44
0.0
 45
-40.4111525454
 46
40.4111525454
 79
0
 98
0
  0
LINE
  5
BD
330
17
100
AcDbEntity
  8
0WIN
100
AcDbLine
 10
12400.0
 20
6300.0
 30
0.0
 11
17000.0
 21
6300.0
 31
0.0
  0
LINE
  5
BE
330
17
100
AcDbEntity
  8
0WIN
100
AcDbLine
 10
12400.0
 20
6366.666666666667
 30
0.0
 11
17000.0
 21
6366.666666666667
 31
0.0
  0
LINE
  5
BF
330
17
100
AcDbEntity
  8
0WIN
100
AcDbLine
 10
12400.0
 20
6433.333333333333
 30
0.0
 11
17000.0
 21
6433.333333333333
 31
0.0
  0
LINE
  5
C0
330
17
100
AcDbEntity
  8
0WIN
100
AcDbLine
 10
12400.0
 20
6500.0
 30
0.0
 11
17000.0
 21
6500.0
 31
0.0
  0
LINE
  5
C1
330
17
100
AcDbEntity
  8
0WIN
100
AcDbLine
 10
12400.0
 20
6300.0
 30
0.0
 11
12400.0
 21
6500.0
 31
0.0
  0
LINE
  5
C2
330
17
100
AcDbEntity
  8
0WIN
100
AcDbLine
 10
17000.0
 20
6300.0
 30
0.0
 11
17000.0
 21
6500.0
 31
0.0
  0
LWPOLYLINE
  5
C3
330
17
100
AcDbEntity
  8
0CONC
100
AcDbPolyline
 90
4
 70
1
 10
26000.0
 20
6300.0
 10
32800.0
 20
6300.0
 10
32800.0
 20
6500.0
 10
26000.0
 20
6500.0
  0
HATCH
  5
C4
330
17
100
AcDbEntity
  8
해치벽체
 62
8
100
AcDbHatch
 10
0.0
 20
0.0
 30
0.0
210
0.0
220
0.0
230
1.0
  2
ANSI31
 70
0
 71
0
 91
1
 92
3
 72
0
 73
1
 93
4
 10
26000.0
 20
6300.0
 10
32800.0
 20
6300.0
 10
32800.0
 20
6500.0
 10
26000.0
 20
6500.0
 97
0
 75
1
 76
1
 52
0.0
 41
18.0
 77
0
 78
1
 53
45.0
 43
0.0
 44
0.0
 45
-40.4111525454
 46
40.4111525454
 79
0
 98
0
  0
LWPOLYLINE
  5
C5
330
17
100
AcDbEntity
  8
0CONC
100
AcDbPolyline
 90
4
 70
1
 10
11900.0
 20
200.0
 10
12100.0
 20
200.0
 10
12100.0
 20
5400.0
 10
11900.0
 20
5400.0
  0
HATCH
  5
C6
330
17
100
AcDbEntity
  8
해치벽체
 62
8
100
AcDbHatch
 10
0.0
 20
0.0
 30
0.0
210
0.0
220
0.0
230
1.0
  2
ANSI31
 70
0
 71
0
 91
1
 92
3
 72
0
 73
1
 93
4
 10
11900.0
 20
200.0
 10
12100.0
 20
200.0
 10
12100.0
 20
5400.0
 10
11900.0
 20
5400.0
 97
0
 75
1
 76
1
 52
0.0
 41
18.0
 77
0
 78
1
 53
45.0
 43
0.0
 44
0.0
 45
-40.4111525454
 46
40.4111525454
 79
0
 98
0
  0
LWPOLYLINE
  5
C7
330
17
100
AcDbEntity
  8
0CONC
100
AcDbPolyline
 90
4
 70
1
 10
11900.0
 20
6200.0
 10
12100.0
 20
6200.0
 10
12100.0
 20
6300.0
 10
11900.0
 20
6300.0
  0
HATCH
  5
C8
330
17
100
AcDbEntity
  8
해치벽체
 62
8
100
AcDbHatch
 10
0.0
 20
0.0
 30
0.0
210
0.0
220
0.0
230
1.0
  2
ANSI31
 70
0
 71
0
 91
1
 92
3
 72
0
 73
1
 93
4
 10
11900.0
 20
6200.0
 10
12100.0
 20
6200.0
 10
12100.0
 20
6300.0
 10
11900.0
 20
6300.0
 97
0
 75
1
 76
1
 52
0.0
 41
18.0
 77
0
 78
1
 53
45.0
 43
0.0
 44
0.0
 45
-40.4111525454
 46
40.4111525454
 79
0
 98
0
  0
LWPOLYLINE
  5
C9
330
17
100
AcDbEntity
  8
0CONC
100
AcDbPolyline
 90
4
 70
1
 10
25900.0
 20
200.0
 10
26100.0
 20
200.0
 10
26100.0
 20
5400.0
 10
25900.0
 20
5400.0
  0
HATCH
  5
CA
330
17
100
AcDbEntity
  8
해치벽체
 62
8
100
AcDbHatch
 10
0.0
 20
0.0
 30
0.0
210
0.0
220
0.0
230
1.0
  2
ANSI31
 70
0
 71
0
 91
1
 92
3
 72
0
 73
1
 93
4
 10
25900.0
 20
200.0
 10
26100.0
 20
200.0
 10
26100.0
 20
5400.0
 10
25900.0
 20
5400.0
 97
0
 75
1
 76
1
 52
0.0
 41
18.0
 77
0
 78
1
 53
45.0
 43
0.0
 44
0.0
 45
-40.4111525454
 46
40.4111525454
 79
0
 98
0
  0
LWPOLYLINE
  5
CB
330
17
100
AcDbEntity
  8
0CONC
100
AcDbPolyline
 90
4
 70
1
 10
25900.0
 20
6200.0
 10
26100.0
 20
6200.0
 10
26100.0
 20
6300.0
 10
25900.0
 20
6300.0
  0
HATCH
  5
CC
330
17
100
AcDbEntity
  8
해치벽체
 62
8
100
AcDbHatch
 10
0.0
 20
0.0
 30
0.0
210
0.0
220
0.0
230
1.0
  2
ANSI31
 70
0
 71
0
 91
1
 92
3
 72
0
 73
1
 93
4
 10
25900.0
 20
6200.0
 10
26100.0
 20
6200.0
 10
26100.0
 20
6300.0
 10
25900.0
 20
6300.0
 97
0
 75
1
 76
1
 52
0.0
 41
18.0
 77
0
 78
1
 53
45.0
 43
0.0
 44
0.0
 45
-40.4111525454
 46
40.4111525454
 79
0
 98
0
  0
LWPOLYLINE
  5
CD
330
17
100
AcDbEntity
  8
0CONC
100
AcDbPolyline
 90
4
 70
1
 10
20900.0
 20
200.0
 10
21100.0
 20
200.0
 10
21100.0
 20
4900.0
 10
20900.0
 20
4900.0
  0
HATCH
  5
CE
330
17
100
AcDbEntity
  8
해치벽체
 62
8
100
AcDbHatch
 10
0.0
 20
0.0
 30
0.0
210
0.0
220
0.0
230
1.0
  2
ANSI31
 70
0
 71
0
 91
1
 92
3
 72
0
 73
1
 93
4
 10
20900.0
 20
200.0
 10
21100.0
 20
200.0
 10
21100.0
 20
4900.0
 10
20900.0
 20
4900.0
 97
0
 75
1
 76
1
 52
0.0
 41
18.0
 77
0
 78
1
 53
45.0
 43
0.0
 44
0.0
 45
-40.4111525454
 46
40.4111525454
 79
0
 98
0
  0
LWPOLYLINE
  5
CF
330
17
100
AcDbEntity
  8
0CONC
100
AcDbPolyline
 90
4
 70
1
 10
12100.0
 20
4900.0
 10
17400.0
 20
4900.0
 10
17400.0
 20
5100.0
 10
12100.0
 20
5100.0
  0
HATCH
  5
D0
330
17
100
AcDbEntity
  8
해치벽체
 62
8
100
AcDbHatch
 10
0.0
 20
0.0
 30
0.0
210
0.0
220
0.0
230
1.0
  2
ANSI31
 70
0
 71
0
 91
1
 92
3
 72
0
 73
1
 93
4
 10
12100.0
 20
4900.0
 10
17400.0
 20
4900.0
 10
17400.0
 20
5100.0
 10
12100.0
 20
5100.0
 97
0
 75
1
 76
1
 52
0.0
 41
18.0
 77
0
 78
1
 53
45.0
 43
0.0
 44
0.0
 45
-40.4111525454
 46
40.4111525454
 79
0
 98
0
  0
LWPOLYLINE
  5
D1
330
17
100
AcDbEntity
  8
0CONC
100
AcDbPolyline
 90
4
 70
1
 10
18200.0
 20
4900.0
 10
21150.0
 20
4900.0
 10
21150.0
 20
5100.0
 10
18200.0
 20
5100.0
  0
HATCH
  5
D2
330
17
100
AcDbEntity
  8
해치벽체
 62
8
100
AcDbHatch
 10
0.0
 20
0.0
 30
0.0
210
0.0
220
0.0
230
1.0
  2
ANSI31
 70
0
 71
0
 91
1
 92
3
 72
0
 73
1
 93
4
 10
18200.0
 20
4900.0
 10
21150.0
 20
4900.0
 10
21150.0
 20
5100.0
 10
18200.0
 20
5100.0
 97
0
 75
1
 76
1
 52
0.0
 41
18.0
 77
0
 78
1
 53
45.0
 43
0.0
 44
0.0
 45
-40.4111525454
 46
40.4111525454
 79
0
 98
0
  0
LWPOLYLINE
  5
D3
330
17
100
AcDbEntity
  8
0CONC
100
AcDbPolyline
 90
4
 70
1
 10
21950.0
 20
4900.0
 10
25900.0
 20
4900.0
 10
25900.0
 20
5100.0
 10
21950.0
 20
5100.0
  0
HATCH
  5
D4
330
17
100
AcDbEntity
  8
해치벽체
 62
8
100
AcDbHatch
 10
0.0
 20
0.0
 30
0.0
210
0.0
220
0.0
230
1.0
  2
ANSI31
 70
0
 71
0
 91
1
 92
3
 72
0
 73
1
 93
4
 10
21950.0
 20
4900.0
 10
25900.0
 20
4900.0
 10
25900.0
 20
5100.0
 10
21950.0
 20
5100.0
 97
0
 75
1
 76
1
 52
0.0
 41
18.0
 77
0
 78
1
 53
45.0
 43
0.0
 44
0.0
 45
-40.4111525454
 46
40.4111525454
 79
0
 98
0
  0
TEXT
  5
D5
330
17
100
AcDbEntity
  8
0TEXT-1
 62
8
100
AcDbText
 10
15100.0
 20
5750.0
 30
0.0
 40
280.0
  1
복도
  7
KOR
 72
1
 11
15100.0
 21
5750.0
 31
0.0
100
AcDbText
 73
2
  0
LWPOLYLINE
  5
D6
330
17
100
AcDbEntity
  8
0CONC
100
AcDbPolyline
 90
4
 70
1
 10
7600.0
 20
5150.0
 10
7700.0
 20
5150.0
 10
7700.0
 20
6300.0
 10
7600.0
 20
6300.0
  0
HATCH
  5
D7
330
17
100
AcDbEntity
  8
해치벽체
 62
8
100
AcDbHatch
 10
0.0
 20
0.0
 30
0.0
210
0.0
220
0.0
230
1.0
  2
ANSI31
 70
0
 71
0
 91
1
 92
3
 72
0
 73
1
 93
4
 10
7600.0
 20
5150.0
 10
7700.0
 20
5150.0
 10
7700.0
 20
6300.0
 10
7600.0
 20
6300.0
 97
0
 75
1
 76
1
 52
0.0
 41
18.0
 77
0
 78
1
 53
45.0
 43
0.0
 44
0.0
 45
-40.4111525454
 46
40.4111525454
 79
0
 98
0
  0
LWPOLYLINE
  5
D8
330
17
100
AcDbEntity
  8
0CONC
100
AcDbPolyline
 90
4
 70
1
 10
7600.0
 20
4000.0
 10
7700.0
 20
4000.0
 10
7700.0
 20
4350.0
 10
7600.0
 20
4350.0
  0
HATCH
  5
D9
330
17
100
AcDbEntity
  8
해치벽체
 62
8
100
AcDbHatch
 10
0.0
 20
0.0
 30
0.0
210
0.0
220
0.0
230
1.0
  2
ANSI31
 70
0
 71
0
 91
1
 92
3
 72
0
 73
1
 93
4
 10
7600.0
 20
4000.0
 10
7700.0
 20
4000.0
 10
7700.0
 20
4350.0
 10
7600.0
 20
4350.0
 97
0
 75
1
 76
1
 52
0.0
 41
18.0
 77
0
 78
1
 53
45.0
 43
0.0
 44
0.0
 45
-40.4111525454
 46
40.4111525454
 79
0
 98
0
  0
LWPOLYLINE
  5
DA
330
17
100
AcDbEntity
  8
0CONC
100
AcDbPolyline
 90
4
 70
1
 10
5200.0
 20
4000.0
 10
7600.0
 20
4000.0
 10
7600.0
 20
4100.0
 10
5200.0
 20
4100.0
  0
HATCH
  5
DB
330
17
100
AcDbEntity
  8
해치벽체
 62
8
100
AcDbHatch
 10
0.0
 20
0.0
 30
0.0
210
0.0
220
0.0
230
1.0
  2
ANSI31
 70
0
 71
0
 91
1
 92
3
 72
0
 73
1
 93
4
 10
5200.0
 20
4000.0
 10
7600.0
 20
4000.0
 10
7600.0
 20
4100.0
 10
5200.0
 20
4100.0
 97
0
 75
1
 76
1
 52
0.0
 41
18.0
 77
0
 78
1
 53
45.0
 43
0.0
 44
0.0
 45
-40.4111525454
 46
40.4111525454
 79
0
 98
0
  0
LWPOLYLINE
  5
DC
330
17
100
AcDbEntity
  8
TOIL
100
AcDbPolyline
 90
4
 70
1
 10
5200.0
 20
4100.0
 10
6700.0
 20
4100.0
 10
6700.0
 20
4850.0
 10
5200.0
 20
4850.0
  0
LWPOLYLINE
  5
DD
330
17
100
AcDbEntity
  8
TOIL
100
AcDbPolyline
 90
4
 70
1
 10
5280.0
 20
4180.0
 10
6620.0
 20
4180.0
 10
6620.0
 20
4770.0
 10
5280.0
 20
4770.0
  0
CIRCLE
  5
DE
330
17
100
AcDbEntity
  8
TOIL
100
AcDbCircle
 10
5450.0
 20
4475.0
 30
0.0
 40
80.0
  0
LWPOLYLINE
  5
DF
330
17
100
AcDbEntity
  8
TOIL
100
AcDbPolyline
 90
4
 70
1
 10
5330.0
 20
6030.0
 10
5770.0
 20
6030.0
 10
5770.0
 20
6250.0
 10
5330.0
 20
6250.0
  0
ELLIPSE
  5
E0
330
17
100
AcDbEntity
  8
TOIL
100
AcDbEllipse
 10
5550.0
 20
5700.0
 30
0.0
 11
0.0
 21
310.0
 31
0.0
 40
0.7419354838709677
 41
0.0
 42
6.283185307179586
  0
LWPOLYLINE
  5
E1
330
17
100
AcDbEntity
  8
TOIL
100
AcDbPolyline
 90
4
 70
1
 10
6500.0
 20
5750.0
 10
7600.0
 20
5750.0
 10
7600.0
 20
6300.0
 10
6500.0
 20
6300.0
  0
ELLIPSE
  5
E2
330
17
100
AcDbEntity
  8
TOIL
100
AcDbEllipse
 10
7050.0
 20
6025.0
 30
0.0
 11
270.0
 21
0.0
 31
0.0
 40
0.7037037037037037
 41
0.0
 42
6.283185307179586
  0
CIRCLE
  5
E3
330
17
100
AcDbEntity
  8
TOIL
100
AcDbCircle
 10
7050.0
 20
6210.0
 30
0.0
 40
45.0
  0
TEXT
  5
E4
330
17
100
AcDbEntity
  8
0TEXT-1
100
AcDbText
 10
6150.0
 20
5350.0
 30
0.0
 40
190.0
  1
욕실
  7
KOR
 72
1
 11
6150.0
 21
5350.0
 31
0.0
100
AcDbText
 73
2
  0
LINE
  5
E5
330
17
100
AcDbEntity
  8
DOOR
100
AcDbLine
 10
7600.0
 20
4350.0
 30
0.0
 11
6800.0
 21
4350.0
 31
0.0
  0
ARC
  5
E6
330
17
100
AcDbEntity
  8
DOOR
100
AcDbCircle
 10
7600.0
 20
4350.0
 30
0.0
 40
800.0
100
AcDbArc
 50
90.0
 51
180.0
  0
LWPOLYLINE
  5
E7
330
17
100
AcDbEntity
  8
FUR
100
AcDbPolyline
 90
4
 70
1
 10
7800.0
 20
5700.0
 10
10000.0
 20
5700.0
 10
10000.0
 20
6300.0
 10
7800.0
 20
6300.0
  0
LWPOLYLINE
  5
E8
330
17
100
AcDbEntity
  8
TOIL
100
AcDbPolyline
 90
4
 70
1
 10
7950.0
 20
5820.0
 10
8450.0
 20
5820.0
 10
8450.0
 20
6120.0
 10
7950.0
 20
6120.0
  0
CIRCLE
  5
E9
330
17
100
AcDbEntity
  8
TOIL
100
AcDbCircle
 10
8200.0
 20
6200.0
 30
0.0
 40
45.0
  0
CIRCLE
  5
EA
330
17
100
AcDbEntity
  8
FUR
100
AcDbCircle
 10
9100.0
 20
6000.0
 30
0.0
 40
160.0
  0
CIRCLE
  5
EB
330
17
100
AcDbEntity
  8
FUR
100
AcDbCircle
 10
9500.0
 20
6000.0
 30
0.0
 40
160.0
  0
LWPOLYLINE
  5
EC
330
17
100
AcDbEntity
  8
FUR
100
AcDbPolyline
 90
4
 70
1
 10
10100.0
 20
5750.0
 10
10700.0
 20
5750.0
 10
10700.0
 20
6300.0
 10
10100.0
 20
6300.0
  0
TEXT
  5
ED
330
17
100
AcDbEntity
  8
0TEXT-1
100
AcDbText
 10
8600.0
 20
5520.0
 30
0.0
 40
170.0
  1
미니주방
  7
KOR
 72
1
 11
8600.0
 21
5520.0
 31
0.0
100
AcDbText
 73
2
  0
LINE
  5
EE
330
17
100
AcDbEntity
  8
DOOR
100
AcDbLine
 10
11800.0
 20
6200.0
 30
0.0
 11
10900.0
 21
6200.0
 31
0.0
  0
ARC
  5
EF
330
17
100
AcDbEntity
  8
DOOR
100
AcDbCircle
 10
11800.0
 20
6200.0
 30
0.0
 40
900.0
100
AcDbArc
 50
180.0
 51
270.0
  0
LWPOLYLINE
  5
F0
330
17
100
AcDbEntity
  8
STAIR
100
AcDbPolyline
 90
4
 70
1
 10
11100.0
 20
3100.0
 10
11800.0
 20
3100.0
 10
11800.0
 20
5100.0
 10
11100.0
 20
5100.0
  0
LINE
  5
F1
330
17
100
AcDbEntity
  8
STAIR
100
AcDbLine
 10
11100.0
 20
4900.0
 30
0.0
 11
11800.0
 21
4900.0
 31
0.0
  0
LINE
  5
F2
330
17
100
AcDbEntity
  8
STAIR
100
AcDbLine
 10
11100.0
 20
4700.0
 30
0.0
 11
11800.0
 21
4700.0
 31
0.0
  0
LINE
  5
F3
330
17
100
AcDbEntity
  8
STAIR
100
AcDbLine
 10
11100.0
 20
4500.0
 30
0.0
 11
11800.0
 21
4500.0
 31
0.0
  0
LINE
  5
F4
330
17
100
AcDbEntity
  8
STAIR
100
AcDbLine
 10
11100.0
 20
4300.0
 30
0.0
 11
11800.0
 21
4300.0
 31
0.0
  0
LINE
  5
F5
330
17
100
AcDbEntity
  8
STAIR
100
AcDbLine
 10
11100.0
 20
4100.0
 30
0.0
 11
11800.0
 21
4100.0
 31
0.0
  0
LINE
  5
F6
330
17
100
AcDbEntity
  8
STAIR
100
AcDbLine
 10
11100.0
 20
3900.0
 30
0.0
 11
11800.0
 21
3900.0
 31
0.0
  0
LINE
  5
F7
330
17
100
AcDbEntity
  8
STAIR
100
AcDbLine
 10
11100.0
 20
3700.0
 30
0.0
 11
11800.0
 21
3700.0
 31
0.0
  0
LINE
  5
F8
330
17
100
AcDbEntity
  8
STAIR
100
AcDbLine
 10
11100.0
 20
3500.0
 30
0.0
 11
11800.0
 21
3500.0
 31
0.0
  0
LINE
  5
F9
330
17
100
AcDbEntity
  8
STAIR
100
AcDbLine
 10
11100.0
 20
3300.0
 30
0.0
 11
11800.0
 21
3300.0
 31
0.0
  0
TEXT
  5
FA
330
17
100
AcDbEntity
  8
0TEXT-1
 62
9
100
AcDbText
 10
11450.0
 20
4800.0
 30
0.0
 40
180.0
  1
UP
  7
KOR
 72
1
 11
11450.0
 21
4800.0
 31
0.0
100
AcDbText
 73
2
  0
LWPOLYLINE
  5
FB
330
17
100
AcDbEntity
  8
FUR
100
AcDbPolyline
 90
4
 70
1
 10
11100.0
 20
2300.0
 10
11800.0
 20
2300.0
 10
11800.0
 20
2900.0
 10
11100.0
 20
2900.0
  0
LWPOLYLINE
  5
FC
330
17
100
AcDbEntity
  8
FUR
100
AcDbPolyline
 90
4
 70
1
 10
5500.0
 20
3550.0
 10
7500.0
 20
3550.0
 10
7500.0
 20
3650.0
 10
5500.0
 20
3650.0
  0
LWPOLYLINE
  5
FD
330
17
100
AcDbEntity
  8
FUR
100
AcDbPolyline
 90
4
 70
1
 10
5300.0
 20
1550.0
 10
7300.0
 20
1550.0
 10
7300.0
 20
3550.0
 10
5300.0
 20
3550.0
  0
LWPOLYLINE
  5
FE
330
17
100
AcDbEntity
  8
FUR
100
AcDbPolyline
 90
4
 70
1
 10
5420.0
 20
2630.0
 10
5820.0
 20
2630.0
 10
5820.0
 20
3390.0
 10
5420.0
 20
3390.0
  0
LWPOLYLINE
  5
FF
330
17
100
AcDbEntity
  8
FUR
100
AcDbPolyline
 90
4
 70
1
 10
5420.0
 20
1710.0
 10
5820.0
 20
1710.0
 10
5820.0
 20
2470.0
 10
5420.0
 20
2470.0
  0
LINE
  5
100
330
17
100
AcDbEntity
  8
FUR
100
AcDbLine
 10
6540.0
 20
3550.0
 30
0.0
 11
6540.0
 21
1550.0
 31
0.0
  0
LWPOLYLINE
  5
101
330
17
100
AcDbEntity
  8
FUR
100
AcDbPolyline
 90
4
 70
1
 10
7450.0
 20
3100.0
 10
7900.0
 20
3100.0
 10
7900.0
 20
3550.0
 10
7450.0
 20
3550.0
  0
CIRCLE
  5
102
330
17
100
AcDbEntity
  8
FUR
100
AcDbCircle
 10
7675.0
 20
3325.0
 30
0.0
 40
110.0
  0
LWPOLYLINE
  5
103
330
17
100
AcDbEntity
  8
FUR
100
AcDbPolyline
 90
4
 70
1
 10
8900.0
 20
800.0
 10
11300.0
 20
800.0
 10
11300.0
 20
1500.0
 10
8900.0
 20
1500.0
  0
LWPOLYLINE
  5
104
330
17
100
AcDbEntity
  8
FUR
100
AcDbPolyline
 90
4
 70
1
 10
8970.0
 20
870.0
 10
11230.0
 20
870.0
 10
11230.0
 20
1430.0
 10
8970.0
 20
1430.0
  0
CIRCLE
  5
105
330
17
100
AcDbEntity
  8
FUR
100
AcDbCircle
 10
8300.0
 20
1150.0
 30
0.0
 40
300.0
  0
TEXT
  5
106
330
17
100
AcDbEntity
  8
0TEXT-1
 62
9
100
AcDbText
 10
7000.0
 20
600.0
 30
0.0
 40
190.0
  1
부모 침실 + 거실 (층고 2,200)
  7
KOR
 72
1
 11
7000.0
 21
600.0
 31
0.0
100
AcDbText
 73
2
  0
TEXT
  5
107
330
17
100
AcDbEntity
  8
0TEXT-1
 62
8
100
AcDbText
 10
11450.0
 20
4100.0
 30
0.0
 40
140.0
  1
2F 자녀실계단 개구부
  7
KOR
 72
1
 11
11450.0
 21
4100.0
 31
0.0
100
AcDbText
 73
2
  0
TEXT
  5
108
330
17
100
AcDbEntity
  8
0TEXT-1
100
AcDbText
 10
9700.0
 20
5000.0
 30
0.0
 40
190.0
  1
③ 패밀리 복층
  7
KOR
 72
1
 11
9700.0
 21
5000.0
 31
0.0
100
AcDbText
 73
2
  0
TEXT
  5
109
330
17
100
AcDbEntity
  8
0TEXT-1
 62
8
100
AcDbText
 10
9700.0
 20
5350.0
 30
0.0
 40
150.0
  1
(간이주방 · 2F 자녀실)
  7
KOR
 72
1
 11
9700.0
 21
5350.0
 31
0.0
100
AcDbText
 73
2
  0
LWPOLYLINE
  5
10A
330
17
100
AcDbEntity
  8
0CONC
100
AcDbPolyline
 90
4
 70
1
 10
30300.0
 20
5150.0
 10
30400.0
 20
5150.0
 10
30400.0
 20
6300.0
 10
30300.0
 20
6300.0
  0
HATCH
  5
10B
330
17
100
AcDbEntity
  8
해치벽체
 62
8
100
AcDbHatch
 10
0.0
 20
0.0
 30
0.0
210
0.0
220
0.0
230
1.0
  2
ANSI31
 70
0
 71
0
 91
1
 92
3
 72
0
 73
1
 93
4
 10
30300.0
 20
5150.0
 10
30400.0
 20
5150.0
 10
30400.0
 20
6300.0
 10
30300.0
 20
6300.0
 97
0
 75
1
 76
1
 52
0.0
 41
18.0
 77
0
 78
1
 53
45.0
 43
0.0
 44
0.0
 45
-40.4111525454
 46
40.4111525454
 79
0
 98
0
  0
LWPOLYLINE
  5
10C
330
17
100
AcDbEntity
  8
0CONC
100
AcDbPolyline
 90
4
 70
1
 10
30300.0
 20
4000.0
 10
30400.0
 20
4000.0
 10
30400.0
 20
4350.0
 10
30300.0
 20
4350.0
  0
HATCH
  5
10D
330
17
100
AcDbEntity
  8
해치벽체
 62
8
100
AcDbHatch
 10
0.0
 20
0.0
 30
0.0
210
0.0
220
0.0
230
1.0
  2
ANSI31
 70
0
 71
0
 91
1
 92
3
 72
0
 73
1
 93
4
 10
30300.0
 20
4000.0
 10
30400.0
 20
4000.0
 10
30400.0
 20
4350.0
 10
30300.0
 20
4350.0
 97
0
 75
1
 76
1
 52
0.0
 41
18.0
 77
0
 78
1
 53
45.0
 43
0.0
 44
0.0
 45
-40.4111525454
 46
40.4111525454
 79
0
 98
0
  0
LWPOLYLINE
  5
10E
330
17
100
AcDbEntity
  8
0CONC
100
AcDbPolyline
 90
4
 70
1
 10
30400.0
 20
4000.0
 10
32800.0
 20
4000.0
 10
32800.0
 20
4100.0
 10
30400.0
 20
4100.0
  0
HATCH
  5
10F
330
17
100
AcDbEntity
  8
해치벽체
 62
8
100
AcDbHatch
 10
0.0
 20
0.0
 30
0.0
210
0.0
220
0.0
230
1.0
  2
ANSI31
 70
0
 71
0
 91
1
 92
3
 72
0
 73
1
 93
4
 10
30400.0
 20
4000.0
 10
32800.0
 20
4000.0
 10
32800.0
 20
4100.0
 10
30400.0
 20
4100.0
 97
0
 75
1
 76
1
 52
0.0
 41
18.0
 77
0
 78
1
 53
45.0
 43
0.0
 44
0.0
 45
-40.4111525454
 46
40.4111525454
 79
0
 98
0
  0
LWPOLYLINE
  5
110
330
17
100
AcDbEntity
  8
TOIL
100
AcDbPolyline
 90
4
 70
1
 10
31300.0
 20
4100.0
 10
32800.0
 20
4100.0
 10
32800.0
 20
4850.0
 10
31300.0
 20
4850.0
  0
LWPOLYLINE
  5
111
330
17
100
AcDbEntity
  8
TOIL
100
AcDbPolyline
 90
4
 70
1
 10
31380.0
 20
4180.0
 10
32720.0
 20
4180.0
 10
32720.0
 20
4770.0
 10
31380.0
 20
4770.0
  0
CIRCLE
  5
112
330
17
100
AcDbEntity
  8
TOIL
100
AcDbCircle
 10
32550.0
 20
4475.0
 30
0.0
 40
80.0
  0
LWPOLYLINE
  5
113
330
17
100
AcDbEntity
  8
TOIL
100
AcDbPolyline
 90
4
 70
1
 10
32230.0
 20
6030.0
 10
32670.0
 20
6030.0
 10
32670.0
 20
6250.0
 10
32230.0
 20
6250.0
  0
ELLIPSE
  5
114
330
17
100
AcDbEntity
  8
TOIL
100
AcDbEllipse
 10
32450.0
 20
5700.0
 30
0.0
 11
0.0
 21
310.0
 31
0.0
 40
0.7419354838709677
 41
0.0
 42
6.283185307179586
  0
LWPOLYLINE
  5
115
330
17
100
AcDbEntity
  8
TOIL
100
AcDbPolyline
 90
4
 70
1
 10
30400.0
 20
5750.0
 10
31500.0
 20
5750.0
 10
31500.0
 20
6300.0
 10
30400.0
 20
6300.0
  0
ELLIPSE
  5
116
330
17
100
AcDbEntity
  8
TOIL
100
AcDbEllipse
 10
30950.0
 20
6025.0
 30
0.0
 11
270.0
 21
0.0
 31
0.0
 40
0.7037037037037037
 41
0.0
 42
6.283185307179586
  0
CIRCLE
  5
117
330
17
100
AcDbEntity
  8
TOIL
100
AcDbCircle
 10
30950.0
 20
6210.0
 30
0.0
 40
45.0
  0
TEXT
  5
118
330
17
100
AcDbEntity
  8
0TEXT-1
100
AcDbText
 10
31850.0
 20
5350.0
 30
0.0
 40
190.0
  1
욕실
  7
KOR
 72
1
 11
31850.0
 21
5350.0
 31
0.0
100
AcDbText
 73
2
  0
LINE
  5
119
330
17
100
AcDbEntity
  8
DOOR
100
AcDbLine
 10
30400.0
 20
4350.0
 30
0.0
 11
31200.0
 21
4350.0
 31
0.0
  0
ARC
  5
11A
330
17
100
AcDbEntity
  8
DOOR
100
AcDbCircle
 10
30400.0
 20
4350.0
 30
0.0
 40
800.0
100
AcDbArc
 50
0.0
 51
90.0
  0
LWPOLYLINE
  5
11B
330
17
100
AcDbEntity
  8
FUR
100
AcDbPolyline
 90
4
 70
1
 10
28000.0
 20
5700.0
 10
30200.0
 20
5700.0
 10
30200.0
 20
6300.0
 10
28000.0
 20
6300.0
  0
LWPOLYLINE
  5
11C
330
17
100
AcDbEntity
  8
TOIL
100
AcDbPolyline
 90
4
 70
1
 10
29550.0
 20
5820.0
 10
30050.0
 20
5820.0
 10
30050.0
 20
6120.0
 10
29550.0
 20
6120.0
  0
CIRCLE
  5
11D
330
17
100
AcDbEntity
  8
TOIL
100
AcDbCircle
 10
29800.0
 20
6200.0
 30
0.0
 40
45.0
  0
CIRCLE
  5
11E
330
17
100
AcDbEntity
  8
FUR
100
AcDbCircle
 10
28900.0
 20
6000.0
 30
0.0
 40
160.0
  0
CIRCLE
  5
11F
330
17
100
AcDbEntity
  8
FUR
100
AcDbCircle
 10
28500.0
 20
6000.0
 30
0.0
 40
160.0
  0
LWPOLYLINE
  5
120
330
17
100
AcDbEntity
  8
FUR
100
AcDbPolyline
 90
4
 70
1
 10
27300.0
 20
5750.0
 10
27900.0
 20
5750.0
 10
27900.0
 20
6300.0
 10
27300.0
 20
6300.0
  0
TEXT
  5
121
330
17
100
AcDbEntity
  8
0TEXT-1
100
AcDbText
 10
29400.0
 20
5520.0
 30
0.0
 40
170.0
  1
미니주방
  7
KOR
 72
1
 11
29400.0
 21
5520.0
 31
0.0
100
AcDbText
 73
2
  0
LINE
  5
122
330
17
100
AcDbEntity
  8
DOOR
100
AcDbLine
 10
26200.0
 20
6200.0
 30
0.0
 11
27100.0
 21
6200.0
 31
0.0
  0
ARC
  5
123
330
17
100
AcDbEntity
  8
DOOR
100
AcDbCircle
 10
26200.0
 20
6200.0
 30
0.0
 40
900.0
100
AcDbArc
 50
270.0
 51
0.0
  0
LWPOLYLINE
  5
124
330
17
100
AcDbEntity
  8
STAIR
100
AcDbPolyline
 90
4
 70
1
 10
26200.0
 20
3100.0
 10
26900.0
 20
3100.0
 10
26900.0
 20
5100.0
 10
26200.0
 20
5100.0
  0
LINE
  5
125
330
17
100
AcDbEntity
  8
STAIR
100
AcDbLine
 10
26900.0
 20
4900.0
 30
0.0
 11
26200.0
 21
4900.0
 31
0.0
  0
LINE
  5
126
330
17
100
AcDbEntity
  8
STAIR
100
AcDbLine
 10
26900.0
 20
4700.0
 30
0.0
 11
26200.0
 21
4700.0
 31
0.0
  0
LINE
  5
127
330
17
100
AcDbEntity
  8
STAIR
100
AcDbLine
 10
26900.0
 20
4500.0
 30
0.0
 11
26200.0
 21
4500.0
 31
0.0
  0
LINE
  5
128
330
17
100
AcDbEntity
  8
STAIR
100
AcDbLine
 10
26900.0
 20
4300.0
 30
0.0
 11
26200.0
 21
4300.0
 31
0.0
  0
LINE
  5
129
330
17
100
AcDbEntity
  8
STAIR
100
AcDbLine
 10
26900.0
 20
4100.0
 30
0.0
 11
26200.0
 21
4100.0
 31
0.0
  0
LINE
  5
12A
330
17
100
AcDbEntity
  8
STAIR
100
AcDbLine
 10
26900.0
 20
3900.0
 30
0.0
 11
26200.0
 21
3900.0
 31
0.0
  0
LINE
  5
12B
330
17
100
AcDbEntity
  8
STAIR
100
AcDbLine
 10
26900.0
 20
3700.0
 30
0.0
 11
26200.0
 21
3700.0
 31
0.0
  0
LINE
  5
12C
330
17
100
AcDbEntity
  8
STAIR
100
AcDbLine
 10
26900.0
 20
3500.0
 30
0.0
 11
26200.0
 21
3500.0
 31
0.0
  0
LINE
  5
12D
330
17
100
AcDbEntity
  8
STAIR
100
AcDbLine
 10
26900.0
 20
3300.0
 30
0.0
 11
26200.0
 21
3300.0
 31
0.0
  0
TEXT
  5
12E
330
17
100
AcDbEntity
  8
0TEXT-1
 62
9
100
AcDbText
 10
26550.0
 20
4800.0
 30
0.0
 40
180.0
  1
UP
  7
KOR
 72
1
 11
26550.0
 21
4800.0
 31
0.0
100
AcDbText
 73
2
  0
LWPOLYLINE
  5
12F
330
17
100
AcDbEntity
  8
FUR
100
AcDbPolyline
 90
4
 70
1
 10
26200.0
 20
2300.0
 10
26900.0
 20
2300.0
 10
26900.0
 20
2900.0
 10
26200.0
 20
2900.0
  0
LWPOLYLINE
  5
130
330
17
100
AcDbEntity
  8
FUR
100
AcDbPolyline
 90
4
 70
1
 10
30500.0
 20
3550.0
 10
32500.0
 20
3550.0
 10
32500.0
 20
3650.0
 10
30500.0
 20
3650.0
  0
LWPOLYLINE
  5
131
330
17
100
AcDbEntity
  8
FUR
100
AcDbPolyline
 90
4
 70
1
 10
30700.0
 20
1550.0
 10
32700.0
 20
1550.0
 10
32700.0
 20
3550.0
 10
30700.0
 20
3550.0
  0
LWPOLYLINE
  5
132
330
17
100
AcDbEntity
  8
FUR
100
AcDbPolyline
 90
4
 70
1
 10
32180.0
 20
2630.0
 10
32580.0
 20
2630.0
 10
32580.0
 20
3390.0
 10
32180.0
 20
3390.0
  0
LWPOLYLINE
  5
133
330
17
100
AcDbEntity
  8
FUR
100
AcDbPolyline
 90
4
 70
1
 10
32180.0
 20
1710.0
 10
32580.0
 20
1710.0
 10
32580.0
 20
2470.0
 10
32180.0
 20
2470.0
  0
LINE
  5
134
330
17
100
AcDbEntity
  8
FUR
100
AcDbLine
 10
31460.0
 20
3550.0
 30
0.0
 11
31460.0
 21
1550.0
 31
0.0
  0
LWPOLYLINE
  5
135
330
17
100
AcDbEntity
  8
FUR
100
AcDbPolyline
 90
4
 70
1
 10
30100.0
 20
3100.0
 10
30550.0
 20
3100.0
 10
30550.0
 20
3550.0
 10
30100.0
 20
3550.0
  0
CIRCLE
  5
136
330
17
100
AcDbEntity
  8
FUR
100
AcDbCircle
 10
30325.0
 20
3325.0
 30
0.0
 40
110.0
  0
LWPOLYLINE
  5
137
330
17
100
AcDbEntity
  8
FUR
100
AcDbPolyline
 90
4
 70
1
 10
26700.0
 20
800.0
 10
29100.0
 20
800.0
 10
29100.0
 20
1500.0
 10
26700.0
 20
1500.0
  0
LWPOLYLINE
  5
138
330
17
100
AcDbEntity
  8
FUR
100
AcDbPolyline
 90
4
 70
1
 10
26770.0
 20
870.0
 10
29030.0
 20
870.0
 10
29030.0
 20
1430.0
 10
26770.0
 20
1430.0
  0
CIRCLE
  5
139
330
17
100
AcDbEntity
  8
FUR
100
AcDbCircle
 10
29700.0
 20
1150.0
 30
0.0
 40
300.0
  0
TEXT
  5
13A
330
17
100
AcDbEntity
  8
0TEXT-1
 62
9
100
AcDbText
 10
31000.0
 20
600.0
 30
0.0
 40
190.0
  1
부모 침실 + 거실 (층고 2,200)
  7
KOR
 72
1
 11
31000.0
 21
600.0
 31
0.0
100
AcDbText
 73
2
  0
TEXT
  5
13B
330
17
100
AcDbEntity
  8
0TEXT-1
 62
8
100
AcDbText
 10
26550.0
 20
4100.0
 30
0.0
 40
140.0
  1
2F 자녀실계단 개구부
  7
KOR
 72
1
 11
26550.0
 21
4100.0
 31
0.0
100
AcDbText
 73
2
  0
TEXT
  5
13C
330
17
100
AcDbEntity
  8
0TEXT-1
100
AcDbText
 10
28300.0
 20
5000.0
 30
0.0
 40
190.0
  1
③ 패밀리 복층
  7
KOR
 72
1
 11
28300.0
 21
5000.0
 31
0.0
100
AcDbText
 73
2
  0
TEXT
  5
13D
330
17
100
AcDbEntity
  8
0TEXT-1
 62
8
100
AcDbText
 10
28300.0
 20
5350.0
 30
0.0
 40
150.0
  1
(간이주방 · 2F 자녀실)
  7
KOR
 72
1
 11
28300.0
 21
5350.0
 31
0.0
100
AcDbText
 73
2
  0
LWPOLYLINE
  5
13E
330
17
100
AcDbEntity
  8
0CONC
100
AcDbPolyline
 90
4
 70
1
 10
18300.0
 20
3650.0
 10
18400.0
 20
3650.0
 10
18400.0
 20
4800.0
 10
18300.0
 20
4800.0
  0
HATCH
  5
13F
330
17
100
AcDbEntity
  8
해치벽체
 62
8
100
AcDbHatch
 10
0.0
 20
0.0
 30
0.0
210
0.0
220
0.0
230
1.0
  2
ANSI31
 70
0
 71
0
 91
1
 92
3
 72
0
 73
1
 93
4
 10
18300.0
 20
3650.0
 10
18400.0
 20
3650.0
 10
18400.0
 20
4800.0
 10
18300.0
 20
4800.0
 97
0
 75
1
 76
1
 52
0.0
 41
18.0
 77
0
 78
1
 53
45.0
 43
0.0
 44
0.0
 45
-40.4111525454
 46
40.4111525454
 79
0
 98
0
  0
LWPOLYLINE
  5
140
330
17
100
AcDbEntity
  8
0CONC
100
AcDbPolyline
 90
4
 70
1
 10
18300.0
 20
2600.0
 10
18400.0
 20
2600.0
 10
18400.0
 20
2850.0
 10
18300.0
 20
2850.0
  0
HATCH
  5
141
330
17
100
AcDbEntity
  8
해치벽체
 62
8
100
AcDbHatch
 10
0.0
 20
0.0
 30
0.0
210
0.0
220
0.0
230
1.0
  2
ANSI31
 70
0
 71
0
 91
1
 92
3
 72
0
 73
1
 93
4
 10
18300.0
 20
2600.0
 10
18400.0
 20
2600.0
 10
18400.0
 20
2850.0
 10
18300.0
 20
2850.0
 97
0
 75
1
 76
1
 52
0.0
 41
18.0
 77
0
 78
1
 53
45.0
 43
0.0
 44
0.0
 45
-40.4111525454
 46
40.4111525454
 79
0
 98
0
  0
LWPOLYLINE
  5
142
330
17
100
AcDbEntity
  8
0CONC
100
AcDbPolyline
 90
4
 70
1
 10
18400.0
 20
2600.0
 10
20800.0
 20
2600.0
 10
20800.0
 20
2700.0
 10
18400.0
 20
2700.0
  0
HATCH
  5
143
330
17
100
AcDbEntity
  8
해치벽체
 62
8
100
AcDbHatch
 10
0.0
 20
0.0
 30
0.0
210
0.0
220
0.0
230
1.0
  2
ANSI31
 70
0
 71
0
 91
1
 92
3
 72
0
 73
1
 93
4
 10
18400.0
 20
2600.0
 10
20800.0
 20
2600.0
 10
20800.0
 20
2700.0
 10
18400.0
 20
2700.0
 97
0
 75
1
 76
1
 52
0.0
 41
18.0
 77
0
 78
1
 53
45.0
 43
0.0
 44
0.0
 45
-40.4111525454
 46
40.4111525454
 79
0
 98
0
  0
LWPOLYLINE
  5
144
330
17
100
AcDbEntity
  8
TOIL
100
AcDbPolyline
 90
4
 70
1
 10
19900.0
 20
2700.0
 10
20800.0
 20
2700.0
 10
20800.0
 20
3600.0
 10
19900.0
 20
3600.0
  0
LINE
  5
145
330
17
100
AcDbEntity
  8
TOIL
100
AcDbLine
 10
19900.0
 20
3600.0
 30
0.0
 11
20800.0
 21
2700.0
 31
0.0
  0
LINE
  5
146
330
17
100
AcDbEntity
  8
TOIL
100
AcDbLine
 10
19900.0
 20
2700.0
 30
0.0
 11
20800.0
 21
3600.0
 31
0.0
  0
LWPOLYLINE
  5
147
330
17
100
AcDbEntity
  8
TOIL
100
AcDbPolyline
 90
4
 70
1
 10
20130.0
 20
4530.0
 10
20570.0
 20
4530.0
 10
20570.0
 20
4750.0
 10
20130.0
 20
4750.0
  0
ELLIPSE
  5
148
330
17
100
AcDbEntity
  8
TOIL
100
AcDbEllipse
 10
20350.0
 20
4200.0
 30
0.0
 11
0.0
 21
310.0
 31
0.0
 40
0.7419354838709677
 41
0.0
 42
6.283185307179586
  0
LWPOLYLINE
  5
149
330
17
100
AcDbEntity
  8
TOIL
100
AcDbPolyline
 90
4
 70
1
 10
18500.0
 20
4300.0
 10
19400.0
 20
4300.0
 10
19400.0
 20
4800.0
 10
18500.0
 20
4800.0
  0
ELLIPSE
  5
14A
330
17
100
AcDbEntity
  8
TOIL
100
AcDbEllipse
 10
18950.0
 20
4550.0
 30
0.0
 11
270.0
 21
0.0
 31
0.0
 40
0.7037037037037037
 41
0.0
 42
6.283185307179586
  0
CIRCLE
  5
14B
330
17
100
AcDbEntity
  8
TOIL
100
AcDbCircle
 10
18950.0
 20
4710.0
 30
0.0
 40
45.0
  0
TEXT
  5
14C
330
17
100
AcDbEntity
  8
0TEXT-1
100
AcDbText
 10
19150.0
 20
3850.0
 30
0.0
 40
200.0
  1
욕실
  7
KOR
 72
1
 11
19150.0
 21
3850.0
 31
0.0
100
AcDbText
 73
2
  0
LINE
  5
14D
330
17
100
AcDbEntity
  8
DOOR
100
AcDbLine
 10
18400.0
 20
2850.0
 30
0.0
 11
19200.0
 21
2850.0
 31
0.0
  0
ARC
  5
14E
330
17
100
AcDbEntity
  8
DOOR
100
AcDbCircle
 10
18400.0
 20
2850.0
 30
0.0
 40
800.0
100
AcDbArc
 50
0.0
 51
90.0
  0
LINE
  5
14F
330
17
100
AcDbEntity
  8
DOOR
100
AcDbLine
 10
18200.0
 20
4800.0
 30
0.0
 11
18200.0
 21
3900.0
 31
0.0
  0
ARC
  5
150
330
17
100
AcDbEntity
  8
DOOR
100
AcDbCircle
 10
18200.0
 20
4800.0
 30
0.0
 40
900.0
100
AcDbArc
 50
180.0
 51
270.0
  0
LWPOLYLINE
  5
151
330
17
100
AcDbEntity
  8
FUR
100
AcDbPolyline
 90
4
 70
1
 10
15400.0
 20
4200.0
 10
17200.0
 20
4200.0
 10
17200.0
 20
4800.0
 10
15400.0
 20
4800.0
  0
LWPOLYLINE
  5
152
330
17
100
AcDbEntity
  8
TOIL
100
AcDbPolyline
 90
4
 70
1
 10
15550.0
 20
4320.0
 10
16050.0
 20
4320.0
 10
16050.0
 20
4620.0
 10
15550.0
 20
4620.0
  0
CIRCLE
  5
153
330
17
100
AcDbEntity
  8
TOIL
100
AcDbCircle
 10
15800.0
 20
4700.0
 30
0.0
 40
45.0
  0
CIRCLE
  5
154
330
17
100
AcDbEntity
  8
FUR
100
AcDbCircle
 10
16300.0
 20
4500.0
 30
0.0
 40
160.0
  0
CIRCLE
  5
155
330
17
100
AcDbEntity
  8
FUR
100
AcDbCircle
 10
16700.0
 20
4500.0
 30
0.0
 40
160.0
  0
LWPOLYLINE
  5
156
330
17
100
AcDbEntity
  8
FUR
100
AcDbPolyline
 90
4
 70
1
 10
14700.0
 20
4250.0
 10
15300.0
 20
4250.0
 10
15300.0
 20
4800.0
 10
14700.0
 20
4800.0
  0
TEXT
  5
157
330
17
100
AcDbEntity
  8
0TEXT-1
100
AcDbText
 10
16300.0
 20
4020.0
 30
0.0
 40
180.0
  1
미니주방
  7
KOR
 72
1
 11
16300.0
 21
4020.0
 31
0.0
100
AcDbText
 73
2
  0
LINE
  5
158
330
17
100
AcDbEntity
  8
0WIN
100
AcDbLine
 10
13500.0
 20
200.0
 30
0.0
 11
19500.0
 21
200.0
 31
0.0
  0
LINE
  5
159
330
17
100
AcDbEntity
  8
0WIN
100
AcDbLine
 10
13500.0
 20
133.33333333333303
 30
0.0
 11
19500.0
 21
133.33333333333303
 31
0.0
  0
LINE
  5
15A
330
17
100
AcDbEntity
  8
0WIN
100
AcDbLine
 10
13500.0
 20
66.66666666666697
 30
0.0
 11
19500.0
 21
66.66666666666697
 31
0.0
  0
LINE
  5
15B
330
17
100
AcDbEntity
  8
0WIN
100
AcDbLine
 10
13500.0
 20
0.0
 30
0.0
 11
19500.0
 21
0.0
 31
0.0
  0
LINE
  5
15C
330
17
100
AcDbEntity
  8
0WIN
100
AcDbLine
 10
13500.0
 20
200.0
 30
0.0
 11
13500.0
 21
0.0
 31
0.0
  0
LINE
  5
15D
330
17
100
AcDbEntity
  8
0WIN
100
AcDbLine
 10
19500.0
 20
200.0
 30
0.0
 11
19500.0
 21
0.0
 31
0.0
  0
LWPOLYLINE
  5
15E
330
17
100
AcDbEntity
  8
FUR
100
AcDbPolyline
 90
4
 70
1
 10
12200.0
 20
4150.0
 10
14000.0
 20
4150.0
 10
14000.0
 20
4800.0
 10
12200.0
 20
4800.0
  0
LINE
  5
15F
330
17
100
AcDbEntity
  8
FUR
100
AcDbLine
 10
12200.0
 20
4800.0
 30
0.0
 11
14000.0
 21
4150.0
 31
0.0
  0
LINE
  5
160
330
17
100
AcDbEntity
  8
FUR
100
AcDbLine
 10
13100.0
 20
4800.0
 30
0.0
 11
13100.0
 21
4150.0
 31
0.0
  0
CIRCLE
  5
161
330
17
100
AcDbEntity
  8
STAIR
100
AcDbCircle
 10
13050.0
 20
900.0
 30
0.0
 40
600.0
  0
CIRCLE
  5
162
330
17
100
AcDbEntity
  8
STAIR
100
AcDbCircle
 10
13050.0
 20
900.0
 30
0.0
 40
132.0
  0
LINE
  5
163
330
17
100
AcDbEntity
  8
STAIR
100
AcDbLine
 10
13182.0
 20
900.0
 30
0.0
 11
13650.0
 21
900.0
 31
0.0
  0
LINE
  5
164
330
17
100
AcDbEntity
  8
STAIR
100
AcDbLine
 10
13164.315353299546
 20
834.0
 30
0.0
 11
13569.615242270664
 21
600.0
 31
0.0
  0
LINE
  5
165
330
17
100
AcDbEntity
  8
STAIR
100
AcDbLine
 10
13116.0
 20
785.6846467004543
 30
0.0
 11
13350.0
 21
380.38475772933634
 31
0.0
  0
LINE
  5
166
330
17
100
AcDbEntity
  8
STAIR
100
AcDbLine
 10
13050.0
 20
768.0
 30
0.0
 11
13050.0
 21
300.0
 31
0.0
  0
LINE
  5
167
330
17
100
AcDbEntity
  8
STAIR
100
AcDbLine
 10
12984.0
 20
785.6846467004543
 30
0.0
 11
12750.0
 21
380.38475772933634
 31
0.0
  0
LINE
  5
168
330
17
100
AcDbEntity
  8
STAIR
100
AcDbLine
 10
12935.684646700454
 20
834.0
 30
0.0
 11
12530.384757729336
 21
600.0
 31
0.0
  0
LINE
  5
169
330
17
100
AcDbEntity
  8
STAIR
100
AcDbLine
 10
12918.0
 20
900.0
 30
0.0
 11
12450.0
 21
900.0
 31
0.0
  0
LINE
  5
16A
330
17
100
AcDbEntity
  8
STAIR
100
AcDbLine
 10
12935.684646700454
 20
966.0
 30
0.0
 11
12530.384757729336
 21
1200.0
 31
0.0
  0
LINE
  5
16B
330
17
100
AcDbEntity
  8
STAIR
100
AcDbLine
 10
12984.0
 20
1014.3153532995457
 30
0.0
 11
12750.0
 21
1419.6152422706627
 31
0.0
  0
LINE
  5
16C
330
17
100
AcDbEntity
  8
STAIR
100
AcDbLine
 10
13050.0
 20
1032.0
 30
0.0
 11
13050.0
 21
1500.0
 31
0.0
  0
LINE
  5
16D
330
17
100
AcDbEntity
  8
STAIR
100
AcDbLine
 10
13116.0
 20
1014.3153532995457
 30
0.0
 11
13350.0
 21
1419.6152422706632
 31
0.0
  0
LINE
  5
16E
330
17
100
AcDbEntity
  8
STAIR
100
AcDbLine
 10
13164.315353299546
 20
966.0
 30
0.0
 11
13569.615242270664
 21
1200.0000000000005
 31
0.0
  0
TEXT
  5
16F
330
17
100
AcDbEntity
  8
0TEXT-1
 62
9
100
AcDbText
 10
13050.0
 20
1760.0
 30
0.0
 40
150.0
  1
나선계단UP
  7
KOR
 72
1
 11
13050.0
 21
1760.0
 31
0.0
100
AcDbText
 73
2
  0
LWPOLYLINE
  5
170
330
17
100
AcDbEntity
  8
FUR
100
AcDbPolyline
 90
4
 70
1
 10
14300.0
 20
3850.0
 10
16300.0
 20
3850.0
 10
16300.0
 20
3950.0
 10
14300.0
 20
3950.0
  0
LWPOLYLINE
  5
171
330
17
100
AcDbEntity
  8
FUR
100
AcDbPolyline
 90
4
 70
1
 10
14300.0
 20
1850.0
 10
16300.0
 20
1850.0
 10
16300.0
 20
3800.0
 10
14300.0
 20
3800.0
  0
LWPOLYLINE
  5
172
330
17
100
AcDbEntity
  8
FUR
100
AcDbPolyline
 90
4
 70
1
 10
14420.0
 20
2905.0
 10
14820.0
 20
2905.0
 10
14820.0
 20
3640.0
 10
14420.0
 20
3640.0
  0
LWPOLYLINE
  5
173
330
17
100
AcDbEntity
  8
FUR
100
AcDbPolyline
 90
4
 70
1
 10
14420.0
 20
2010.0
 10
14820.0
 20
2010.0
 10
14820.0
 20
2745.0
 10
14420.0
 20
2745.0
  0
LINE
  5
174
330
17
100
AcDbEntity
  8
FUR
100
AcDbLine
 10
15540.0
 20
3800.0
 30
0.0
 11
15540.0
 21
1850.0
 31
0.0
  0
LWPOLYLINE
  5
175
330
17
100
AcDbEntity
  8
FUR
100
AcDbPolyline
 90
4
 70
1
 10
14300.0
 20
1250.0
 10
14800.0
 20
1250.0
 10
14800.0
 20
1700.0
 10
14300.0
 20
1700.0
  0
CIRCLE
  5
176
330
17
100
AcDbEntity
  8
FUR
100
AcDbCircle
 10
14550.0
 20
1475.0
 30
0.0
 40
110.0
  0
LWPOLYLINE
  5
177
330
17
100
AcDbEntity
  8
FUR
100
AcDbPolyline
 90
4
 70
1
 10
18300.0
 20
1400.0
 10
19300.0
 20
1400.0
 10
19300.0
 20
2350.0
 10
18300.0
 20
2350.0
  0
LWPOLYLINE
  5
178
330
17
100
AcDbEntity
  8
FUR
100
AcDbPolyline
 90
4
 70
1
 10
18370.0
 20
1470.0
 10
19230.0
 20
1470.0
 10
19230.0
 20
2280.0
 10
18370.0
 20
2280.0
  0
CIRCLE
  5
179
330
17
100
AcDbEntity
  8
FUR
100
AcDbCircle
 10
19700.0
 20
1900.0
 30
0.0
 40
280.0
  0
TEXT
  5
17A
330
17
100
AcDbEntity
  8
0TEXT-1
100
AcDbText
 10
16300.0
 20
600.0
 30
0.0
 40
190.0
  1
④ 패밀리 복층
  7
KOR
 72
1
 11
16300.0
 21
600.0
 31
0.0
100
AcDbText
 73
2
  0
TEXT
  5
17B
330
17
100
AcDbEntity
  8
0TEXT-1
 62
8
100
AcDbText
 10
16300.0
 20
950.0
 30
0.0
 40
150.0
  1
(2F 자녀실)
  7
KOR
 72
1
 11
16300.0
 21
950.0
 31
0.0
100
AcDbText
 73
2
  0
LINE
  5
17C
330
17
100
AcDbEntity
  8
DOOR
100
AcDbLine
 10
21950.0
 20
4800.0
 30
0.0
 11
21950.0
 21
4000.0
 31
0.0
  0
ARC
  5
17D
330
17
100
AcDbEntity
  8
DOOR
100
AcDbCircle
 10
21950.0
 20
4800.0
 30
0.0
 40
800.0
100
AcDbArc
 50
180.0
 51
270.0
  0
LWPOLYLINE
  5
17E
330
17
100
AcDbEntity
  8
FUR
100
AcDbPolyline
 90
4
 70
1
 10
25300.0
 20
200.0
 10
25800.0
 20
200.0
 10
25800.0
 20
4800.0
 10
25300.0
 20
4800.0
  0
LINE
  5
17F
330
17
100
AcDbEntity
  8
FUR
100
AcDbLine
 10
25550.0
 20
4800.0
 30
0.0
 11
25550.0
 21
200.0
 31
0.0
  0
LWPOLYLINE
  5
180
330
17
100
AcDbEntity
  8
FUR
100
AcDbPolyline
 90
4
 70
1
 10
21200.0
 20
200.0
 10
25300.0
 20
200.0
 10
25300.0
 20
700.0
 10
21200.0
 20
700.0
  0
LINE
  5
181
330
17
100
AcDbEntity
  8
FUR
100
AcDbLine
 10
21200.0
 20
450.0
 30
0.0
 11
25300.0
 21
450.0
 31
0.0
  0
LWPOLYLINE
  5
182
330
17
100
AcDbEntity
  8
FUR
100
AcDbPolyline
 90
4
 70
1
 10
21200.0
 20
1450.0
 10
21850.0
 20
1450.0
 10
21850.0
 20
2100.0
 10
21200.0
 20
2100.0
  0
CIRCLE
  5
183
330
17
100
AcDbEntity
  8
FUR
100
AcDbCircle
 10
21525.0
 20
1775.0
 30
0.0
 40
240.0
  0
LWPOLYLINE
  5
184
330
17
100
AcDbEntity
  8
FUR
100
AcDbPolyline
 90
4
 70
1
 10
21200.0
 20
700.0
 10
21850.0
 20
700.0
 10
21850.0
 20
1350.0
 10
21200.0
 20
1350.0
  0
CIRCLE
  5
185
330
17
100
AcDbEntity
  8
FUR
100
AcDbCircle
 10
21525.0
 20
1025.0
 30
0.0
 40
240.0
  0
TEXT
  5
186
330
17
100
AcDbEntity
  8
0TEXT-1
100
AcDbText
 10
21525.0
 20
2350.0
 30
0.0
 40
180.0
  1
세탁
  7
KOR
 72
1
 11
21525.0
 21
2350.0
 31
0.0
100
AcDbText
 73
2
  0
TEXT
  5
187
330
17
100
AcDbEntity
  8
0TEXT-1
100
AcDbText
 10
23500.0
 20
2700.0
 30
0.0
 40
340.0
  1
리넨실
  7
KOR
 72
1
 11
23500.0
 21
2700.0
 31
0.0
100
AcDbText
 73
2
  0
TEXT
  5
188
330
17
100
AcDbEntity
  8
0TEXT-1
100
AcDbText
 10
23500.0
 20
2200.0
 30
0.0
 40
240.0
  1
25.0m² /7.56PY
  7
KOR
 72
1
 11
23500.0
 21
2200.0
 31
0.0
100
AcDbText
 73
2
  0
LWPOLYLINE
  5
189
330
17
100
AcDbEntity
  8
0CONC
100
AcDbPolyline
 90
4
 70
1
 10
17400.0
 20
6500.0
 10
17600.0
 20
6500.0
 10
17600.0
 20
8000.0
 10
17400.0
 20
8000.0
  0
HATCH
  5
18A
330
17
100
AcDbEntity
  8
해치벽체
 62
8
100
AcDbHatch
 10
0.0
 20
0.0
 30
0.0
210
0.0
220
0.0
230
1.0
  2
ANSI31
 70
0
 71
0
 91
1
 92
3
 72
0
 73
1
 93
4
 10
17400.0
 20
6500.0
 10
17600.0
 20
6500.0
 10
17600.0
 20
8000.0
 10
17400.0
 20
8000.0
 97
0
 75
1
 76
1
 52
0.0
 41
18.0
 77
0
 78
1
 53
45.0
 43
0.0
 44
0.0
 45
-40.4111525454
 46
40.4111525454
 79
0
 98
0
  0
LWPOLYLINE
  5
18B
330
17
100
AcDbEntity
  8
0CONC
100
AcDbPolyline
 90
4
 70
1
 10
17400.0
 20
14500.0
 10
17600.0
 20
14500.0
 10
17600.0
 20
16300.0
 10
17400.0
 20
16300.0
  0
HATCH
  5
18C
330
17
100
AcDbEntity
  8
해치벽체
 62
8
100
AcDbHatch
 10
0.0
 20
0.0
 30
0.0
210
0.0
220
0.0
230
1.0
  2
ANSI31
 70
0
 71
0
 91
1
 92
3
 72
0
 73
1
 93
4
 10
17400.0
 20
14500.0
 10
17600.0
 20
14500.0
 10
17600.0
 20
16300.0
 10
17400.0
 20
16300.0
 97
0
 75
1
 76
1
 52
0.0
 41
18.0
 77
0
 78
1
 53
45.0
 43
0.0
 44
0.0
 45
-40.4111525454
 46
40.4111525454
 79
0
 98
0
  0
LWPOLYLINE
  5
18D
330
17
100
AcDbEntity
  8
0CONC
100
AcDbPolyline
 90
4
 70
1
 10
27800.0
 20
6500.0
 10
28000.0
 20
6500.0
 10
28000.0
 20
16300.0
 10
27800.0
 20
16300.0
  0
HATCH
  5
18E
330
17
100
AcDbEntity
  8
해치벽체
 62
8
100
AcDbHatch
 10
0.0
 20
0.0
 30
0.0
210
0.0
220
0.0
230
1.0
  2
ANSI31
 70
0
 71
0
 91
1
 92
3
 72
0
 73
1
 93
4
 10
27800.0
 20
6500.0
 10
28000.0
 20
6500.0
 10
28000.0
 20
16300.0
 10
27800.0
 20
16300.0
 97
0
 75
1
 76
1
 52
0.0
 41
18.0
 77
0
 78
1
 53
45.0
 43
0.0
 44
0.0
 45
-40.4111525454
 46
40.4111525454
 79
0
 98
0
  0
LWPOLYLINE
  5
18F
330
17
100
AcDbEntity
  8
0CONC
100
AcDbPolyline
 90
4
 70
1
 10
21370.0
 20
6500.0
 10
28000.0
 20
6500.0
 10
28000.0
 20
6700.0
 10
21370.0
 20
6700.0
  0
HATCH
  5
190
330
17
100
AcDbEntity
  8
해치벽체
 62
8
100
AcDbHatch
 10
0.0
 20
0.0
 30
0.0
210
0.0
220
0.0
230
1.0
  2
ANSI31
 70
0
 71
0
 91
1
 92
3
 72
0
 73
1
 93
4
 10
21370.0
 20
6500.0
 10
28000.0
 20
6500.0
 10
28000.0
 20
6700.0
 10
21370.0
 20
6700.0
 97
0
 75
1
 76
1
 52
0.0
 41
18.0
 77
0
 78
1
 53
45.0
 43
0.0
 44
0.0
 45
-40.4111525454
 46
40.4111525454
 79
0
 98
0
  0
LWPOLYLINE
  5
191
330
17
100
AcDbEntity
  8
0CONC
100
AcDbPolyline
 90
4
 70
1
 10
21570.0
 20
12600.0
 10
27800.0
 20
12600.0
 10
27800.0
 20
12800.0
 10
21570.0
 20
12800.0
  0
HATCH
  5
192
330
17
100
AcDbEntity
  8
해치벽체
 62
8
100
AcDbHatch
 10
0.0
 20
0.0
 30
0.0
210
0.0
220
0.0
230
1.0
  2
ANSI31
 70
0
 71
0
 91
1
 92
3
 72
0
 73
1
 93
4
 10
21570.0
 20
12600.0
 10
27800.0
 20
12600.0
 10
27800.0
 20
12800.0
 10
21570.0
 20
12800.0
 97
0
 75
1
 76
1
 52
0.0
 41
18.0
 77
0
 78
1
 53
45.0
 43
0.0
 44
0.0
 45
-40.4111525454
 46
40.4111525454
 79
0
 98
0
  0
LWPOLYLINE
  5
193
330
17
100
AcDbEntity
  8
0CONC
100
AcDbPolyline
 90
4
 70
1
 10
21370.0
 20
6700.0
 10
21570.0
 20
6700.0
 10
21570.0
 20
8600.0
 10
21370.0
 20
8600.0
  0
HATCH
  5
194
330
17
100
AcDbEntity
  8
해치벽체
 62
8
100
AcDbHatch
 10
0.0
 20
0.0
 30
0.0
210
0.0
220
0.0
230
1.0
  2
ANSI31
 70
0
 71
0
 91
1
 92
3
 72
0
 73
1
 93
4
 10
21370.0
 20
6700.0
 10
21570.0
 20
6700.0
 10
21570.0
 20
8600.0
 10
21370.0
 20
8600.0
 97
0
 75
1
 76
1
 52
0.0
 41
18.0
 77
0
 78
1
 53
45.0
 43
0.0
 44
0.0
 45
-40.4111525454
 46
40.4111525454
 79
0
 98
0
  0
LWPOLYLINE
  5
195
330
17
100
AcDbEntity
  8
0CONC
100
AcDbPolyline
 90
4
 70
1
 10
21370.0
 20
9400.0
 10
21570.0
 20
9400.0
 10
21570.0
 20
10900.0
 10
21370.0
 20
10900.0
  0
HATCH
  5
196
330
17
100
AcDbEntity
  8
해치벽체
 62
8
100
AcDbHatch
 10
0.0
 20
0.0
 30
0.0
210
0.0
220
0.0
230
1.0
  2
ANSI31
 70
0
 71
0
 91
1
 92
3
 72
0
 73
1
 93
4
 10
21370.0
 20
9400.0
 10
21570.0
 20
9400.0
 10
21570.0
 20
10900.0
 10
21370.0
 20
10900.0
 97
0
 75
1
 76
1
 52
0.0
 41
18.0
 77
0
 78
1
 53
45.0
 43
0.0
 44
0.0
 45
-40.4111525454
 46
40.4111525454
 79
0
 98
0
  0
LWPOLYLINE
  5
197
330
17
100
AcDbEntity
  8
0CONC
100
AcDbPolyline
 90
4
 70
1
 10
21370.0
 20
11700.0
 10
21570.0
 20
11700.0
 10
21570.0
 20
12800.0
 10
21370.0
 20
12800.0
  0
HATCH
  5
198
330
17
100
AcDbEntity
  8
해치벽체
 62
8
100
AcDbHatch
 10
0.0
 20
0.0
 30
0.0
210
0.0
220
0.0
230
1.0
  2
ANSI31
 70
0
 71
0
 91
1
 92
3
 72
0
 73
1
 93
4
 10
21370.0
 20
11700.0
 10
21570.0
 20
11700.0
 10
21570.0
 20
12800.0
 10
21370.0
 20
12800.0
 97
0
 75
1
 76
1
 52
0.0
 41
18.0
 77
0
 78
1
 53
45.0
 43
0.0
 44
0.0
 45
-40.4111525454
 46
40.4111525454
 79
0
 98
0
  0
LWPOLYLINE
  5
199
330
17
100
AcDbEntity
  8
0CONC
100
AcDbPolyline
 90
4
 70
1
 10
24000.0
 20
6700.0
 10
24200.0
 20
6700.0
 10
24200.0
 20
12600.0
 10
24000.0
 20
12600.0
  0
HATCH
  5
19A
330
17
100
AcDbEntity
  8
해치벽체
 62
8
100
AcDbHatch
 10
0.0
 20
0.0
 30
0.0
210
0.0
220
0.0
230
1.0
  2
ANSI31
 70
0
 71
0
 91
1
 92
3
 72
0
 73
1
 93
4
 10
24000.0
 20
6700.0
 10
24200.0
 20
6700.0
 10
24200.0
 20
12600.0
 10
24000.0
 20
12600.0
 97
0
 75
1
 76
1
 52
0.0
 41
18.0
 77
0
 78
1
 53
45.0
 43
0.0
 44
0.0
 45
-40.4111525454
 46
40.4111525454
 79
0
 98
0
  0
LWPOLYLINE
  5
19B
330
17
100
AcDbEntity
  8
FUR
100
AcDbPolyline
 90
4
 70
1
 10
21570.0
 20
8000.0
 10
23900.0
 20
8000.0
 10
23900.0
 20
10000.0
 10
21570.0
 20
10000.0
  0
LINE
  5
19C
330
17
100
AcDbEntity
  8
FUR
100
AcDbLine
 10
21570.0
 20
8000.0
 30
0.0
 11
23900.0
 21
10000.0
 31
0.0
  0
LINE
  5
19D
330
17
100
AcDbEntity
  8
FUR
100
AcDbLine
 10
21570.0
 20
10000.0
 30
0.0
 11
23900.0
 21
8000.0
 31
0.0
  0
LWPOLYLINE
  5
19E
330
17
100
AcDbEntity
  8
FUR
100
AcDbPolyline
 90
4
 70
1
 10
21570.0
 20
10300.0
 10
23900.0
 20
10300.0
 10
23900.0
 20
12300.0
 10
21570.0
 20
12300.0
  0
LINE
  5
19F
330
17
100
AcDbEntity
  8
FUR
100
AcDbLine
 10
21570.0
 20
10300.0
 30
0.0
 11
23900.0
 21
12300.0
 31
0.0
  0
LINE
  5
1A0
330
17
100
AcDbEntity
  8
FUR
100
AcDbLine
 10
21570.0
 20
12300.0
 30
0.0
 11
23900.0
 21
10300.0
 31
0.0
  0
TEXT
  5
1A1
330
17
100
AcDbEntity
  8
0TEXT-1
100
AcDbText
 10
22700.0
 20
9000.0
 30
0.0
 40
300.0
  1
EV
  7
KOR
 72
1
 11
22700.0
 21
9000.0
 31
0.0
100
AcDbText
 73
2
  0
TEXT
  5
1A2
330
17
100
AcDbEntity
  8
0TEXT-1
100
AcDbText
 10
22700.0
 20
11300.0
 30
0.0
 40
300.0
  1
EV
  7
KOR
 72
1
 11
22700.0
 21
11300.0
 31
0.0
100
AcDbText
 73
2
  0
TEXT
  5
1A3
330
17
100
AcDbEntity
  8
0TEXT-1
 62
8
100
AcDbText
 10
22700.0
 20
7350.0
 30
0.0
 40
200.0
  1
12인승 장애인겸용
  7
KOR
 72
1
 11
22700.0
 21
7350.0
 31
0.0
100
AcDbText
 73
2
  0
LINE
  5
1A4
330
17
100
AcDbEntity
  8
FUR
100
AcDbLine
 10
24600.0
 20
6900.0
 30
0.0
 11
24600.0
 21
9500.0
 31
0.0
  0
LINE
  5
1A5
330
17
100
AcDbEntity
  8
FUR
100
AcDbLine
 10
24600.0
 20
9900.0
 30
0.0
 11
24600.0
 21
12500.0
 31
0.0
  0
LINE
  5
1A6
330
17
100
AcDbEntity
  8
FUR
100
AcDbLine
 10
24900.0
 20
6900.0
 30
0.0
 11
24900.0
 21
9500.0
 31
0.0
  0
LINE
  5
1A7
330
17
100
AcDbEntity
  8
FUR
100
AcDbLine
 10
24900.0
 20
9900.0
 30
0.0
 11
24900.0
 21
12500.0
 31
0.0
  0
LINE
  5
1A8
330
17
100
AcDbEntity
  8
FUR
100
AcDbLine
 10
25200.0
 20
6900.0
 30
0.0
 11
25200.0
 21
9500.0
 31
0.0
  0
LINE
  5
1A9
330
17
100
AcDbEntity
  8
FUR
100
AcDbLine
 10
25200.0
 20
9900.0
 30
0.0
 11
25200.0
 21
12500.0
 31
0.0
  0
LINE
  5
1AA
330
17
100
AcDbEntity
  8
FUR
100
AcDbLine
 10
25500.0
 20
6900.0
 30
0.0
 11
25500.0
 21
9500.0
 31
0.0
  0
LINE
  5
1AB
330
17
100
AcDbEntity
  8
FUR
100
AcDbLine
 10
25500.0
 20
9900.0
 30
0.0
 11
25500.0
 21
12500.0
 31
0.0
  0
LINE
  5
1AC
330
17
100
AcDbEntity
  8
FUR
100
AcDbLine
 10
25800.0
 20
6900.0
 30
0.0
 11
25800.0
 21
9500.0
 31
0.0
  0
LINE
  5
1AD
330
17
100
AcDbEntity
  8
FUR
100
AcDbLine
 10
25800.0
 20
9900.0
 30
0.0
 11
25800.0
 21
12500.0
 31
0.0
  0
LINE
  5
1AE
330
17
100
AcDbEntity
  8
FUR
100
AcDbLine
 10
26100.0
 20
6900.0
 30
0.0
 11
26100.0
 21
9500.0
 31
0.0
  0
LINE
  5
1AF
330
17
100
AcDbEntity
  8
FUR
100
AcDbLine
 10
26100.0
 20
9900.0
 30
0.0
 11
26100.0
 21
12500.0
 31
0.0
  0
LINE
  5
1B0
330
17
100
AcDbEntity
  8
FUR
100
AcDbLine
 10
26400.0
 20
6900.0
 30
0.0
 11
26400.0
 21
9500.0
 31
0.0
  0
LINE
  5
1B1
330
17
100
AcDbEntity
  8
FUR
100
AcDbLine
 10
26400.0
 20
9900.0
 30
0.0
 11
26400.0
 21
12500.0
 31
0.0
  0
LINE
  5
1B2
330
17
100
AcDbEntity
  8
FUR
100
AcDbLine
 10
26700.0
 20
6900.0
 30
0.0
 11
26700.0
 21
9500.0
 31
0.0
  0
LINE
  5
1B3
330
17
100
AcDbEntity
  8
FUR
100
AcDbLine
 10
26700.0
 20
9900.0
 30
0.0
 11
26700.0
 21
12500.0
 31
0.0
  0
LINE
  5
1B4
330
17
100
AcDbEntity
  8
FUR
100
AcDbLine
 10
27000.0
 20
6900.0
 30
0.0
 11
27000.0
 21
9500.0
 31
0.0
  0
LINE
  5
1B5
330
17
100
AcDbEntity
  8
FUR
100
AcDbLine
 10
27000.0
 20
9900.0
 30
0.0
 11
27000.0
 21
12500.0
 31
0.0
  0
LINE
  5
1B6
330
17
100
AcDbEntity
  8
FUR
100
AcDbLine
 10
24200.0
 20
9700.0
 30
0.0
 11
27800.0
 21
9700.0
 31
0.0
  0
TEXT
  5
1B7
330
17
100
AcDbEntity
  8
0TEXT-1
100
AcDbText
 10
26500.0
 20
9700.0
 30
0.0
 40
300.0
  1
계단
  7
KOR
 72
1
 11
26500.0
 21
9700.0
 31
0.0
100
AcDbText
 73
2
  0
TEXT
  5
1B8
330
17
100
AcDbEntity
  8
0TEXT-1
100
AcDbText
 10
19400.0
 20
10900.0
 30
0.0
 40
380.0
  1
홀
  7
KOR
 72
1
 11
19400.0
 21
10900.0
 31
0.0
100
AcDbText
 73
2
  0
TEXT
  5
1B9
330
17
100
AcDbEntity
  8
0TEXT-1
 62
8
100
AcDbText
 10
9000.0
 20
11300.0
 30
0.0
 40
300.0
  1
마주침 마당
  7
KOR
 72
1
 11
9000.0
 21
11300.0
 31
0.0
100
AcDbText
 73
2
  0
LWPOLYLINE
  5
1BA
330
17
100
AcDbEntity
  8
0CONC
100
AcDbPolyline
 90
4
 70
1
 10
7000.0
 20
22600.0
 10
8200.0
 20
22600.0
 10
8200.0
 20
22800.0
 10
7000.0
 20
22800.0
  0
HATCH
  5
1BB
330
17
100
AcDbEntity
  8
해치벽체
 62
8
100
AcDbHatch
 10
0.0
 20
0.0
 30
0.0
210
0.0
220
0.0
230
1.0
  2
ANSI31
 70
0
 71
0
 91
1
 92
3
 72
0
 73
1
 93
4
 10
7000.0
 20
22600.0
 10
8200.0
 20
22600.0
 10
8200.0
 20
22800.0
 10
7000.0
 20
22800.0
 97
0
 75
1
 76
1
 52
0.0
 41
18.0
 77
0
 78
1
 53
45.0
 43
0.0
 44
0.0
 45
-40.4111525454
 46
40.4111525454
 79
0
 98
0
  0
LWPOLYLINE
  5
1BC
330
17
100
AcDbEntity
  8
0CONC
100
AcDbPolyline
 90
4
 70
1
 10
12800.0
 20
22600.0
 10
14300.0
 20
22600.0
 10
14300.0
 20
22800.0
 10
12800.0
 20
22800.0
  0
HATCH
  5
1BD
330
17
100
AcDbEntity
  8
해치벽체
 62
8
100
AcDbHatch
 10
0.0
 20
0.0
 30
0.0
210
0.0
220
0.0
230
1.0
  2
ANSI31
 70
0
 71
0
 91
1
 92
3
 72
0
 73
1
 93
4
 10
12800.0
 20
22600.0
 10
14300.0
 20
22600.0
 10
14300.0
 20
22800.0
 10
12800.0
 20
22800.0
 97
0
 75
1
 76
1
 52
0.0
 41
18.0
 77
0
 78
1
 53
45.0
 43
0.0
 44
0.0
 45
-40.4111525454
 46
40.4111525454
 79
0
 98
0
  0
LWPOLYLINE
  5
1BE
330
17
100
AcDbEntity
  8
0CONC
100
AcDbPolyline
 90
4
 70
1
 10
17200.0
 20
22600.0
 10
18700.0
 20
22600.0
 10
18700.0
 20
22800.0
 10
17200.0
 20
22800.0
  0
HATCH
  5
1BF
330
17
100
AcDbEntity
  8
해치벽체
 62
8
100
AcDbHatch
 10
0.0
 20
0.0
 30
0.0
210
0.0
220
0.0
230
1.0
  2
ANSI31
 70
0
 71
0
 91
1
 92
3
 72
0
 73
1
 93
4
 10
17200.0
 20
22600.0
 10
18700.0
 20
22600.0
 10
18700.0
 20
22800.0
 10
17200.0
 20
22800.0
 97
0
 75
1
 76
1
 52
0.0
 41
18.0
 77
0
 78
1
 53
45.0
 43
0.0
 44
0.0
 45
-40.4111525454
 46
40.4111525454
 79
0
 98
0
  0
LWPOLYLINE
  5
1C0
330
17
100
AcDbEntity
  8
0CONC
100
AcDbPolyline
 90
4
 70
1
 10
23300.0
 20
22600.0
 10
24500.0
 20
22600.0
 10
24500.0
 20
22800.0
 10
23300.0
 20
22800.0
  0
HATCH
  5
1C1
330
17
100
AcDbEntity
  8
해치벽체
 62
8
100
AcDbHatch
 10
0.0
 20
0.0
 30
0.0
210
0.0
220
0.0
230
1.0
  2
ANSI31
 70
0
 71
0
 91
1
 92
3
 72
0
 73
1
 93
4
 10
23300.0
 20
22600.0
 10
24500.0
 20
22600.0
 10
24500.0
 20
22800.0
 10
23300.0
 20
22800.0
 97
0
 75
1
 76
1
 52
0.0
 41
18.0
 77
0
 78
1
 53
45.0
 43
0.0
 44
0.0
 45
-40.4111525454
 46
40.4111525454
 79
0
 98
0
  0
LINE
  5
1C2
330
17
100
AcDbEntity
  8
0WIN
100
AcDbLine
 10
8200.0
 20
22600.0
 30
0.0
 11
12800.0
 21
22600.0
 31
0.0
  0
LINE
  5
1C3
330
17
100
AcDbEntity
  8
0WIN
100
AcDbLine
 10
8200.0
 20
22666.666666666668
 30
0.0
 11
12800.0
 21
22666.666666666668
 31
0.0
  0
LINE
  5
1C4
330
17
100
AcDbEntity
  8
0WIN
100
AcDbLine
 10
8200.0
 20
22733.333333333332
 30
0.0
 11
12800.0
 21
22733.333333333332
 31
0.0
  0
LINE
  5
1C5
330
17
100
AcDbEntity
  8
0WIN
100
AcDbLine
 10
8200.0
 20
22800.0
 30
0.0
 11
12800.0
 21
22800.0
 31
0.0
  0
LINE
  5
1C6
330
17
100
AcDbEntity
  8
0WIN
100
AcDbLine
 10
8200.0
 20
22600.0
 30
0.0
 11
8200.0
 21
22800.0
 31
0.0
  0
LINE
  5
1C7
330
17
100
AcDbEntity
  8
0WIN
100
AcDbLine
 10
12800.0
 20
22600.0
 30
0.0
 11
12800.0
 21
22800.0
 31
0.0
  0
LINE
  5
1C8
330
17
100
AcDbEntity
  8
0WIN
100
AcDbLine
 10
14300.0
 20
22600.0
 30
0.0
 11
17200.0
 21
22600.0
 31
0.0
  0
LINE
  5
1C9
330
17
100
AcDbEntity
  8
0WIN
100
AcDbLine
 10
14300.0
 20
22666.666666666668
 30
0.0
 11
17200.0
 21
22666.666666666668
 31
0.0
  0
LINE
  5
1CA
330
17
100
AcDbEntity
  8
0WIN
100
AcDbLine
 10
14300.0
 20
22733.333333333332
 30
0.0
 11
17200.0
 21
22733.333333333332
 31
0.0
  0
LINE
  5
1CB
330
17
100
AcDbEntity
  8
0WIN
100
AcDbLine
 10
14300.0
 20
22800.0
 30
0.0
 11
17200.0
 21
22800.0
 31
0.0
  0
LINE
  5
1CC
330
17
100
AcDbEntity
  8
0WIN
100
AcDbLine
 10
14300.0
 20
22600.0
 30
0.0
 11
14300.0
 21
22800.0
 31
0.0
  0
LINE
  5
1CD
330
17
100
AcDbEntity
  8
0WIN
100
AcDbLine
 10
17200.0
 20
22600.0
 30
0.0
 11
17200.0
 21
22800.0
 31
0.0
  0
LINE
  5
1CE
330
17
100
AcDbEntity
  8
0WIN
100
AcDbLine
 10
18700.0
 20
22600.0
 30
0.0
 11
23300.0
 21
22600.0
 31
0.0
  0
LINE
  5
1CF
330
17
100
AcDbEntity
  8
0WIN
100
AcDbLine
 10
18700.0
 20
22666.666666666668
 30
0.0
 11
23300.0
 21
22666.666666666668
 31
0.0
  0
LINE
  5
1D0
330
17
100
AcDbEntity
  8
0WIN
100
AcDbLine
 10
18700.0
 20
22733.333333333332
 30
0.0
 11
23300.0
 21
22733.333333333332
 31
0.0
  0
LINE
  5
1D1
330
17
100
AcDbEntity
  8
0WIN
100
AcDbLine
 10
18700.0
 20
22800.0
 30
0.0
 11
23300.0
 21
22800.0
 31
0.0
  0
LINE
  5
1D2
330
17
100
AcDbEntity
  8
0WIN
100
AcDbLine
 10
18700.0
 20
22600.0
 30
0.0
 11
18700.0
 21
22800.0
 31
0.0
  0
LINE
  5
1D3
330
17
100
AcDbEntity
  8
0WIN
100
AcDbLine
 10
23300.0
 20
22600.0
 30
0.0
 11
23300.0
 21
22800.0
 31
0.0
  0
LINE
  5
1D4
330
17
100
AcDbEntity
  8
0WIN
100
AcDbLine
 10
0.0
 20
22650.0
 30
0.0
 11
7000.0
 21
22650.0
 31
0.0
  0
LINE
  5
1D5
330
17
100
AcDbEntity
  8
0WIN
100
AcDbLine
 10
0.0
 20
22780.0
 30
0.0
 11
7000.0
 21
22780.0
 31
0.0
  0
TEXT
  5
1D6
330
17
100
AcDbEntity
  8
0TEXT-1
 62
8
100
AcDbText
 10
3500.0
 20
22150.0
 30
0.0
 40
280.0
  1
발코니
  7
KOR
 72
1
 11
3500.0
 21
22150.0
 31
0.0
100
AcDbText
 73
2
  0
LINE
  5
1D7
330
17
100
AcDbEntity
  8
0WIN
100
AcDbLine
 10
24500.0
 20
22650.0
 30
0.0
 11
31500.0
 21
22650.0
 31
0.0
  0
LINE
  5
1D8
330
17
100
AcDbEntity
  8
0WIN
100
AcDbLine
 10
24500.0
 20
22780.0
 30
0.0
 11
31500.0
 21
22780.0
 31
0.0
  0
TEXT
  5
1D9
330
17
100
AcDbEntity
  8
0TEXT-1
 62
8
100
AcDbText
 10
28000.0
 20
22150.0
 30
0.0
 40
280.0
  1
발코니
  7
KOR
 72
1
 11
28000.0
 21
22150.0
 31
0.0
100
AcDbText
 73
2
  0
LINE
  5
1DA
330
17
100
AcDbEntity
  8
0WIN
100
AcDbLine
 10
50.0
 20
21300.0
 30
0.0
 11
50.0
 21
22780.0
 31
0.0
  0
LINE
  5
1DB
330
17
100
AcDbEntity
  8
0WIN
100
AcDbLine
 10
31450.0
 20
21300.0
 30
0.0
 11
31450.0
 21
22780.0
 31
0.0
  0
LWPOLYLINE
  5
1DC
330
17
100
AcDbEntity
  8
0CONC
100
AcDbPolyline
 90
4
 70
1
 10
0.0
 20
21100.0
 10
1200.0
 20
21100.0
 10
1200.0
 20
21300.0
 10
0.0
 20
21300.0
  0
HATCH
  5
1DD
330
17
100
AcDbEntity
  8
해치벽체
 62
8
100
AcDbHatch
 10
0.0
 20
0.0
 30
0.0
210
0.0
220
0.0
230
1.0
  2
ANSI31
 70
0
 71
0
 91
1
 92
3
 72
0
 73
1
 93
4
 10
0.0
 20
21100.0
 10
1200.0
 20
21100.0
 10
1200.0
 20
21300.0
 10
0.0
 20
21300.0
 97
0
 75
1
 76
1
 52
0.0
 41
18.0
 77
0
 78
1
 53
45.0
 43
0.0
 44
0.0
 45
-40.4111525454
 46
40.4111525454
 79
0
 98
0
  0
LWPOLYLINE
  5
1DE
330
17
100
AcDbEntity
  8
0CONC
100
AcDbPolyline
 90
4
 70
1
 10
5800.0
 20
21100.0
 10
7000.0
 20
21100.0
 10
7000.0
 20
21300.0
 10
5800.0
 20
21300.0
  0
HATCH
  5
1DF
330
17
100
AcDbEntity
  8
해치벽체
 62
8
100
AcDbHatch
 10
0.0
 20
0.0
 30
0.0
210
0.0
220
0.0
230
1.0
  2
ANSI31
 70
0
 71
0
 91
1
 92
3
 72
0
 73
1
 93
4
 10
5800.0
 20
21100.0
 10
7000.0
 20
21100.0
 10
7000.0
 20
21300.0
 10
5800.0
 20
21300.0
 97
0
 75
1
 76
1
 52
0.0
 41
18.0
 77
0
 78
1
 53
45.0
 43
0.0
 44
0.0
 45
-40.4111525454
 46
40.4111525454
 79
0
 98
0
  0
LINE
  5
1E0
330
17
100
AcDbEntity
  8
0WIN
100
AcDbLine
 10
1200.0
 20
21100.0
 30
0.0
 11
5800.0
 21
21100.0
 31
0.0
  0
LINE
  5
1E1
330
17
100
AcDbEntity
  8
0WIN
100
AcDbLine
 10
1200.0
 20
21166.666666666668
 30
0.0
 11
5800.0
 21
21166.666666666668
 31
0.0
  0
LINE
  5
1E2
330
17
100
AcDbEntity
  8
0WIN
100
AcDbLine
 10
1200.0
 20
21233.333333333332
 30
0.0
 11
5800.0
 21
21233.333333333332
 31
0.0
  0
LINE
  5
1E3
330
17
100
AcDbEntity
  8
0WIN
100
AcDbLine
 10
1200.0
 20
21300.0
 30
0.0
 11
5800.0
 21
21300.0
 31
0.0
  0
LINE
  5
1E4
330
17
100
AcDbEntity
  8
0WIN
100
AcDbLine
 10
1200.0
 20
21100.0
 30
0.0
 11
1200.0
 21
21300.0
 31
0.0
  0
LINE
  5
1E5
330
17
100
AcDbEntity
  8
0WIN
100
AcDbLine
 10
5800.0
 20
21100.0
 30
0.0
 11
5800.0
 21
21300.0
 31
0.0
  0
LWPOLYLINE
  5
1E6
330
17
100
AcDbEntity
  8
0CONC
100
AcDbPolyline
 90
4
 70
1
 10
24500.0
 20
21100.0
 10
25700.0
 20
21100.0
 10
25700.0
 20
21300.0
 10
24500.0
 20
21300.0
  0
HATCH
  5
1E7
330
17
100
AcDbEntity
  8
해치벽체
 62
8
100
AcDbHatch
 10
0.0
 20
0.0
 30
0.0
210
0.0
220
0.0
230
1.0
  2
ANSI31
 70
0
 71
0
 91
1
 92
3
 72
0
 73
1
 93
4
 10
24500.0
 20
21100.0
 10
25700.0
 20
21100.0
 10
25700.0
 20
21300.0
 10
24500.0
 20
21300.0
 97
0
 75
1
 76
1
 52
0.0
 41
18.0
 77
0
 78
1
 53
45.0
 43
0.0
 44
0.0
 45
-40.4111525454
 46
40.4111525454
 79
0
 98
0
  0
LWPOLYLINE
  5
1E8
330
17
100
AcDbEntity
  8
0CONC
100
AcDbPolyline
 90
4
 70
1
 10
30300.0
 20
21100.0
 10
31500.0
 20
21100.0
 10
31500.0
 20
21300.0
 10
30300.0
 20
21300.0
  0
HATCH
  5
1E9
330
17
100
AcDbEntity
  8
해치벽체
 62
8
100
AcDbHatch
 10
0.0
 20
0.0
 30
0.0
210
0.0
220
0.0
230
1.0
  2
ANSI31
 70
0
 71
0
 91
1
 92
3
 72
0
 73
1
 93
4
 10
30300.0
 20
21100.0
 10
31500.0
 20
21100.0
 10
31500.0
 20
21300.0
 10
30300.0
 20
21300.0
 97
0
 75
1
 76
1
 52
0.0
 41
18.0
 77
0
 78
1
 53
45.0
 43
0.0
 44
0.0
 45
-40.4111525454
 46
40.4111525454
 79
0
 98
0
  0
LINE
  5
1EA
330
17
100
AcDbEntity
  8
0WIN
100
AcDbLine
 10
25700.0
 20
21100.0
 30
0.0
 11
30300.0
 21
21100.0
 31
0.0
  0
LINE
  5
1EB
330
17
100
AcDbEntity
  8
0WIN
100
AcDbLine
 10
25700.0
 20
21166.666666666668
 30
0.0
 11
30300.0
 21
21166.666666666668
 31
0.0
  0
LINE
  5
1EC
330
17
100
AcDbEntity
  8
0WIN
100
AcDbLine
 10
25700.0
 20
21233.333333333332
 30
0.0
 11
30300.0
 21
21233.333333333332
 31
0.0
  0
LINE
  5
1ED
330
17
100
AcDbEntity
  8
0WIN
100
AcDbLine
 10
25700.0
 20
21300.0
 30
0.0
 11
30300.0
 21
21300.0
 31
0.0
  0
LINE
  5
1EE
330
17
100
AcDbEntity
  8
0WIN
100
AcDbLine
 10
25700.0
 20
21100.0
 30
0.0
 11
25700.0
 21
21300.0
 31
0.0
  0
LINE
  5
1EF
330
17
100
AcDbEntity
  8
0WIN
100
AcDbLine
 10
30300.0
 20
21100.0
 30
0.0
 11
30300.0
 21
21300.0
 31
0.0
  0
LWPOLYLINE
  5
1F0
330
17
100
AcDbEntity
  8
0CONC
100
AcDbPolyline
 90
4
 70
1
 10
0.0
 20
16300.0
 10
200.0
 20
16300.0
 10
200.0
 20
21100.0
 10
0.0
 20
21100.0
  0
HATCH
  5
1F1
330
17
100
AcDbEntity
  8
해치벽체
 62
8
100
AcDbHatch
 10
0.0
 20
0.0
 30
0.0
210
0.0
220
0.0
230
1.0
  2
ANSI31
 70
0
 71
0
 91
1
 92
3
 72
0
 73
1
 93
4
 10
0.0
 20
16300.0
 10
200.0
 20
16300.0
 10
200.0
 20
21100.0
 10
0.0
 20
21100.0
 97
0
 75
1
 76
1
 52
0.0
 41
18.0
 77
0
 78
1
 53
45.0
 43
0.0
 44
0.0
 45
-40.4111525454
 46
40.4111525454
 79
0
 98
0
  0
LWPOLYLINE
  5
1F2
330
17
100
AcDbEntity
  8
0CONC
100
AcDbPolyline
 90
4
 70
1
 10
31300.0
 20
16300.0
 10
31500.0
 20
16300.0
 10
31500.0
 20
21100.0
 10
31300.0
 20
21100.0
  0
HATCH
  5
1F3
330
17
100
AcDbEntity
  8
해치벽체
 62
8
100
AcDbHatch
 10
0.0
 20
0.0
 30
0.0
210
0.0
220
0.0
230
1.0
  2
ANSI31
 70
0
 71
0
 91
1
 92
3
 72
0
 73
1
 93
4
 10
31300.0
 20
16300.0
 10
31500.0
 20
16300.0
 10
31500.0
 20
21100.0
 10
31300.0
 20
21100.0
 97
0
 75
1
 76
1
 52
0.0
 41
18.0
 77
0
 78
1
 53
45.0
 43
0.0
 44
0.0
 45
-40.4111525454
 46
40.4111525454
 79
0
 98
0
  0
LWPOLYLINE
  5
1F4
330
17
100
AcDbEntity
  8
0CONC
100
AcDbPolyline
 90
4
 70
1
 10
200.0
 20
16300.0
 10
7000.0
 20
16300.0
 10
7000.0
 20
16500.0
 10
200.0
 20
16500.0
  0
HATCH
  5
1F5
330
17
100
AcDbEntity
  8
해치벽체
 62
8
100
AcDbHatch
 10
0.0
 20
0.0
 30
0.0
210
0.0
220
0.0
230
1.0
  2
ANSI31
 70
0
 71
0
 91
1
 92
3
 72
0
 73
1
 93
4
 10
200.0
 20
16300.0
 10
7000.0
 20
16300.0
 10
7000.0
 20
16500.0
 10
200.0
 20
16500.0
 97
0
 75
1
 76
1
 52
0.0
 41
18.0
 77
0
 78
1
 53
45.0
 43
0.0
 44
0.0
 45
-40.4111525454
 46
40.4111525454
 79
0
 98
0
  0
LWPOLYLINE
  5
1F6
330
17
100
AcDbEntity
  8
0CONC
100
AcDbPolyline
 90
4
 70
1
 10
7000.0
 20
16300.0
 10
7400.0
 20
16300.0
 10
7400.0
 20
16500.0
 10
7000.0
 20
16500.0
  0
HATCH
  5
1F7
330
17
100
AcDbEntity
  8
해치벽체
 62
8
100
AcDbHatch
 10
0.0
 20
0.0
 30
0.0
210
0.0
220
0.0
230
1.0
  2
ANSI31
 70
0
 71
0
 91
1
 92
3
 72
0
 73
1
 93
4
 10
7000.0
 20
16300.0
 10
7400.0
 20
16300.0
 10
7400.0
 20
16500.0
 10
7000.0
 20
16500.0
 97
0
 75
1
 76
1
 52
0.0
 41
18.0
 77
0
 78
1
 53
45.0
 43
0.0
 44
0.0
 45
-40.4111525454
 46
40.4111525454
 79
0
 98
0
  0
LWPOLYLINE
  5
1F8
330
17
100
AcDbEntity
  8
0CONC
100
AcDbPolyline
 90
4
 70
1
 10
17000.0
 20
16300.0
 10
17400.0
 20
16300.0
 10
17400.0
 20
16500.0
 10
17000.0
 20
16500.0
  0
HATCH
  5
1F9
330
17
100
AcDbEntity
  8
해치벽체
 62
8
100
AcDbHatch
 10
0.0
 20
0.0
 30
0.0
210
0.0
220
0.0
230
1.0
  2
ANSI31
 70
0
 71
0
 91
1
 92
3
 72
0
 73
1
 93
4
 10
17000.0
 20
16300.0
 10
17400.0
 20
16300.0
 10
17400.0
 20
16500.0
 10
17000.0
 20
16500.0
 97
0
 75
1
 76
1
 52
0.0
 41
18.0
 77
0
 78
1
 53
45.0
 43
0.0
 44
0.0
 45
-40.4111525454
 46
40.4111525454
 79
0
 98
0
  0
LINE
  5
1FA
330
17
100
AcDbEntity
  8
0WIN
100
AcDbLine
 10
7400.0
 20
16300.0
 30
0.0
 11
17000.0
 21
16300.0
 31
0.0
  0
LINE
  5
1FB
330
17
100
AcDbEntity
  8
0WIN
100
AcDbLine
 10
7400.0
 20
16366.666666666666
 30
0.0
 11
17000.0
 21
16366.666666666666
 31
0.0
  0
LINE
  5
1FC
330
17
100
AcDbEntity
  8
0WIN
100
AcDbLine
 10
7400.0
 20
16433.333333333332
 30
0.0
 11
17000.0
 21
16433.333333333332
 31
0.0
  0
LINE
  5
1FD
330
17
100
AcDbEntity
  8
0WIN
100
AcDbLine
 10
7400.0
 20
16500.0
 30
0.0
 11
17000.0
 21
16500.0
 31
0.0
  0
LINE
  5
1FE
330
17
100
AcDbEntity
  8
0WIN
100
AcDbLine
 10
7400.0
 20
16300.0
 30
0.0
 11
7400.0
 21
16500.0
 31
0.0
  0
LINE
  5
1FF
330
17
100
AcDbEntity
  8
0WIN
100
AcDbLine
 10
17000.0
 20
16300.0
 30
0.0
 11
17000.0
 21
16500.0
 31
0.0
  0
LWPOLYLINE
  5
200
330
17
100
AcDbEntity
  8
0CONC
100
AcDbPolyline
 90
4
 70
1
 10
24500.0
 20
16300.0
 10
31300.0
 20
16300.0
 10
31300.0
 20
16500.0
 10
24500.0
 20
16500.0
  0
HATCH
  5
201
330
17
100
AcDbEntity
  8
해치벽체
 62
8
100
AcDbHatch
 10
0.0
 20
0.0
 30
0.0
210
0.0
220
0.0
230
1.0
  2
ANSI31
 70
0
 71
0
 91
1
 92
3
 72
0
 73
1
 93
4
 10
24500.0
 20
16300.0
 10
31300.0
 20
16300.0
 10
31300.0
 20
16500.0
 10
24500.0
 20
16500.0
 97
0
 75
1
 76
1
 52
0.0
 41
18.0
 77
0
 78
1
 53
45.0
 43
0.0
 44
0.0
 45
-40.4111525454
 46
40.4111525454
 79
0
 98
0
  0
LWPOLYLINE
  5
202
330
17
100
AcDbEntity
  8
0CONC
100
AcDbPolyline
 90
4
 70
1
 10
6900.0
 20
16500.0
 10
7100.0
 20
16500.0
 10
7100.0
 20
16600.0
 10
6900.0
 20
16600.0
  0
HATCH
  5
203
330
17
100
AcDbEntity
  8
해치벽체
 62
8
100
AcDbHatch
 10
0.0
 20
0.0
 30
0.0
210
0.0
220
0.0
230
1.0
  2
ANSI31
 70
0
 71
0
 91
1
 92
3
 72
0
 73
1
 93
4
 10
6900.0
 20
16500.0
 10
7100.0
 20
16500.0
 10
7100.0
 20
16600.0
 10
6900.0
 20
16600.0
 97
0
 75
1
 76
1
 52
0.0
 41
18.0
 77
0
 78
1
 53
45.0
 43
0.0
 44
0.0
 45
-40.4111525454
 46
40.4111525454
 79
0
 98
0
  0
LWPOLYLINE
  5
204
330
17
100
AcDbEntity
  8
0CONC
100
AcDbPolyline
 90
4
 70
1
 10
6900.0
 20
17400.0
 10
7100.0
 20
17400.0
 10
7100.0
 20
22600.0
 10
6900.0
 20
22600.0
  0
HATCH
  5
205
330
17
100
AcDbEntity
  8
해치벽체
 62
8
100
AcDbHatch
 10
0.0
 20
0.0
 30
0.0
210
0.0
220
0.0
230
1.0
  2
ANSI31
 70
0
 71
0
 91
1
 92
3
 72
0
 73
1
 93
4
 10
6900.0
 20
17400.0
 10
7100.0
 20
17400.0
 10
7100.0
 20
22600.0
 10
6900.0
 20
22600.0
 97
0
 75
1
 76
1
 52
0.0
 41
18.0
 77
0
 78
1
 53
45.0
 43
0.0
 44
0.0
 45
-40.4111525454
 46
40.4111525454
 79
0
 98
0
  0
LWPOLYLINE
  5
206
330
17
100
AcDbEntity
  8
0CONC
100
AcDbPolyline
 90
4
 70
1
 10
24400.0
 20
16500.0
 10
24600.0
 20
16500.0
 10
24600.0
 20
16600.0
 10
24400.0
 20
16600.0
  0
HATCH
  5
207
330
17
100
AcDbEntity
  8
해치벽체
 62
8
100
AcDbHatch
 10
0.0
 20
0.0
 30
0.0
210
0.0
220
0.0
230
1.0
  2
ANSI31
 70
0
 71
0
 91
1
 92
3
 72
0
 73
1
 93
4
 10
24400.0
 20
16500.0
 10
24600.0
 20
16500.0
 10
24600.0
 20
16600.0
 10
24400.0
 20
16600.0
 97
0
 75
1
 76
1
 52
0.0
 41
18.0
 77
0
 78
1
 53
45.0
 43
0.0
 44
0.0
 45
-40.4111525454
 46
40.4111525454
 79
0
 98
0
  0
LWPOLYLINE
  5
208
330
17
100
AcDbEntity
  8
0CONC
100
AcDbPolyline
 90
4
 70
1
 10
24400.0
 20
17400.0
 10
24600.0
 20
17400.0
 10
24600.0
 20
22600.0
 10
24400.0
 20
22600.0
  0
HATCH
  5
209
330
17
100
AcDbEntity
  8
해치벽체
 62
8
100
AcDbHatch
 10
0.0
 20
0.0
 30
0.0
210
0.0
220
0.0
230
1.0
  2
ANSI31
 70
0
 71
0
 91
1
 92
3
 72
0
 73
1
 93
4
 10
24400.0
 20
17400.0
 10
24600.0
 20
17400.0
 10
24600.0
 20
22600.0
 10
24400.0
 20
22600.0
 97
0
 75
1
 76
1
 52
0.0
 41
18.0
 77
0
 78
1
 53
45.0
 43
0.0
 44
0.0
 45
-40.4111525454
 46
40.4111525454
 79
0
 98
0
  0
LWPOLYLINE
  5
20A
330
17
100
AcDbEntity
  8
0CONC
100
AcDbPolyline
 90
4
 70
1
 10
7100.0
 20
17700.0
 10
12700.0
 20
17700.0
 10
12700.0
 20
17900.0
 10
7100.0
 20
17900.0
  0
HATCH
  5
20B
330
17
100
AcDbEntity
  8
해치벽체
 62
8
100
AcDbHatch
 10
0.0
 20
0.0
 30
0.0
210
0.0
220
0.0
230
1.0
  2
ANSI31
 70
0
 71
0
 91
1
 92
3
 72
0
 73
1
 93
4
 10
7100.0
 20
17700.0
 10
12700.0
 20
17700.0
 10
12700.0
 20
17900.0
 10
7100.0
 20
17900.0
 97
0
 75
1
 76
1
 52
0.0
 41
18.0
 77
0
 78
1
 53
45.0
 43
0.0
 44
0.0
 45
-40.4111525454
 46
40.4111525454
 79
0
 98
0
  0
LWPOLYLINE
  5
20C
330
17
100
AcDbEntity
  8
0CONC
100
AcDbPolyline
 90
4
 70
1
 10
13600.0
 20
17700.0
 10
14000.0
 20
17700.0
 10
14000.0
 20
17900.0
 10
13600.0
 20
17900.0
  0
HATCH
  5
20D
330
17
100
AcDbEntity
  8
해치벽체
 62
8
100
AcDbHatch
 10
0.0
 20
0.0
 30
0.0
210
0.0
220
0.0
230
1.0
  2
ANSI31
 70
0
 71
0
 91
1
 92
3
 72
0
 73
1
 93
4
 10
13600.0
 20
17700.0
 10
14000.0
 20
17700.0
 10
14000.0
 20
17900.0
 10
13600.0
 20
17900.0
 97
0
 75
1
 76
1
 52
0.0
 41
18.0
 77
0
 78
1
 53
45.0
 43
0.0
 44
0.0
 45
-40.4111525454
 46
40.4111525454
 79
0
 98
0
  0
LWPOLYLINE
  5
20E
330
17
100
AcDbEntity
  8
0CONC
100
AcDbPolyline
 90
4
 70
1
 10
17500.0
 20
17700.0
 10
17900.0
 20
17700.0
 10
17900.0
 20
17900.0
 10
17500.0
 20
17900.0
  0
HATCH
  5
20F
330
17
100
AcDbEntity
  8
해치벽체
 62
8
100
AcDbHatch
 10
0.0
 20
0.0
 30
0.0
210
0.0
220
0.0
230
1.0
  2
ANSI31
 70
0
 71
0
 91
1
 92
3
 72
0
 73
1
 93
4
 10
17500.0
 20
17700.0
 10
17900.0
 20
17700.0
 10
17900.0
 20
17900.0
 10
17500.0
 20
17900.0
 97
0
 75
1
 76
1
 52
0.0
 41
18.0
 77
0
 78
1
 53
45.0
 43
0.0
 44
0.0
 45
-40.4111525454
 46
40.4111525454
 79
0
 98
0
  0
LWPOLYLINE
  5
210
330
17
100
AcDbEntity
  8
0CONC
100
AcDbPolyline
 90
4
 70
1
 10
18800.0
 20
17700.0
 10
24400.0
 20
17700.0
 10
24400.0
 20
17900.0
 10
18800.0
 20
17900.0
  0
HATCH
  5
211
330
17
100
AcDbEntity
  8
해치벽체
 62
8
100
AcDbHatch
 10
0.0
 20
0.0
 30
0.0
210
0.0
220
0.0
230
1.0
  2
ANSI31
 70
0
 71
0
 91
1
 92
3
 72
0
 73
1
 93
4
 10
18800.0
 20
17700.0
 10
24400.0
 20
17700.0
 10
24400.0
 20
17900.0
 10
18800.0
 20
17900.0
 97
0
 75
1
 76
1
 52
0.0
 41
18.0
 77
0
 78
1
 53
45.0
 43
0.0
 44
0.0
 45
-40.4111525454
 46
40.4111525454
 79
0
 98
0
  0
LWPOLYLINE
  5
212
330
17
100
AcDbEntity
  8
0CONC
100
AcDbPolyline
 90
4
 70
1
 10
13900.0
 20
17900.0
 10
14100.0
 20
17900.0
 10
14100.0
 20
22600.0
 10
13900.0
 20
22600.0
  0
HATCH
  5
213
330
17
100
AcDbEntity
  8
해치벽체
 62
8
100
AcDbHatch
 10
0.0
 20
0.0
 30
0.0
210
0.0
220
0.0
230
1.0
  2
ANSI31
 70
0
 71
0
 91
1
 92
3
 72
0
 73
1
 93
4
 10
13900.0
 20
17900.0
 10
14100.0
 20
17900.0
 10
14100.0
 20
22600.0
 10
13900.0
 20
22600.0
 97
0
 75
1
 76
1
 52
0.0
 41
18.0
 77
0
 78
1
 53
45.0
 43
0.0
 44
0.0
 45
-40.4111525454
 46
40.4111525454
 79
0
 98
0
  0
LWPOLYLINE
  5
214
330
17
100
AcDbEntity
  8
0CONC
100
AcDbPolyline
 90
4
 70
1
 10
17400.0
 20
17900.0
 10
17600.0
 20
17900.0
 10
17600.0
 20
22600.0
 10
17400.0
 20
22600.0
  0
HATCH
  5
215
330
17
100
AcDbEntity
  8
해치벽체
 62
8
100
AcDbHatch
 10
0.0
 20
0.0
 30
0.0
210
0.0
220
0.0
230
1.0
  2
ANSI31
 70
0
 71
0
 91
1
 92
3
 72
0
 73
1
 93
4
 10
17400.0
 20
17900.0
 10
17600.0
 20
17900.0
 10
17600.0
 20
22600.0
 10
17400.0
 20
22600.0
 97
0
 75
1
 76
1
 52
0.0
 41
18.0
 77
0
 78
1
 53
45.0
 43
0.0
 44
0.0
 45
-40.4111525454
 46
40.4111525454
 79
0
 98
0
  0
TEXT
  5
216
330
17
100
AcDbEntity
  8
0TEXT-1
 62
8
100
AcDbText
 10
12000.0
 20
17100.0
 30
0.0
 40
280.0
  1
복도
  7
KOR
 72
1
 11
12000.0
 21
17100.0
 31
0.0
100
AcDbText
 73
2
  0
LWPOLYLINE
  5
217
330
17
100
AcDbEntity
  8
0CONC
100
AcDbPolyline
 90
4
 70
1
 10
2400.0
 20
16500.0
 10
2500.0
 20
16500.0
 10
2500.0
 20
17600.0
 10
2400.0
 20
17600.0
  0
HATCH
  5
218
330
17
100
AcDbEntity
  8
해치벽체
 62
8
100
AcDbHatch
 10
0.0
 20
0.0
 30
0.0
210
0.0
220
0.0
230
1.0
  2
ANSI31
 70
0
 71
0
 91
1
 92
3
 72
0
 73
1
 93
4
 10
2400.0
 20
16500.0
 10
2500.0
 20
16500.0
 10
2500.0
 20
17600.0
 10
2400.0
 20
17600.0
 97
0
 75
1
 76
1
 52
0.0
 41
18.0
 77
0
 78
1
 53
45.0
 43
0.0
 44
0.0
 45
-40.4111525454
 46
40.4111525454
 79
0
 98
0
  0
LWPOLYLINE
  5
219
330
17
100
AcDbEntity
  8
0CONC
100
AcDbPolyline
 90
4
 70
1
 10
2400.0
 20
18400.0
 10
2500.0
 20
18400.0
 10
2500.0
 20
18700.0
 10
2400.0
 20
18700.0
  0
HATCH
  5
21A
330
17
100
AcDbEntity
  8
해치벽체
 62
8
100
AcDbHatch
 10
0.0
 20
0.0
 30
0.0
210
0.0
220
0.0
230
1.0
  2
ANSI31
 70
0
 71
0
 91
1
 92
3
 72
0
 73
1
 93
4
 10
2400.0
 20
18400.0
 10
2500.0
 20
18400.0
 10
2500.0
 20
18700.0
 10
2400.0
 20
18700.0
 97
0
 75
1
 76
1
 52
0.0
 41
18.0
 77
0
 78
1
 53
45.0
 43
0.0
 44
0.0
 45
-40.4111525454
 46
40.4111525454
 79
0
 98
0
  0
LWPOLYLINE
  5
21B
330
17
100
AcDbEntity
  8
0CONC
100
AcDbPolyline
 90
4
 70
1
 10
200.0
 20
18600.0
 10
2400.0
 20
18600.0
 10
2400.0
 20
18700.0
 10
200.0
 20
18700.0
  0
HATCH
  5
21C
330
17
100
AcDbEntity
  8
해치벽체
 62
8
100
AcDbHatch
 10
0.0
 20
0.0
 30
0.0
210
0.0
220
0.0
230
1.0
  2
ANSI31
 70
0
 71
0
 91
1
 92
3
 72
0
 73
1
 93
4
 10
200.0
 20
18600.0
 10
2400.0
 20
18600.0
 10
2400.0
 20
18700.0
 10
200.0
 20
18700.0
 97
0
 75
1
 76
1
 52
0.0
 41
18.0
 77
0
 78
1
 53
45.0
 43
0.0
 44
0.0
 45
-40.4111525454
 46
40.4111525454
 79
0
 98
0
  0
LWPOLYLINE
  5
21D
330
17
100
AcDbEntity
  8
TOIL
100
AcDbPolyline
 90
4
 70
1
 10
200.0
 20
17700.0
 10
1100.0
 20
17700.0
 10
1100.0
 20
18600.0
 10
200.0
 20
18600.0
  0
LINE
  5
21E
330
17
100
AcDbEntity
  8
TOIL
100
AcDbLine
 10
200.0
 20
17700.0
 30
0.0
 11
1100.0
 21
18600.0
 31
0.0
  0
LINE
  5
21F
330
17
100
AcDbEntity
  8
TOIL
100
AcDbLine
 10
200.0
 20
18600.0
 30
0.0
 11
1100.0
 21
17700.0
 31
0.0
  0
LWPOLYLINE
  5
220
330
17
100
AcDbEntity
  8
TOIL
100
AcDbPolyline
 90
4
 70
1
 10
480.0
 20
16550.0
 10
920.0
 20
16550.0
 10
920.0
 20
16770.0
 10
480.0
 20
16770.0
  0
ELLIPSE
  5
221
330
17
100
AcDbEntity
  8
TOIL
100
AcDbEllipse
 10
700.0
 20
17100.0
 30
0.0
 11
0.0
 21
310.0
 31
0.0
 40
0.7419354838709677
 41
0.0
 42
6.283185307179586
  0
LWPOLYLINE
  5
222
330
17
100
AcDbEntity
  8
TOIL
100
AcDbPolyline
 90
4
 70
1
 10
1500.0
 20
16500.0
 10
2400.0
 20
16500.0
 10
2400.0
 20
17050.0
 10
1500.0
 20
17050.0
  0
ELLIPSE
  5
223
330
17
100
AcDbEntity
  8
TOIL
100
AcDbEllipse
 10
1950.0
 20
16775.0
 30
0.0
 11
270.0
 21
0.0
 31
0.0
 40
0.7037037037037037
 41
0.0
 42
6.283185307179586
  0
CIRCLE
  5
224
330
17
100
AcDbEntity
  8
TOIL
100
AcDbCircle
 10
1950.0
 20
16590.0
 30
0.0
 40
45.0
  0
TEXT
  5
225
330
17
100
AcDbEntity
  8
0TEXT-1
100
AcDbText
 10
1600.0
 20
17450.0
 30
0.0
 40
190.0
  1
욕실
  7
KOR
 72
1
 11
1600.0
 21
17450.0
 31
0.0
100
AcDbText
 73
2
  0
LINE
  5
226
330
17
100
AcDbEntity
  8
DOOR
100
AcDbLine
 10
2400.0
 20
17600.0
 30
0.0
 11
1600.0
 21
17600.0
 31
0.0
  0
ARC
  5
227
330
17
100
AcDbEntity
  8
DOOR
100
AcDbCircle
 10
2400.0
 20
17600.0
 30
0.0
 40
800.0
100
AcDbArc
 50
90.0
 51
180.0
  0
LINE
  5
228
330
17
100
AcDbEntity
  8
DOOR
100
AcDbLine
 10
6800.0
 20
16600.0
 30
0.0
 11
5900.0
 21
16600.0
 31
0.0
  0
ARC
  5
229
330
17
100
AcDbEntity
  8
DOOR
100
AcDbCircle
 10
6800.0
 20
16600.0
 30
0.0
 40
900.0
100
AcDbArc
 50
90.0
 51
180.0
  0
LINE
  5
22A
330
17
100
AcDbEntity
  8
0WIN
100
AcDbLine
 10
1200.0
 20
21100.0
 30
0.0
 11
5800.0
 21
21100.0
 31
0.0
  0
LINE
  5
22B
330
17
100
AcDbEntity
  8
0WIN
100
AcDbLine
 10
1200.0
 20
21166.666666666668
 30
0.0
 11
5800.0
 21
21166.666666666668
 31
0.0
  0
LINE
  5
22C
330
17
100
AcDbEntity
  8
0WIN
100
AcDbLine
 10
1200.0
 20
21233.333333333332
 30
0.0
 11
5800.0
 21
21233.333333333332
 31
0.0
  0
LINE
  5
22D
330
17
100
AcDbEntity
  8
0WIN
100
AcDbLine
 10
1200.0
 20
21300.0
 30
0.0
 11
5800.0
 21
21300.0
 31
0.0
  0
LINE
  5
22E
330
17
100
AcDbEntity
  8
0WIN
100
AcDbLine
 10
1200.0
 20
21100.0
 30
0.0
 11
1200.0
 21
21300.0
 31
0.0
  0
LINE
  5
22F
330
17
100
AcDbEntity
  8
0WIN
100
AcDbLine
 10
5800.0
 20
21100.0
 30
0.0
 11
5800.0
 21
21300.0
 31
0.0
  0
LWPOLYLINE
  5
230
330
17
100
AcDbEntity
  8
STAIR
100
AcDbPolyline
 90
4
 70
1
 10
4300.0
 20
17700.0
 10
4800.0
 20
17700.0
 10
4800.0
 20
18700.0
 10
4300.0
 20
18700.0
  0
LINE
  5
231
330
17
100
AcDbEntity
  8
STAIR
100
AcDbLine
 10
4300.0
 20
18033.333333333332
 30
0.0
 11
4800.0
 21
18033.333333333332
 31
0.0
  0
LINE
  5
232
330
17
100
AcDbEntity
  8
STAIR
100
AcDbLine
 10
4300.0
 20
18366.666666666668
 30
0.0
 11
4800.0
 21
18366.666666666668
 31
0.0
  0
TEXT
  5
233
330
17
100
AcDbEntity
  8
0TEXT-1
 62
9
100
AcDbText
 10
4550.0
 20
18200.0
 30
0.0
 40
130.0
  1
사다리UP
  7
KOR
 72
1
 11
4550.0
 21
18200.0
 31
0.0
100
AcDbText
 73
2
  0
LWPOLYLINE
  5
234
330
17
100
AcDbEntity
  8
FUR
100
AcDbPolyline
 90
4
 70
1
 10
2700.0
 20
17700.0
 10
4100.0
 20
17700.0
 10
4100.0
 20
18250.0
 10
2700.0
 20
18250.0
  0
LWPOLYLINE
  5
235
330
17
100
AcDbEntity
  8
TOIL
100
AcDbPolyline
 90
4
 70
1
 10
2820.0
 20
17810.0
 10
3310.0
 20
17810.0
 10
3310.0
 20
18140.0
 10
2820.0
 20
18140.0
  0
CIRCLE
  5
236
330
17
100
AcDbEntity
  8
FUR
100
AcDbCircle
 10
3792.0
 20
17975.0
 30
0.0
 40
140.0
  0
CIRCLE
  5
237
330
17
100
AcDbEntity
  8
FUR
100
AcDbCircle
 10
3400.0
 20
17975.0
 30
0.0
 40
140.0
  0
TEXT
  5
238
330
17
100
AcDbEntity
  8
0TEXT-1
 62
9
100
AcDbText
 10
3400.0
 20
18450.0
 30
0.0
 40
160.0
  1
간이주방
  7
KOR
 72
1
 11
3400.0
 21
18450.0
 31
0.0
100
AcDbText
 73
2
  0
LWPOLYLINE
  5
239
330
17
100
AcDbEntity
  8
FUR
100
AcDbPolyline
 90
4
 70
1
 10
5000.0
 20
17750.0
 10
6800.0
 20
17750.0
 10
6800.0
 20
18650.0
 10
5000.0
 20
18650.0
  0
LWPOLYLINE
  5
23A
330
17
100
AcDbEntity
  8
FUR
100
AcDbPolyline
 90
4
 70
1
 10
5070.0
 20
17820.0
 10
6730.0
 20
17820.0
 10
6730.0
 20
18580.0
 10
5070.0
 20
18580.0
  0
LWPOLYLINE
  5
23B
330
17
100
AcDbEntity
  8
FUR
100
AcDbPolyline
 90
4
 70
1
 10
6300.0
 20
19000.0
 10
6800.0
 20
19000.0
 10
6800.0
 20
20500.0
 10
6300.0
 20
20500.0
  0
LWPOLYLINE
  5
23C
330
17
100
AcDbEntity
  8
FUR
100
AcDbPolyline
 90
4
 70
1
 10
6330.0
 20
19200.0
 10
6400.0
 20
19200.0
 10
6400.0
 20
20300.0
 10
6330.0
 20
20300.0
  0
LWPOLYLINE
  5
23D
330
17
100
AcDbEntity
  8
FUR
100
AcDbPolyline
 90
4
 70
1
 10
5200.0
 20
20500.0
 10
5900.0
 20
20500.0
 10
5900.0
 20
21000.0
 10
5200.0
 20
21000.0
  0
LWPOLYLINE
  5
23E
330
17
100
AcDbEntity
  8
FUR
100
AcDbPolyline
 90
4
 70
1
 10
5270.0
 20
20570.0
 10
5830.0
 20
20570.0
 10
5830.0
 20
20930.0
 10
5270.0
 20
20930.0
  0
CIRCLE
  5
23F
330
17
100
AcDbEntity
  8
FUR
100
AcDbCircle
 10
4700.0
 20
20750.0
 30
0.0
 40
250.0
  0
LWPOLYLINE
  5
240
330
17
100
AcDbEntity
  8
FUR
100
AcDbPolyline
 90
4
 70
1
 10
200.0
 20
20200.0
 10
1300.0
 20
20200.0
 10
1300.0
 20
21000.0
 10
200.0
 20
21000.0
  0
LINE
  5
241
330
17
100
AcDbEntity
  8
FUR
100
AcDbLine
 10
200.0
 20
20200.0
 30
0.0
 11
1300.0
 21
21000.0
 31
0.0
  0
TEXT
  5
242
330
17
100
AcDbEntity
  8
0TEXT-1
100
AcDbText
 10
2700.0
 20
20200.0
 30
0.0
 40
190.0
  1
① 디럭스 로프트
  7
KOR
 72
1
 11
2700.0
 21
20200.0
 31
0.0
100
AcDbText
 73
2
  0
TEXT
  5
243
330
17
100
AcDbEntity
  8
0TEXT-1
 62
8
100
AcDbText
 10
2700.0
 20
19850.0
 30
0.0
 40
150.0
  1
(간이주방 · 2F 침대다락)
  7
KOR
 72
1
 11
2700.0
 21
19850.0
 31
0.0
100
AcDbText
 73
2
  0
LWPOLYLINE
  5
244
330
17
100
AcDbEntity
  8
0CONC
100
AcDbPolyline
 90
4
 70
1
 10
29000.0
 20
16500.0
 10
29100.0
 20
16500.0
 10
29100.0
 20
17600.0
 10
29000.0
 20
17600.0
  0
HATCH
  5
245
330
17
100
AcDbEntity
  8
해치벽체
 62
8
100
AcDbHatch
 10
0.0
 20
0.0
 30
0.0
210
0.0
220
0.0
230
1.0
  2
ANSI31
 70
0
 71
0
 91
1
 92
3
 72
0
 73
1
 93
4
 10
29000.0
 20
16500.0
 10
29100.0
 20
16500.0
 10
29100.0
 20
17600.0
 10
29000.0
 20
17600.0
 97
0
 75
1
 76
1
 52
0.0
 41
18.0
 77
0
 78
1
 53
45.0
 43
0.0
 44
0.0
 45
-40.4111525454
 46
40.4111525454
 79
0
 98
0
  0
LWPOLYLINE
  5
246
330
17
100
AcDbEntity
  8
0CONC
100
AcDbPolyline
 90
4
 70
1
 10
29000.0
 20
18400.0
 10
29100.0
 20
18400.0
 10
29100.0
 20
18700.0
 10
29000.0
 20
18700.0
  0
HATCH
  5
247
330
17
100
AcDbEntity
  8
해치벽체
 62
8
100
AcDbHatch
 10
0.0
 20
0.0
 30
0.0
210
0.0
220
0.0
230
1.0
  2
ANSI31
 70
0
 71
0
 91
1
 92
3
 72
0
 73
1
 93
4
 10
29000.0
 20
18400.0
 10
29100.0
 20
18400.0
 10
29100.0
 20
18700.0
 10
29000.0
 20
18700.0
 97
0
 75
1
 76
1
 52
0.0
 41
18.0
 77
0
 78
1
 53
45.0
 43
0.0
 44
0.0
 45
-40.4111525454
 46
40.4111525454
 79
0
 98
0
  0
LWPOLYLINE
  5
248
330
17
100
AcDbEntity
  8
0CONC
100
AcDbPolyline
 90
4
 70
1
 10
29100.0
 20
18600.0
 10
31300.0
 20
18600.0
 10
31300.0
 20
18700.0
 10
29100.0
 20
18700.0
  0
HATCH
  5
249
330
17
100
AcDbEntity
  8
해치벽체
 62
8
100
AcDbHatch
 10
0.0
 20
0.0
 30
0.0
210
0.0
220
0.0
230
1.0
  2
ANSI31
 70
0
 71
0
 91
1
 92
3
 72
0
 73
1
 93
4
 10
29100.0
 20
18600.0
 10
31300.0
 20
18600.0
 10
31300.0
 20
18700.0
 10
29100.0
 20
18700.0
 97
0
 75
1
 76
1
 52
0.0
 41
18.0
 77
0
 78
1
 53
45.0
 43
0.0
 44
0.0
 45
-40.4111525454
 46
40.4111525454
 79
0
 98
0
  0
LWPOLYLINE
  5
24A
330
17
100
AcDbEntity
  8
TOIL
100
AcDbPolyline
 90
4
 70
1
 10
30400.0
 20
17700.0
 10
31300.0
 20
17700.0
 10
31300.0
 20
18600.0
 10
30400.0
 20
18600.0
  0
LINE
  5
24B
330
17
100
AcDbEntity
  8
TOIL
100
AcDbLine
 10
31300.0
 20
17700.0
 30
0.0
 11
30400.0
 21
18600.0
 31
0.0
  0
LINE
  5
24C
330
17
100
AcDbEntity
  8
TOIL
100
AcDbLine
 10
31300.0
 20
18600.0
 30
0.0
 11
30400.0
 21
17700.0
 31
0.0
  0
LWPOLYLINE
  5
24D
330
17
100
AcDbEntity
  8
TOIL
100
AcDbPolyline
 90
4
 70
1
 10
30580.0
 20
16550.0
 10
31020.0
 20
16550.0
 10
31020.0
 20
16770.0
 10
30580.0
 20
16770.0
  0
ELLIPSE
  5
24E
330
17
100
AcDbEntity
  8
TOIL
100
AcDbEllipse
 10
30800.0
 20
17100.0
 30
0.0
 11
0.0
 21
310.0
 31
0.0
 40
0.7419354838709677
 41
0.0
 42
6.283185307179586
  0
LWPOLYLINE
  5
24F
330
17
100
AcDbEntity
  8
TOIL
100
AcDbPolyline
 90
4
 70
1
 10
29100.0
 20
16500.0
 10
30000.0
 20
16500.0
 10
30000.0
 20
17050.0
 10
29100.0
 20
17050.0
  0
ELLIPSE
  5
250
330
17
100
AcDbEntity
  8
TOIL
100
AcDbEllipse
 10
29550.0
 20
16775.0
 30
0.0
 11
270.0
 21
0.0
 31
0.0
 40
0.7037037037037037
 41
0.0
 42
6.283185307179586
  0
CIRCLE
  5
251
330
17
100
AcDbEntity
  8
TOIL
100
AcDbCircle
 10
29550.0
 20
16590.0
 30
0.0
 40
45.0
  0
TEXT
  5
252
330
17
100
AcDbEntity
  8
0TEXT-1
100
AcDbText
 10
29900.0
 20
17450.0
 30
0.0
 40
190.0
  1
욕실
  7
KOR
 72
1
 11
29900.0
 21
17450.0
 31
0.0
100
AcDbText
 73
2
  0
LINE
  5
253
330
17
100
AcDbEntity
  8
DOOR
100
AcDbLine
 10
29100.0
 20
17600.0
 30
0.0
 11
29900.0
 21
17600.0
 31
0.0
  0
ARC
  5
254
330
17
100
AcDbEntity
  8
DOOR
100
AcDbCircle
 10
29100.0
 20
17600.0
 30
0.0
 40
800.0
100
AcDbArc
 50
0.0
 51
90.0
  0
LINE
  5
255
330
17
100
AcDbEntity
  8
DOOR
100
AcDbLine
 10
24700.0
 20
16600.0
 30
0.0
 11
25600.0
 21
16600.0
 31
0.0
  0
ARC
  5
256
330
17
100
AcDbEntity
  8
DOOR
100
AcDbCircle
 10
24700.0
 20
16600.0
 30
0.0
 40
900.0
100
AcDbArc
 50
0.0
 51
90.0
  0
LINE
  5
257
330
17
100
AcDbEntity
  8
0WIN
100
AcDbLine
 10
30300.0
 20
21100.0
 30
0.0
 11
25700.0
 21
21100.0
 31
0.0
  0
LINE
  5
258
330
17
100
AcDbEntity
  8
0WIN
100
AcDbLine
 10
30300.0
 20
21166.666666666668
 30
0.0
 11
25700.0
 21
21166.666666666668
 31
0.0
  0
LINE
  5
259
330
17
100
AcDbEntity
  8
0WIN
100
AcDbLine
 10
30300.0
 20
21233.333333333332
 30
0.0
 11
25700.0
 21
21233.333333333332
 31
0.0
  0
LINE
  5
25A
330
17
100
AcDbEntity
  8
0WIN
100
AcDbLine
 10
30300.0
 20
21300.0
 30
0.0
 11
25700.0
 21
21300.0
 31
0.0
  0
LINE
  5
25B
330
17
100
AcDbEntity
  8
0WIN
100
AcDbLine
 10
30300.0
 20
21100.0
 30
0.0
 11
30300.0
 21
21300.0
 31
0.0
  0
LINE
  5
25C
330
17
100
AcDbEntity
  8
0WIN
100
AcDbLine
 10
25700.0
 20
21100.0
 30
0.0
 11
25700.0
 21
21300.0
 31
0.0
  0
LWPOLYLINE
  5
25D
330
17
100
AcDbEntity
  8
STAIR
100
AcDbPolyline
 90
4
 70
1
 10
26700.0
 20
17700.0
 10
27200.0
 20
17700.0
 10
27200.0
 20
18700.0
 10
26700.0
 20
18700.0
  0
LINE
  5
25E
330
17
100
AcDbEntity
  8
STAIR
100
AcDbLine
 10
27200.0
 20
18033.333333333332
 30
0.0
 11
26700.0
 21
18033.333333333332
 31
0.0
  0
LINE
  5
25F
330
17
100
AcDbEntity
  8
STAIR
100
AcDbLine
 10
27200.0
 20
18366.666666666668
 30
0.0
 11
26700.0
 21
18366.666666666668
 31
0.0
  0
TEXT
  5
260
330
17
100
AcDbEntity
  8
0TEXT-1
 62
9
100
AcDbText
 10
26950.0
 20
18200.0
 30
0.0
 40
130.0
  1
사다리UP
  7
KOR
 72
1
 11
26950.0
 21
18200.0
 31
0.0
100
AcDbText
 73
2
  0
LWPOLYLINE
  5
261
330
17
100
AcDbEntity
  8
FUR
100
AcDbPolyline
 90
4
 70
1
 10
27400.0
 20
17700.0
 10
28800.0
 20
17700.0
 10
28800.0
 20
18250.0
 10
27400.0
 20
18250.0
  0
LWPOLYLINE
  5
262
330
17
100
AcDbEntity
  8
TOIL
100
AcDbPolyline
 90
4
 70
1
 10
28190.0
 20
17810.0
 10
28680.0
 20
17810.0
 10
28680.0
 20
18140.0
 10
28190.0
 20
18140.0
  0
CIRCLE
  5
263
330
17
100
AcDbEntity
  8
FUR
100
AcDbCircle
 10
27708.0
 20
17975.0
 30
0.0
 40
140.0
  0
CIRCLE
  5
264
330
17
100
AcDbEntity
  8
FUR
100
AcDbCircle
 10
28100.0
 20
17975.0
 30
0.0
 40
140.0
  0
TEXT
  5
265
330
17
100
AcDbEntity
  8
0TEXT-1
 62
9
100
AcDbText
 10
28100.0
 20
18450.0
 30
0.0
 40
160.0
  1
간이주방
  7
KOR
 72
1
 11
28100.0
 21
18450.0
 31
0.0
100
AcDbText
 73
2
  0
LWPOLYLINE
  5
266
330
17
100
AcDbEntity
  8
FUR
100
AcDbPolyline
 90
4
 70
1
 10
24700.0
 20
17750.0
 10
26500.0
 20
17750.0
 10
26500.0
 20
18650.0
 10
24700.0
 20
18650.0
  0
LWPOLYLINE
  5
267
330
17
100
AcDbEntity
  8
FUR
100
AcDbPolyline
 90
4
 70
1
 10
24770.0
 20
17820.0
 10
26430.0
 20
17820.0
 10
26430.0
 20
18580.0
 10
24770.0
 20
18580.0
  0
LWPOLYLINE
  5
268
330
17
100
AcDbEntity
  8
FUR
100
AcDbPolyline
 90
4
 70
1
 10
24700.0
 20
19000.0
 10
25200.0
 20
19000.0
 10
25200.0
 20
20500.0
 10
24700.0
 20
20500.0
  0
LWPOLYLINE
  5
269
330
17
100
AcDbEntity
  8
FUR
100
AcDbPolyline
 90
4
 70
1
 10
25100.0
 20
19200.0
 10
25170.0
 20
19200.0
 10
25170.0
 20
20300.0
 10
25100.0
 20
20300.0
  0
LWPOLYLINE
  5
26A
330
17
100
AcDbEntity
  8
FUR
100
AcDbPolyline
 90
4
 70
1
 10
25600.0
 20
20500.0
 10
26300.0
 20
20500.0
 10
26300.0
 20
21000.0
 10
25600.0
 20
21000.0
  0
LWPOLYLINE
  5
26B
330
17
100
AcDbEntity
  8
FUR
100
AcDbPolyline
 90
4
 70
1
 10
25670.0
 20
20570.0
 10
26230.0
 20
20570.0
 10
26230.0
 20
20930.0
 10
25670.0
 20
20930.0
  0
CIRCLE
  5
26C
330
17
100
AcDbEntity
  8
FUR
100
AcDbCircle
 10
26800.0
 20
20750.0
 30
0.0
 40
250.0
  0
LWPOLYLINE
  5
26D
330
17
100
AcDbEntity
  8
FUR
100
AcDbPolyline
 90
4
 70
1
 10
30200.0
 20
20200.0
 10
31300.0
 20
20200.0
 10
31300.0
 20
21000.0
 10
30200.0
 20
21000.0
  0
LINE
  5
26E
330
17
100
AcDbEntity
  8
FUR
100
AcDbLine
 10
31300.0
 20
20200.0
 30
0.0
 11
30200.0
 21
21000.0
 31
0.0
  0
TEXT
  5
26F
330
17
100
AcDbEntity
  8
0TEXT-1
100
AcDbText
 10
28800.0
 20
20200.0
 30
0.0
 40
190.0
  1
① 디럭스 로프트
  7
KOR
 72
1
 11
28800.0
 21
20200.0
 31
0.0
100
AcDbText
 73
2
  0
TEXT
  5
270
330
17
100
AcDbEntity
  8
0TEXT-1
 62
8
100
AcDbText
 10
28800.0
 20
19850.0
 30
0.0
 40
150.0
  1
(간이주방 · 2F 침대다락)
  7
KOR
 72
1
 11
28800.0
 21
19850.0
 31
0.0
100
AcDbText
 73
2
  0
LWPOLYLINE
  5
271
330
17
100
AcDbEntity
  8
0CONC
100
AcDbPolyline
 90
4
 70
1
 10
10300.0
 20
18000.0
 10
10400.0
 20
18000.0
 10
10400.0
 20
20200.0
 10
10300.0
 20
20200.0
  0
HATCH
  5
272
330
17
100
AcDbEntity
  8
해치벽체
 62
8
100
AcDbHatch
 10
0.0
 20
0.0
 30
0.0
210
0.0
220
0.0
230
1.0
  2
ANSI31
 70
0
 71
0
 91
1
 92
3
 72
0
 73
1
 93
4
 10
10300.0
 20
18000.0
 10
10400.0
 20
18000.0
 10
10400.0
 20
20200.0
 10
10300.0
 20
20200.0
 97
0
 75
1
 76
1
 52
0.0
 41
18.0
 77
0
 78
1
 53
45.0
 43
0.0
 44
0.0
 45
-40.4111525454
 46
40.4111525454
 79
0
 98
0
  0
LWPOLYLINE
  5
273
330
17
100
AcDbEntity
  8
0CONC
100
AcDbPolyline
 90
4
 70
1
 10
12600.0
 20
18000.0
 10
12700.0
 20
18000.0
 10
12700.0
 20
19150.0
 10
12600.0
 20
19150.0
  0
HATCH
  5
274
330
17
100
AcDbEntity
  8
해치벽체
 62
8
100
AcDbHatch
 10
0.0
 20
0.0
 30
0.0
210
0.0
220
0.0
230
1.0
  2
ANSI31
 70
0
 71
0
 91
1
 92
3
 72
0
 73
1
 93
4
 10
12600.0
 20
18000.0
 10
12700.0
 20
18000.0
 10
12700.0
 20
19150.0
 10
12600.0
 20
19150.0
 97
0
 75
1
 76
1
 52
0.0
 41
18.0
 77
0
 78
1
 53
45.0
 43
0.0
 44
0.0
 45
-40.4111525454
 46
40.4111525454
 79
0
 98
0
  0
LWPOLYLINE
  5
275
330
17
100
AcDbEntity
  8
0CONC
100
AcDbPolyline
 90
4
 70
1
 10
12600.0
 20
19950.0
 10
12700.0
 20
19950.0
 10
12700.0
 20
20200.0
 10
12600.0
 20
20200.0
  0
HATCH
  5
276
330
17
100
AcDbEntity
  8
해치벽체
 62
8
100
AcDbHatch
 10
0.0
 20
0.0
 30
0.0
210
0.0
220
0.0
230
1.0
  2
ANSI31
 70
0
 71
0
 91
1
 92
3
 72
0
 73
1
 93
4
 10
12600.0
 20
19950.0
 10
12700.0
 20
19950.0
 10
12700.0
 20
20200.0
 10
12600.0
 20
20200.0
 97
0
 75
1
 76
1
 52
0.0
 41
18.0
 77
0
 78
1
 53
45.0
 43
0.0
 44
0.0
 45
-40.4111525454
 46
40.4111525454
 79
0
 98
0
  0
LWPOLYLINE
  5
277
330
17
100
AcDbEntity
  8
0CONC
100
AcDbPolyline
 90
4
 70
1
 10
10400.0
 20
20100.0
 10
12700.0
 20
20100.0
 10
12700.0
 20
20200.0
 10
10400.0
 20
20200.0
  0
HATCH
  5
278
330
17
100
AcDbEntity
  8
해치벽체
 62
8
100
AcDbHatch
 10
0.0
 20
0.0
 30
0.0
210
0.0
220
0.0
230
1.0
  2
ANSI31
 70
0
 71
0
 91
1
 92
3
 72
0
 73
1
 93
4
 10
10400.0
 20
20100.0
 10
12700.0
 20
20100.0
 10
12700.0
 20
20200.0
 10
10400.0
 20
20200.0
 97
0
 75
1
 76
1
 52
0.0
 41
18.0
 77
0
 78
1
 53
45.0
 43
0.0
 44
0.0
 45
-40.4111525454
 46
40.4111525454
 79
0
 98
0
  0
LWPOLYLINE
  5
279
330
17
100
AcDbEntity
  8
TOIL
100
AcDbPolyline
 90
4
 70
1
 10
10400.0
 20
19200.0
 10
11300.0
 20
19200.0
 10
11300.0
 20
20100.0
 10
10400.0
 20
20100.0
  0
LINE
  5
27A
330
17
100
AcDbEntity
  8
TOIL
100
AcDbLine
 10
10400.0
 20
19200.0
 30
0.0
 11
11300.0
 21
20100.0
 31
0.0
  0
LINE
  5
27B
330
17
100
AcDbEntity
  8
TOIL
100
AcDbLine
 10
10400.0
 20
20100.0
 30
0.0
 11
11300.0
 21
19200.0
 31
0.0
  0
LWPOLYLINE
  5
27C
330
17
100
AcDbEntity
  8
TOIL
100
AcDbPolyline
 90
4
 70
1
 10
10630.0
 20
18050.0
 10
11070.0
 20
18050.0
 10
11070.0
 20
18270.0
 10
10630.0
 20
18270.0
  0
ELLIPSE
  5
27D
330
17
100
AcDbEntity
  8
TOIL
100
AcDbEllipse
 10
10850.0
 20
18600.0
 30
0.0
 11
0.0
 21
310.0
 31
0.0
 40
0.7419354838709677
 41
0.0
 42
6.283185307179586
  0
LWPOLYLINE
  5
27E
330
17
100
AcDbEntity
  8
TOIL
100
AcDbPolyline
 90
4
 70
1
 10
11600.0
 20
18000.0
 10
12600.0
 20
18000.0
 10
12600.0
 20
18550.0
 10
11600.0
 20
18550.0
  0
ELLIPSE
  5
27F
330
17
100
AcDbEntity
  8
TOIL
100
AcDbEllipse
 10
12100.0
 20
18275.0
 30
0.0
 11
270.0
 21
0.0
 31
0.0
 40
0.7037037037037037
 41
0.0
 42
6.283185307179586
  0
CIRCLE
  5
280
330
17
100
AcDbEntity
  8
TOIL
100
AcDbCircle
 10
12100.0
 20
18090.0
 30
0.0
 40
45.0
  0
TEXT
  5
281
330
17
100
AcDbEntity
  8
0TEXT-1
100
AcDbText
 10
11450.0
 20
18950.0
 30
0.0
 40
190.0
  1
욕실
  7
KOR
 72
1
 11
11450.0
 21
18950.0
 31
0.0
100
AcDbText
 73
2
  0
LINE
  5
282
330
17
100
AcDbEntity
  8
DOOR
100
AcDbLine
 10
12600.0
 20
19950.0
 30
0.0
 11
11800.0
 21
19950.0
 31
0.0
  0
ARC
  5
283
330
17
100
AcDbEntity
  8
DOOR
100
AcDbCircle
 10
12600.0
 20
19950.0
 30
0.0
 40
800.0
100
AcDbArc
 50
180.0
 51
270.0
  0
LINE
  5
284
330
17
100
AcDbEntity
  8
DOOR
100
AcDbLine
 10
13600.0
 20
18000.0
 30
0.0
 11
13600.0
 21
18900.0
 31
0.0
  0
ARC
  5
285
330
17
100
AcDbEntity
  8
DOOR
100
AcDbCircle
 10
13600.0
 20
18000.0
 30
0.0
 40
900.0
100
AcDbArc
 50
90.0
 51
180.0
  0
LINE
  5
286
330
17
100
AcDbEntity
  8
0WIN
100
AcDbLine
 10
8200.0
 20
22600.0
 30
0.0
 11
12800.0
 21
22600.0
 31
0.0
  0
LINE
  5
287
330
17
100
AcDbEntity
  8
0WIN
100
AcDbLine
 10
8200.0
 20
22666.666666666668
 30
0.0
 11
12800.0
 21
22666.666666666668
 31
0.0
  0
LINE
  5
288
330
17
100
AcDbEntity
  8
0WIN
100
AcDbLine
 10
8200.0
 20
22733.333333333332
 30
0.0
 11
12800.0
 21
22733.333333333332
 31
0.0
  0
LINE
  5
289
330
17
100
AcDbEntity
  8
0WIN
100
AcDbLine
 10
8200.0
 20
22800.0
 30
0.0
 11
12800.0
 21
22800.0
 31
0.0
  0
LINE
  5
28A
330
17
100
AcDbEntity
  8
0WIN
100
AcDbLine
 10
8200.0
 20
22600.0
 30
0.0
 11
8200.0
 21
22800.0
 31
0.0
  0
LINE
  5
28B
330
17
100
AcDbEntity
  8
0WIN
100
AcDbLine
 10
12800.0
 20
22600.0
 30
0.0
 11
12800.0
 21
22800.0
 31
0.0
  0
LWPOLYLINE
  5
28C
330
17
100
AcDbEntity
  8
STAIR
100
AcDbPolyline
 90
4
 70
1
 10
9800.0
 20
21700.0
 10
10300.0
 20
21700.0
 10
10300.0
 20
22500.0
 10
9800.0
 20
22500.0
  0
LINE
  5
28D
330
17
100
AcDbEntity
  8
STAIR
100
AcDbLine
 10
9800.0
 20
21966.666666666668
 30
0.0
 11
10300.0
 21
21966.666666666668
 31
0.0
  0
LINE
  5
28E
330
17
100
AcDbEntity
  8
STAIR
100
AcDbLine
 10
9800.0
 20
22233.333333333332
 30
0.0
 11
10300.0
 21
22233.333333333332
 31
0.0
  0
TEXT
  5
28F
330
17
100
AcDbEntity
  8
0TEXT-1
 62
9
100
AcDbText
 10
10050.0
 20
22100.0
 30
0.0
 40
130.0
  1
사다리UP
  7
KOR
 72
1
 11
10050.0
 21
22100.0
 31
0.0
100
AcDbText
 73
2
  0
LWPOLYLINE
  5
290
330
17
100
AcDbEntity
  8
FUR
100
AcDbPolyline
 90
4
 70
1
 10
10600.0
 20
20400.0
 10
12000.0
 20
20400.0
 10
12000.0
 20
20950.0
 10
10600.0
 20
20950.0
  0
LWPOLYLINE
  5
291
330
17
100
AcDbEntity
  8
TOIL
100
AcDbPolyline
 90
4
 70
1
 10
10720.0
 20
20510.0
 10
11210.0
 20
20510.0
 10
11210.0
 20
20840.0
 10
10720.0
 20
20840.0
  0
CIRCLE
  5
292
330
17
100
AcDbEntity
  8
FUR
100
AcDbCircle
 10
11692.0
 20
20675.0
 30
0.0
 40
140.0
  0
CIRCLE
  5
293
330
17
100
AcDbEntity
  8
FUR
100
AcDbCircle
 10
11300.0
 20
20675.0
 30
0.0
 40
140.0
  0
LWPOLYLINE
  5
294
330
17
100
AcDbEntity
  8
FUR
100
AcDbPolyline
 90
4
 70
1
 10
12150.0
 20
20400.0
 10
12700.0
 20
20400.0
 10
12700.0
 20
20950.0
 10
12150.0
 20
20950.0
  0
TEXT
  5
295
330
17
100
AcDbEntity
  8
0TEXT-1
 62
9
100
AcDbText
 10
11300.0
 20
21150.0
 30
0.0
 40
160.0
  1
간이주방
  7
KOR
 72
1
 11
11300.0
 21
21150.0
 31
0.0
100
AcDbText
 73
2
  0
LWPOLYLINE
  5
296
330
17
100
AcDbEntity
  8
FUR
100
AcDbPolyline
 90
4
 70
1
 10
7500.0
 20
19400.0
 10
9300.0
 20
19400.0
 10
9300.0
 20
20300.0
 10
7500.0
 20
20300.0
  0
LWPOLYLINE
  5
297
330
17
100
AcDbEntity
  8
FUR
100
AcDbPolyline
 90
4
 70
1
 10
7570.0
 20
19470.0
 10
9230.0
 20
19470.0
 10
9230.0
 20
20230.0
 10
7570.0
 20
20230.0
  0
LWPOLYLINE
  5
298
330
17
100
AcDbEntity
  8
FUR
100
AcDbPolyline
 90
4
 70
1
 10
7300.0
 20
21000.0
 10
8700.0
 20
21000.0
 10
8700.0
 20
21500.0
 10
7300.0
 20
21500.0
  0
LWPOLYLINE
  5
299
330
17
100
AcDbEntity
  8
FUR
100
AcDbPolyline
 90
4
 70
1
 10
12200.0
 20
21700.0
 10
13800.0
 20
21700.0
 10
13800.0
 20
22500.0
 10
12200.0
 20
22500.0
  0
LWPOLYLINE
  5
29A
330
17
100
AcDbEntity
  8
FUR
100
AcDbPolyline
 90
4
 70
1
 10
12270.0
 20
21770.0
 10
13730.0
 20
21770.0
 10
13730.0
 20
22430.0
 10
12270.0
 20
22430.0
  0
CIRCLE
  5
29B
330
17
100
AcDbEntity
  8
FUR
100
AcDbCircle
 10
11900.0
 20
22050.0
 30
0.0
 40
260.0
  0
TEXT
  5
29C
330
17
100
AcDbEntity
  8
0TEXT-1
100
AcDbText
 10
8300.0
 20
22350.0
 30
0.0
 40
190.0
  1
② 디럭스 로프트
  7
KOR
 72
1
 11
8300.0
 21
22350.0
 31
0.0
100
AcDbText
 73
2
  0
TEXT
  5
29D
330
17
100
AcDbEntity
  8
0TEXT-1
 62
8
100
AcDbText
 10
8300.0
 20
22000.0
 30
0.0
 40
150.0
  1
(간이주방 · 2F 침대다락)
  7
KOR
 72
1
 11
8300.0
 21
22000.0
 31
0.0
100
AcDbText
 73
2
  0
LWPOLYLINE
  5
29E
330
17
100
AcDbEntity
  8
0CONC
100
AcDbPolyline
 90
4
 70
1
 10
21100.0
 20
18000.0
 10
21200.0
 20
18000.0
 10
21200.0
 20
20200.0
 10
21100.0
 20
20200.0
  0
HATCH
  5
29F
330
17
100
AcDbEntity
  8
해치벽체
 62
8
100
AcDbHatch
 10
0.0
 20
0.0
 30
0.0
210
0.0
220
0.0
230
1.0
  2
ANSI31
 70
0
 71
0
 91
1
 92
3
 72
0
 73
1
 93
4
 10
21100.0
 20
18000.0
 10
21200.0
 20
18000.0
 10
21200.0
 20
20200.0
 10
21100.0
 20
20200.0
 97
0
 75
1
 76
1
 52
0.0
 41
18.0
 77
0
 78
1
 53
45.0
 43
0.0
 44
0.0
 45
-40.4111525454
 46
40.4111525454
 79
0
 98
0
  0
LWPOLYLINE
  5
2A0
330
17
100
AcDbEntity
  8
0CONC
100
AcDbPolyline
 90
4
 70
1
 10
18800.0
 20
18000.0
 10
18900.0
 20
18000.0
 10
18900.0
 20
19150.0
 10
18800.0
 20
19150.0
  0
HATCH
  5
2A1
330
17
100
AcDbEntity
  8
해치벽체
 62
8
100
AcDbHatch
 10
0.0
 20
0.0
 30
0.0
210
0.0
220
0.0
230
1.0
  2
ANSI31
 70
0
 71
0
 91
1
 92
3
 72
0
 73
1
 93
4
 10
18800.0
 20
18000.0
 10
18900.0
 20
18000.0
 10
18900.0
 20
19150.0
 10
18800.0
 20
19150.0
 97
0
 75
1
 76
1
 52
0.0
 41
18.0
 77
0
 78
1
 53
45.0
 43
0.0
 44
0.0
 45
-40.4111525454
 46
40.4111525454
 79
0
 98
0
  0
LWPOLYLINE
  5
2A2
330
17
100
AcDbEntity
  8
0CONC
100
AcDbPolyline
 90
4
 70
1
 10
18800.0
 20
19950.0
 10
18900.0
 20
19950.0
 10
18900.0
 20
20200.0
 10
18800.0
 20
20200.0
  0
HATCH
  5
2A3
330
17
100
AcDbEntity
  8
해치벽체
 62
8
100
AcDbHatch
 10
0.0
 20
0.0
 30
0.0
210
0.0
220
0.0
230
1.0
  2
ANSI31
 70
0
 71
0
 91
1
 92
3
 72
0
 73
1
 93
4
 10
18800.0
 20
19950.0
 10
18900.0
 20
19950.0
 10
18900.0
 20
20200.0
 10
18800.0
 20
20200.0
 97
0
 75
1
 76
1
 52
0.0
 41
18.0
 77
0
 78
1
 53
45.0
 43
0.0
 44
0.0
 45
-40.4111525454
 46
40.4111525454
 79
0
 98
0
  0
LWPOLYLINE
  5
2A4
330
17
100
AcDbEntity
  8
0CONC
100
AcDbPolyline
 90
4
 70
1
 10
18800.0
 20
20100.0
 10
21100.0
 20
20100.0
 10
21100.0
 20
20200.0
 10
18800.0
 20
20200.0
  0
HATCH
  5
2A5
330
17
100
AcDbEntity
  8
해치벽체
 62
8
100
AcDbHatch
 10
0.0
 20
0.0
 30
0.0
210
0.0
220
0.0
230
1.0
  2
ANSI31
 70
0
 71
0
 91
1
 92
3
 72
0
 73
1
 93
4
 10
18800.0
 20
20100.0
 10
21100.0
 20
20100.0
 10
21100.0
 20
20200.0
 10
18800.0
 20
20200.0
 97
0
 75
1
 76
1
 52
0.0
 41
18.0
 77
0
 78
1
 53
45.0
 43
0.0
 44
0.0
 45
-40.4111525454
 46
40.4111525454
 79
0
 98
0
  0
LWPOLYLINE
  5
2A6
330
17
100
AcDbEntity
  8
TOIL
100
AcDbPolyline
 90
4
 70
1
 10
20200.0
 20
19200.0
 10
21100.0
 20
19200.0
 10
21100.0
 20
20100.0
 10
20200.0
 20
20100.0
  0
LINE
  5
2A7
330
17
100
AcDbEntity
  8
TOIL
100
AcDbLine
 10
21100.0
 20
19200.0
 30
0.0
 11
20200.0
 21
20100.0
 31
0.0
  0
LINE
  5
2A8
330
17
100
AcDbEntity
  8
TOIL
100
AcDbLine
 10
21100.0
 20
20100.0
 30
0.0
 11
20200.0
 21
19200.0
 31
0.0
  0
LWPOLYLINE
  5
2A9
330
17
100
AcDbEntity
  8
TOIL
100
AcDbPolyline
 90
4
 70
1
 10
20430.0
 20
18050.0
 10
20870.0
 20
18050.0
 10
20870.0
 20
18270.0
 10
20430.0
 20
18270.0
  0
ELLIPSE
  5
2AA
330
17
100
AcDbEntity
  8
TOIL
100
AcDbEllipse
 10
20650.0
 20
18600.0
 30
0.0
 11
0.0
 21
310.0
 31
0.0
 40
0.7419354838709677
 41
0.0
 42
6.283185307179586
  0
LWPOLYLINE
  5
2AB
330
17
100
AcDbEntity
  8
TOIL
100
AcDbPolyline
 90
4
 70
1
 10
18900.0
 20
18000.0
 10
19900.0
 20
18000.0
 10
19900.0
 20
18550.0
 10
18900.0
 20
18550.0
  0
ELLIPSE
  5
2AC
330
17
100
AcDbEntity
  8
TOIL
100
AcDbEllipse
 10
19400.0
 20
18275.0
 30
0.0
 11
270.0
 21
0.0
 31
0.0
 40
0.7037037037037037
 41
0.0
 42
6.283185307179586
  0
CIRCLE
  5
2AD
330
17
100
AcDbEntity
  8
TOIL
100
AcDbCircle
 10
19400.0
 20
18090.0
 30
0.0
 40
45.0
  0
TEXT
  5
2AE
330
17
100
AcDbEntity
  8
0TEXT-1
100
AcDbText
 10
20050.0
 20
18950.0
 30
0.0
 40
190.0
  1
욕실
  7
KOR
 72
1
 11
20050.0
 21
18950.0
 31
0.0
100
AcDbText
 73
2
  0
LINE
  5
2AF
330
17
100
AcDbEntity
  8
DOOR
100
AcDbLine
 10
18900.0
 20
19950.0
 30
0.0
 11
19700.0
 21
19950.0
 31
0.0
  0
ARC
  5
2B0
330
17
100
AcDbEntity
  8
DOOR
100
AcDbCircle
 10
18900.0
 20
19950.0
 30
0.0
 40
800.0
100
AcDbArc
 50
270.0
 51
0.0
  0
LINE
  5
2B1
330
17
100
AcDbEntity
  8
DOOR
100
AcDbLine
 10
17900.0
 20
18000.0
 30
0.0
 11
17900.0
 21
18900.0
 31
0.0
  0
ARC
  5
2B2
330
17
100
AcDbEntity
  8
DOOR
100
AcDbCircle
 10
17900.0
 20
18000.0
 30
0.0
 40
900.0
100
AcDbArc
 50
0.0
 51
90.0
  0
LINE
  5
2B3
330
17
100
AcDbEntity
  8
0WIN
100
AcDbLine
 10
23300.0
 20
22600.0
 30
0.0
 11
18700.0
 21
22600.0
 31
0.0
  0
LINE
  5
2B4
330
17
100
AcDbEntity
  8
0WIN
100
AcDbLine
 10
23300.0
 20
22666.666666666668
 30
0.0
 11
18700.0
 21
22666.666666666668
 31
0.0
  0
LINE
  5
2B5
330
17
100
AcDbEntity
  8
0WIN
100
AcDbLine
 10
23300.0
 20
22733.333333333332
 30
0.0
 11
18700.0
 21
22733.333333333332
 31
0.0
  0
LINE
  5
2B6
330
17
100
AcDbEntity
  8
0WIN
100
AcDbLine
 10
23300.0
 20
22800.0
 30
0.0
 11
18700.0
 21
22800.0
 31
0.0
  0
LINE
  5
2B7
330
17
100
AcDbEntity
  8
0WIN
100
AcDbLine
 10
23300.0
 20
22600.0
 30
0.0
 11
23300.0
 21
22800.0
 31
0.0
  0
LINE
  5
2B8
330
17
100
AcDbEntity
  8
0WIN
100
AcDbLine
 10
18700.0
 20
22600.0
 30
0.0
 11
18700.0
 21
22800.0
 31
0.0
  0
LWPOLYLINE
  5
2B9
330
17
100
AcDbEntity
  8
STAIR
100
AcDbPolyline
 90
4
 70
1
 10
21200.0
 20
21700.0
 10
21700.0
 20
21700.0
 10
21700.0
 20
22500.0
 10
21200.0
 20
22500.0
  0
LINE
  5
2BA
330
17
100
AcDbEntity
  8
STAIR
100
AcDbLine
 10
21700.0
 20
21966.666666666668
 30
0.0
 11
21200.0
 21
21966.666666666668
 31
0.0
  0
LINE
  5
2BB
330
17
100
AcDbEntity
  8
STAIR
100
AcDbLine
 10
21700.0
 20
22233.333333333332
 30
0.0
 11
21200.0
 21
22233.333333333332
 31
0.0
  0
TEXT
  5
2BC
330
17
100
AcDbEntity
  8
0TEXT-1
 62
9
100
AcDbText
 10
21450.0
 20
22100.0
 30
0.0
 40
130.0
  1
사다리UP
  7
KOR
 72
1
 11
21450.0
 21
22100.0
 31
0.0
100
AcDbText
 73
2
  0
LWPOLYLINE
  5
2BD
330
17
100
AcDbEntity
  8
FUR
100
AcDbPolyline
 90
4
 70
1
 10
19500.0
 20
20400.0
 10
20900.0
 20
20400.0
 10
20900.0
 20
20950.0
 10
19500.0
 20
20950.0
  0
LWPOLYLINE
  5
2BE
330
17
100
AcDbEntity
  8
TOIL
100
AcDbPolyline
 90
4
 70
1
 10
20290.0
 20
20510.0
 10
20780.0
 20
20510.0
 10
20780.0
 20
20840.0
 10
20290.0
 20
20840.0
  0
CIRCLE
  5
2BF
330
17
100
AcDbEntity
  8
FUR
100
AcDbCircle
 10
19808.0
 20
20675.0
 30
0.0
 40
140.0
  0
CIRCLE
  5
2C0
330
17
100
AcDbEntity
  8
FUR
100
AcDbCircle
 10
20200.0
 20
20675.0
 30
0.0
 40
140.0
  0
LWPOLYLINE
  5
2C1
330
17
100
AcDbEntity
  8
FUR
100
AcDbPolyline
 90
4
 70
1
 10
18800.0
 20
20400.0
 10
19350.0
 20
20400.0
 10
19350.0
 20
20950.0
 10
18800.0
 20
20950.0
  0
TEXT
  5
2C2
330
17
100
AcDbEntity
  8
0TEXT-1
 62
9
100
AcDbText
 10
20200.0
 20
21150.0
 30
0.0
 40
160.0
  1
간이주방
  7
KOR
 72
1
 11
20200.0
 21
21150.0
 31
0.0
100
AcDbText
 73
2
  0
LWPOLYLINE
  5
2C3
330
17
100
AcDbEntity
  8
FUR
100
AcDbPolyline
 90
4
 70
1
 10
22200.0
 20
19400.0
 10
24000.0
 20
19400.0
 10
24000.0
 20
20300.0
 10
22200.0
 20
20300.0
  0
LWPOLYLINE
  5
2C4
330
17
100
AcDbEntity
  8
FUR
100
AcDbPolyline
 90
4
 70
1
 10
22270.0
 20
19470.0
 10
23930.0
 20
19470.0
 10
23930.0
 20
20230.0
 10
22270.0
 20
20230.0
  0
LWPOLYLINE
  5
2C5
330
17
100
AcDbEntity
  8
FUR
100
AcDbPolyline
 90
4
 70
1
 10
22800.0
 20
21000.0
 10
24200.0
 20
21000.0
 10
24200.0
 20
21500.0
 10
22800.0
 20
21500.0
  0
LWPOLYLINE
  5
2C6
330
17
100
AcDbEntity
  8
FUR
100
AcDbPolyline
 90
4
 70
1
 10
17700.0
 20
21700.0
 10
19300.0
 20
21700.0
 10
19300.0
 20
22500.0
 10
17700.0
 20
22500.0
  0
LWPOLYLINE
  5
2C7
330
17
100
AcDbEntity
  8
FUR
100
AcDbPolyline
 90
4
 70
1
 10
17770.0
 20
21770.0
 10
19230.0
 20
21770.0
 10
19230.0
 20
22430.0
 10
17770.0
 20
22430.0
  0
CIRCLE
  5
2C8
330
17
100
AcDbEntity
  8
FUR
100
AcDbCircle
 10
19600.0
 20
22050.0
 30
0.0
 40
260.0
  0
TEXT
  5
2C9
330
17
100
AcDbEntity
  8
0TEXT-1
100
AcDbText
 10
23200.0
 20
22350.0
 30
0.0
 40
190.0
  1
② 디럭스 로프트
  7
KOR
 72
1
 11
23200.0
 21
22350.0
 31
0.0
100
AcDbText
 73
2
  0
TEXT
  5
2CA
330
17
100
AcDbEntity
  8
0TEXT-1
 62
8
100
AcDbText
 10
23200.0
 20
22000.0
 30
0.0
 40
150.0
  1
(간이주방 · 2F 침대다락)
  7
KOR
 72
1
 11
23200.0
 21
22000.0
 31
0.0
100
AcDbText
 73
2
  0
LWPOLYLINE
  5
2CB
330
17
100
AcDbEntity
  8
FUR
100
AcDbPolyline
 90
4
 70
1
 10
14200.0
 20
21900.0
 10
14850.0
 20
21900.0
 10
14850.0
 20
22550.0
 10
14200.0
 20
22550.0
  0
LINE
  5
2CC
330
17
100
AcDbEntity
  8
FUR
100
AcDbLine
 10
14200.0
 20
21900.0
 30
0.0
 11
14850.0
 21
22550.0
 31
0.0
  0
LWPOLYLINE
  5
2CD
330
17
100
AcDbEntity
  8
FUR
100
AcDbPolyline
 90
4
 70
1
 10
14200.0
 20
21150.0
 10
14850.0
 20
21150.0
 10
14850.0
 20
21800.0
 10
14200.0
 20
21800.0
  0
LINE
  5
2CE
330
17
100
AcDbEntity
  8
FUR
100
AcDbLine
 10
14200.0
 20
21150.0
 30
0.0
 11
14850.0
 21
21800.0
 31
0.0
  0
CIRCLE
  5
2CF
330
17
100
AcDbEntity
  8
FUR
100
AcDbCircle
 10
15750.0
 20
19600.0
 30
0.0
 40
400.0
  0
LWPOLYLINE
  5
2D0
330
17
100
AcDbEntity
  8
FUR
100
AcDbPolyline
 90
4
 70
1
 10
15000.0
 20
19400.0
 10
15400.0
 20
19400.0
 10
15400.0
 20
19800.0
 10
15000.0
 20
19800.0
  0
LWPOLYLINE
  5
2D1
330
17
100
AcDbEntity
  8
FUR
100
AcDbPolyline
 90
4
 70
1
 10
16100.0
 20
19400.0
 10
16500.0
 20
19400.0
 10
16500.0
 20
19800.0
 10
16100.0
 20
19800.0
  0
LWPOLYLINE
  5
2D2
330
17
100
AcDbEntity
  8
FUR
100
AcDbPolyline
 90
4
 70
1
 10
15550.0
 20
18600.0
 10
15950.0
 20
18600.0
 10
15950.0
 20
19000.0
 10
15550.0
 20
19000.0
  0
LWPOLYLINE
  5
2D3
330
17
100
AcDbEntity
  8
FUR
100
AcDbPolyline
 90
4
 70
1
 10
15550.0
 20
20400.0
 10
15950.0
 20
20400.0
 10
15950.0
 20
20800.0
 10
15550.0
 20
20800.0
  0
TEXT
  5
2D4
330
17
100
AcDbEntity
  8
0TEXT-1
100
AcDbText
 10
15750.0
 20
20650.0
 30
0.0
 40
300.0
  1
휴게공간
  7
KOR
 72
1
 11
15750.0
 21
20650.0
 31
0.0
100
AcDbText
 73
2
  0
TEXT
  5
2D5
330
17
100
AcDbEntity
  8
0TEXT-1
 62
8
100
AcDbText
 10
15750.0
 20
20250.0
 30
0.0
 40
240.0
  1
(자판기)
  7
KOR
 72
1
 11
15750.0
 21
20250.0
 31
0.0
100
AcDbText
 73
2
  0
DIMENSION
  5
2D6
330
17
100
AcDbEntity
  8
S-DIM
100
AcDbDimension
280
0
  2
*D1
  3
D100
 10
0.0
 20
-1200.0
 30
0.0
 11
2500.0
 21
-960.0
 31
0.0
 70
32
 71
5
  1
<>
100
AcDbAlignedDimension
 13
0.0
 23
0.0
 33
0.0
 14
5000.0
 24
0.0
 34
0.0
 50
0.0
100
AcDbRotatedDimension
  0
DIMENSION
  5
2E5
330
17
100
AcDbEntity
  8
S-DIM
100
AcDbDimension
280
0
  2
*D2
  3
D100
 10
5000.0
 20
-1200.0
 30
0.0
 11
8500.0
 21
-960.0
 31
0.0
 70
32
 71
5
  1
<>
100
AcDbAlignedDimension
 13
5000.0
 23
0.0
 33
0.0
 14
12000.0
 24
0.0
 34
0.0
 50
0.0
100
AcDbRotatedDimension
  0
DIMENSION
  5
2F4
330
17
100
AcDbEntity
  8
S-DIM
100
AcDbDimension
280
0
  2
*D3
  3
D100
 10
12000.0
 20
-1200.0
 30
0.0
 11
16500.0
 21
-960.0
 31
0.0
 70
32
 71
5
  1
<>
100
AcDbAlignedDimension
 13
12000.0
 23
0.0
 33
0.0
 14
21000.0
 24
0.0
 34
0.0
 50
0.0
100
AcDbRotatedDimension
  0
DIMENSION
  5
303
330
17
100
AcDbEntity
  8
S-DIM
100
AcDbDimension
280
0
  2
*D4
  3
D100
 10
21000.0
 20
-1200.0
 30
0.0
 11
23500.0
 21
-960.0
 31
0.0
 70
32
 71
5
  1
<>
100
AcDbAlignedDimension
 13
21000.0
 23
0.0
 33
0.0
 14
26000.0
 24
0.0
 34
0.0
 50
0.0
100
AcDbRotatedDimension
  0
DIMENSION
  5
312
330
17
100
AcDbEntity
  8
S-DIM
100
AcDbDimension
280
0
  2
*D5
  3
D100
 10
26000.0
 20
-1200.0
 30
0.0
 11
29500.0
 21
-960.0
 31
0.0
 70
32
 71
5
  1
<>
100
AcDbAlignedDimension
 13
26000.0
 23
0.0
 33
0.0
 14
33000.0
 24
0.0
 34
0.0
 50
0.0
100
AcDbRotatedDimension
  0
DIMENSION
  5
321
330
17
100
AcDbEntity
  8
S-DIM
100
AcDbDimension
280
0
  2
*D6
  3
D100
 10
0.0
 20
-2300.0
 30
0.0
 11
16500.0
 21
-2060.0
 31
0.0
 70
32
 71
5
  1
<>
100
AcDbAlignedDimension
 13
0.0
 23
0.0
 33
0.0
 14
33000.0
 24
0.0
 34
0.0
 50
0.0
100
AcDbRotatedDimension
  0
DIMENSION
  5
330
330
17
100
AcDbEntity
  8
S-DIM
100
AcDbDimension
280
0
  2
*D7
  3
D100
 10
0.0
 20
24200.0
 30
0.0
 11
3500.0
 21
24440.0
 31
0.0
 70
32
 71
5
  1
<>
100
AcDbAlignedDimension
 13
0.0
 23
22800.0
 33
0.0
 14
7000.0
 24
22800.0
 34
0.0
 50
0.0
100
AcDbRotatedDimension
  0
DIMENSION
  5
33F
330
17
100
AcDbEntity
  8
S-DIM
100
AcDbDimension
280
0
  2
*D8
  3
D100
 10
7000.0
 20
24200.0
 30
0.0
 11
10500.0
 21
24440.0
 31
0.0
 70
32
 71
5
  1
<>
100
AcDbAlignedDimension
 13
7000.0
 23
22800.0
 33
0.0
 14
14000.0
 24
22800.0
 34
0.0
 50
0.0
100
AcDbRotatedDimension
  0
DIMENSION
  5
34E
330
17
100
AcDbEntity
  8
S-DIM
100
AcDbDimension
280
0
  2
*D9
  3
D100
 10
14000.0
 20
24200.0
 30
0.0
 11
15750.0
 21
24440.0
 31
0.0
 70
32
 71
5
  1
<>
100
AcDbAlignedDimension
 13
14000.0
 23
22800.0
 33
0.0
 14
17500.0
 24
22800.0
 34
0.0
 50
0.0
100
AcDbRotatedDimension
  0
DIMENSION
  5
35D
330
17
100
AcDbEntity
  8
S-DIM
100
AcDbDimension
280
0
  2
*D10
  3
D100
 10
17500.0
 20
24200.0
 30
0.0
 11
21000.0
 21
24440.0
 31
0.0
 70
32
 71
5
  1
<>
100
AcDbAlignedDimension
 13
17500.0
 23
22800.0
 33
0.0
 14
24500.0
 24
22800.0
 34
0.0
 50
0.0
100
AcDbRotatedDimension
  0
DIMENSION
  5
36C
330
17
100
AcDbEntity
  8
S-DIM
100
AcDbDimension
280
0
  2
*D11
  3
D100
 10
24500.0
 20
24200.0
 30
0.0
 11
28000.0
 21
24440.0
 31
0.0
 70
32
 71
5
  1
<>
100
AcDbAlignedDimension
 13
24500.0
 23
22800.0
 33
0.0
 14
31500.0
 24
22800.0
 34
0.0
 50
0.0
100
AcDbRotatedDimension
  0
DIMENSION
  5
37B
330
17
100
AcDbEntity
  8
S-DIM
100
AcDbDimension
280
0
  2
*D12
  3
D100
 10
-1200.0
 20
0.0
 30
0.0
 11
-1440.0
 21
3250.0
 31
0.0
 70
32
 71
5
  1
<>
100
AcDbAlignedDimension
 13
0.0
 23
0.0
 33
0.0
 14
0.0
 24
6500.0
 34
0.0
 50
90.0
100
AcDbRotatedDimension
  0
DIMENSION
  5
38A
330
17
100
AcDbEntity
  8
S-DIM
100
AcDbDimension
280
0
  2
*D13
  3
D100
 10
-1200.0
 20
6500.0
 30
0.0
 11
-1440.0
 21
11400.0
 31
0.0
 70
32
 71
5
  1
<>
100
AcDbAlignedDimension
 13
0.0
 23
6500.0
 33
0.0
 14
0.0
 24
16300.0
 34
0.0
 50
90.0
100
AcDbRotatedDimension
  0
DIMENSION
  5
399
330
17
100
AcDbEntity
  8
S-DIM
100
AcDbDimension
280
0
  2
*D14
  3
D100
 10
-1200.0
 20
16300.0
 30
0.0
 11
-1440.0
 21
19550.0
 31
0.0
 70
32
 71
5
  1
<>
100
AcDbAlignedDimension
 13
0.0
 23
16300.0
 33
0.0
 14
0.0
 24
22800.0
 34
0.0
 50
90.0
100
AcDbRotatedDimension
  0
DIMENSION
  5
3A8
330
17
100
AcDbEntity
  8
S-DIM
100
AcDbDimension
280
0
  2
*D15
  3
D100
 10
-2300.0
 20
0.0
 30
0.0
 11
-2540.0
 21
11400.0
 31
0.0
 70
32
 71
5
  1
<>
100
AcDbAlignedDimension
 13
0.0
 23
0.0
 33
0.0
 14
0.0
 24
22800.0
 34
0.0
 50
90.0
100
AcDbRotatedDimension
  0
TEXT
  5
3B7
330
17
100
AcDbEntity
  8
0TEXT-1
100
AcDbText
 10
16500.0
 20
-3400.0
 30
0.0
 40
900.0
  1
4F 평면도 (로프트베드/복층 유닛 전면 반영판 v2)
  7
KOR
 72
1
 11
16500.0
 21
-3400.0
 31
0.0
100
AcDbText
 73
2
  0
TEXT
  5
3B8
330
17
100
AcDbEntity
  8
0TEXT-1
 62
8
100
AcDbText
 10
16500.0
 20
-4600.0
 30
0.0
 40
340.0
  1
디럭스 로프트 4실(35.0m², 간이주방 포함) + 패밀리 복층 3실(45.0~45.5m²) + 리넨실 · 휴게공간 · 발코니
  7
KOR
 72
1
 11
16500.0
 21
-4600.0
 31
0.0
100
AcDbText
 73
2
  0
TEXT
  5
3B9
330
17
100
AcDbEntity
  8
0TEXT-1
100
AcDbText
 10
0.0
 20
-5800.0
 30
0.0
 40
420.0
  1
실 스케줄
  7
KOR
 11
0.0
 21
-5800.0
 31
0.0
100
AcDbText
  0
TEXT
  5
3BA
330
17
100
AcDbEntity
  8
0TEXT-1
100
AcDbText
 10
0.0
 20
-6500.0
 30
0.0
 40
300.0
  1
① 디럭스 로프트 (외측형)  35.0m² /10.59PY  ×2실 — 1F 간이주방+소파+라운지(층고 2,600) / 2F 침대다락(층고 1,600)
  7
KOR
 11
0.0
 21
-6500.0
 31
0.0
100
AcDbText
  0
TEXT
  5
3BB
330
17
100
AcDbEntity
  8
0TEXT-1
100
AcDbText
 10
0.0
 20
-7080.0
 30
0.0
 40
300.0
  1
② 디럭스 로프트 (내측형)  35.0m² /10.59PY  ×2실 — 1F 간이주방+소파+라운지(층고 2,600) / 2F 침대다락(층고 1,600)
  7
KOR
 11
0.0
 21
-7080.0
 31
0.0
100
AcDbText
  0
TEXT
  5
3BC
330
17
100
AcDbEntity
  8
0TEXT-1
100
AcDbText
 10
0.0
 20
-7660.0
 30
0.0
 40
300.0
  1
③ 패밀리 복층 (코너형)    45.5m² /13.76PY  ×2실 — 1F 부모침실+미니주방+거실(층고 2,200) / 2F 자녀실(층고 2,000)
  7
KOR
 11
0.0
 21
-7660.0
 31
0.0
100
AcDbText
  0
TEXT
  5
3BD
330
17
100
AcDbEntity
  8
0TEXT-1
100
AcDbText
 10
0.0
 20
-8240.0
 30
0.0
 40
300.0
  1
④ 패밀리 복층 (저심도형)  45.0m² /13.61PY  ×1실 — 1F 부모침실+미니주방+소파(층고 2,200), 나선계단 / 2F 자녀실(층고 2,000)
  7
KOR
 11
0.0
 21
-8240.0
 31
0.0
100
AcDbText
  0
TEXT
  5
3BE
330
17
100
AcDbEntity
  8
0TEXT-1
100
AcDbText
 10
0.0
 20
-8820.0
 30
0.0
 40
300.0
  1
리넨실 25.0m² /7.56PY ×1실 — 표준형 유지
  7
KOR
 11
0.0
 21
-8820.0
 31
0.0
100
AcDbText
  0
TEXT
  5
3BF
330
17
100
AcDbEntity
  8
0TEXT-1
 62
8
100
AcDbText
 10
0.0
 20
-10100.0
 30
0.0
 40
330.0
  1
1. [가정] 층고·단면 수치는 계획도면에 근거 자료가 없어 신규 설정한 값입니다. 4F 층고 4,500mm(2~3F 대비 +1,300), 구조·설비 검토 필요.
  7
KOR
 11
0.0
 21
-10100.0
 31
0.0
100
AcDbText
  0
TEXT
  5
3C0
330
17
100
AcDbEntity
  8
0TEXT-1
 62
8
100
AcDbText
 10
0.0
 20
-10720.0
 30
0.0
 40
330.0
  1
2. 디럭스 로프트: 하부 2,600(개방)+슬래브 300+상부 침대존 1,600(좌식) / 패밀리 복층: 하부 2,200+슬래브 300+상부 자녀실 2,000(착석 가능)
  7
KOR
 11
0.0
 21
-10720.0
 31
0.0
100
AcDbText
  0
TEXT
  5
3C1
330
17
100
AcDbEntity
  8
0TEXT-1
 62
8
100
AcDbText
 10
0.0
 20
-11340.0
 30
0.0
 40
330.0
  1
3. [재정리 v2] 진입문→욕실 통과동선은 전 유닛에서 가구 없이 확보했고, 침대는 진입·주방·계단 동선에서 가장 먼 안쪽(정적) 공간에 배치했습니다.
  7
KOR
 11
0.0
 21
-11340.0
 31
0.0
100
AcDbText
  0
TEXT
  5
3C2
330
17
100
AcDbEntity
  8
0TEXT-1
 62
8
100
AcDbText
 10
0.0
 20
-11960.0
 30
0.0
 40
330.0
  1
4. [재정리 v2] 디럭스 로프트 2종에 간이주방(싱크+2구 인덕션)을 신설했습니다. 사다리는 통과동선 위쪽(y1400~)으로 이동해 겹침 없이 재배치했습니다.
  7
KOR
 11
0.0
 21
-11960.0
 31
0.0
100
AcDbText
  0
TEXT
  5
3C3
330
17
100
AcDbEntity
  8
0TEXT-1
 62
8
100
AcDbText
 10
0.0
 20
-12580.0
 30
0.0
 40
330.0
  1
5. [재정리 v2] 패밀리 45.0(저심도형)도 나선계단(지름1,200)을 적용해 복층으로 전환했습니다 — 직선계단 대비 계단실 면적을 최소화해 저심도 비례에서도 확보 가능.
  7
KOR
 11
0.0
 21
-12580.0
 31
0.0
100
AcDbText
  0
TEXT
  5
3C4
330
17
100
AcDbEntity
  8
0TEXT-1
 62
8
100
AcDbText
 10
0.0
 20
-13200.0
 30
0.0
 40
330.0
  1
6. 욕실·미니주방·출입문 위치는 기존 2~3F 표준형과 동일 좌표를 유지해 급배수 라이저·복도 연결 정합성을 확보했습니다.
  7
KOR
 11
0.0
 21
-13200.0
 31
0.0
100
AcDbText
  0
TEXT
  5
3C5
330
17
100
AcDbEntity
  8
0TEXT-1
 62
8
100
AcDbText
 10
0.0
 20
-13820.0
 30
0.0
 40
330.0
  1
7. 상부(로프트/2F) 평면과 개념단면은 별첨 hotel-gaun-4f-loft-duplex-units.dxf 참조. 이 시트는 4층 전체 평면 반영 결과(하부 기준)입니다.
  7
KOR
 11
0.0
 21
-13820.0
 31
0.0
100
AcDbText
  0
ENDSEC
  0
SECTION
  2
OBJECTS
  0
DICTIONARY
  5
A
330
0
100
AcDbDictionary
281
1
  3
ACAD_COLOR
350
B
  3
ACAD_GROUP
350
C
  3
ACAD_LAYOUT
350
D
  3
ACAD_MATERIAL
350
E
  3
ACAD_MLEADERSTYLE
350
F
  3
ACAD_MLINESTYLE
350
10
  3
ACAD_PLOTSETTINGS
350
11
  3
ACAD_PLOTSTYLENAME
350
12
  3
ACAD_SCALELIST
350
14
  3
ACAD_TABLESTYLE
350
15
  3
ACAD_VISUALSTYLE
350
16
  3
EZDXF_META
350
2D
  0
DICTIONARY
  5
B
330
A
100
AcDbDictionary
281
1
  0
DICTIONARY
  5
C
330
A
100
AcDbDictionary
281
1
  0
DICTIONARY
  5
D
330
A
100
AcDbDictionary
281
1
  3
Model
350
1A
  3
Layout1
350
1E
  0
DICTIONARY
  5
E
330
A
100
AcDbDictionary
281
1
  3
ByBlock
350
1F
  3
ByLayer
350
20
  3
Global
350
21
  0
DICTIONARY
  5
F
330
A
100
AcDbDictionary
281
1
  3
Standard
350
2C
  0
DICTIONARY
  5
10
330
A
100
AcDbDictionary
281
1
  3
Standard
350
22
  0
DICTIONARY
  5
11
330
A
100
AcDbDictionary
281
1
  0
ACDBDICTIONARYWDFLT
  5
12
330
A
100
AcDbDictionary
281
1
  3
Normal
350
13
100
AcDbDictionaryWithDefault
340
13
  0
ACDBPLACEHOLDER
  5
13
330
12
  0
DICTIONARY
  5
14
330
A
100
AcDbDictionary
281
1
  0
DICTIONARY
  5
15
330
A
100
AcDbDictionary
281
1
  0
DICTIONARY
  5
16
330
A
100
AcDbDictionary
281
1
  3
2dWireframe
350
5A
  3
Basic
350
5B
  3
Brighten
350
5C
  3
ColorChange
350
5D
  3
Conceptual
350
5E
  3
Dim
350
5F
  3
EdgeColorOff
350
60
  3
Facepattern
350
61
  3
Flat
350
62
  3
FlatWithEdges
350
63
  3
Gouraud
350
64
  3
GouraudWithEdges
350
65
  3
Hidden
350
66
  3
JitterOff
350
67
  3
Linepattern
350
68
  3
Modeling
350
69
  3
OverhangOff
350
6A
  3
Realistic
350
6B
  3
Shaded
350
6C
  3
Shaded with edges
350
6D
  3
Shades of Gray
350
6E
  3
Sketchy
350
6F
  3
Thicken
350
70
  3
Wireframe
350
71
  3
X-Ray
350
72
  0
LAYOUT
  5
1A
330
D
100
AcDbPlotSettings
  1

  4
A3
  6

 40
7.5
 41
20.0
 42
7.5
 43
20.0
 44
420.0
 45
297.0
 46
0.0
 47
0.0
 48
0.0
 49
0.0
140
0.0
141
0.0
142
1.0
143
1.0
 70
1024
 72
1
 73
0
 74
5
  7

 75
16
 76
0
 77
2
 78
300
147
1.0
148
0.0
149
0.0
100
AcDbLayout
  1
Model
 70
1
 71
0
 10
0.0
 20
0.0
 11
420.0
 21
297.0
 12
0.0
 22
0.0
 32
0.0
 14
1e+20
 24
1e+20
 34
1e+20
 15
-1e+20
 25
-1e+20
 35
-1e+20
146
0.0
 13
0.0
 23
0.0
 33
0.0
 16
1.0
 26
0.0
 36
0.0
 17
0.0
 27
1.0
 37
0.0
 76
1
330
17
  0
LAYOUT
  5
1E
330
D
100
AcDbPlotSettings
  1

  4
A3
  6

 40
7.5
 41
20.0
 42
7.5
 43
20.0
 44
420.0
 45
297.0
 46
0.0
 47
0.0
 48
0.0
 49
0.0
140
0.0
141
0.0
142
1.0
143
1.0
 70
0
 72
1
 73
0
 74
5
  7

 75
16
 76
0
 77
2
 78
300
147
1.0
148
0.0
149
0.0
100
AcDbLayout
  1
Layout1
 70
1
 71
1
 10
0.0
 20
0.0
 11
420.0
 21
297.0
 12
0.0
 22
0.0
 32
0.0
 14
1e+20
 24
1e+20
 34
1e+20
 15
-1e+20
 25
-1e+20
 35
-1e+20
146
0.0
 13
0.0
 23
0.0
 33
0.0
 16
1.0
 26
0.0
 36
0.0
 17
0.0
 27
1.0
 37
0.0
 76
1
330
1B
  0
MATERIAL
  5
1F
102
{ACAD_REACTORS
330
E
102
}
330
E
100
AcDbMaterial
  1
ByBlock
  2

 70
0
 40
1.0
 71
1
 41
1.0
 91
-1023410177
 42
1.0
 72
1
  3

 73
1
 74
1
 75
1
 44
0.5
 73
0
 45
1.0
 46
1.0
 77
1
  4

 78
1
 79
1
170
1
 48
1.0
171
1
  6

172
1
173
1
174
1
140
1.0
141
1.0
175
1
  7

176
1
177
1
178
1
143
1.0
179
1
  8

270
1
271
1
272
1
145
1.0
146
1.0
273
1
  9

274
1
275
1
276
1
 42
1.0
 72
1
  3

 73
1
 74
1
 75
1
 94
63
  0
MATERIAL
  5
20
102
{ACAD_REACTORS
330
E
102
}
330
E
100
AcDbMaterial
  1
ByLayer
  2

 70
0
 40
1.0
 71
1
 41
1.0
 91
-1023410177
 42
1.0
 72
1
  3

 73
1
 74
1
 75
1
 44
0.5
 73
0
 45
1.0
 46
1.0
 77
1
  4

 78
1
 79
1
170
1
 48
1.0
171
1
  6

172
1
173
1
174
1
140
1.0
141
1.0
175
1
  7

176
1
177
1
178
1
143
1.0
179
1
  8

270
1
271
1
272
1
145
1.0
146
1.0
273
1
  9

274
1
275
1
276
1
 42
1.0
 72
1
  3

 73
1
 74
1
 75
1
 94
63
  0
MATERIAL
  5
21
102
{ACAD_REACTORS
330
E
102
}
330
E
100
AcDbMaterial
  1
Global
  2

 70
0
 40
1.0
 71
1
 41
1.0
 91
-1023410177
 42
1.0
 72
1
  3

 73
1
 74
1
 75
1
 44
0.5
 73
0
 45
1.0
 46
1.0
 77
1
  4

 78
1
 79
1
170
1
 48
1.0
171
1
  6

172
1
173
1
174
1
140
1.0
141
1.0
175
1
  7

176
1
177
1
178
1
143
1.0
179
1
  8

270
1
271
1
272
1
145
1.0
146
1.0
273
1
  9

274
1
275
1
276
1
 42
1.0
 72
1
  3

 73
1
 74
1
 75
1
 94
63
  0
MLINESTYLE
  5
22
102
{ACAD_REACTORS
330
10
102
}
330
10
100
AcDbMlineStyle
  2
Standard
 70
0
  3

 62
256
 51
90.0
 52
90.0
 71
2
 49
0.5
 62
256
  6
BYLAYER
 49
-0.5
 62
256
  6
BYLAYER
  0
MLEADERSTYLE
  5
2C
102
{ACAD_REACTORS
330
F
102
}
330
F
100
AcDbMLeaderStyle
179
2
170
2
171
1
172
0
 90
2
 40
0.0
 41
0.0
173
1
 91
-1056964608
 92
-2
290
1
 42
2.0
291
1
 43
8.0
  3
Standard
 44
4.0
300

342
29
174
1
175
1
176
0
178
1
 93
-1056964608
 45
4.0
292
0
297
0
 46
4.0
 94
-1056964608
 47
1.0
 49
1.0
140
1.0
294
1
141
0.0
177
0
142
1.0
295
0
296
0
143
3.75
271
0
272
9
273
9
  0
DICTIONARY
  5
2D
330
A
100
AcDbDictionary
280
1
281
1
  3
CREATED_BY_EZDXF
350
2E
  3
WRITTEN_BY_EZDXF
350
3C8
  0
DICTIONARYVAR
  5
2E
330
2D
100
DictionaryVariables
280
0
  1
1.4.4 @ 2026-07-21T03:23:08.994963+00:00
  0
VISUALSTYLE
  5
5A
102
{ACAD_REACTORS
330
16
102
}
330
16
100
AcDbVisualStyle
  2
2dWireframe
 70
4
 90
0
 40
0.6
 62
7
290
0
291
0
  0
VISUALSTYLE
  5
5B
102
{ACAD_REACTORS
330
16
102
}
330
16
100
AcDbVisualStyle
  2
Basic
 70
7
 90
1
 40
0.6
 62
7
290
0
291
1
  0
VISUALSTYLE
  5
5C
102
{ACAD_REACTORS
330
16
102
}
330
16
100
AcDbVisualStyle
  2
Brighten
 70
12
 90
2
 40
0.6
 62
7
290
0
291
1
  0
VISUALSTYLE
  5
5D
102
{ACAD_REACTORS
330
16
102
}
330
16
100
AcDbVisualStyle
  2
ColorChange
 70
16
 90
2
 40
0.6
 62
8
290
0
291
1
  0
VISUALSTYLE
  5
5E
102
{ACAD_REACTORS
330
16
102
}
330
16
100
AcDbVisualStyle
  2
Conceptual
 70
9
 90
3
 40
0.6
 62
7
290
0
291
0
  0
VISUALSTYLE
  5
5F
102
{ACAD_REACTORS
330
16
102
}
330
16
100
AcDbVisualStyle
  2
Dim
 70
11
 90
2
 40
0.6
 62
7
290
0
291
1
  0
VISUALSTYLE
  5
60
102
{ACAD_REACTORS
330
16
102
}
330
16
100
AcDbVisualStyle
  2
EdgeColorOff
 70
22
 90
2
 40
0.6
 62
7
290
0
291
1
  0
VISUALSTYLE
  5
61
102
{ACAD_REACTORS
330
16
102
}
330
16
100
AcDbVisualStyle
  2
Facepattern
 70
15
 90
2
 40
0.6
 62
7
290
0
291
1
  0
VISUALSTYLE
  5
62
102
{ACAD_REACTORS
330
16
102
}
330
16
100
AcDbVisualStyle
  2
Flat
 70
0
 90
2
 40
0.6
 62
7
290
0
291
1
  0
VISUALSTYLE
  5
63
102
{ACAD_REACTORS
330
16
102
}
330
16
100
AcDbVisualStyle
  2
FlatWithEdges
 70
1
 90
2
 40
0.6
 62
7
290
0
291
1
  0
VISUALSTYLE
  5
64
102
{ACAD_REACTORS
330
16
102
}
330
16
100
AcDbVisualStyle
  2
Gouraud
 70
2
 90
2
 40
0.6
 62
7
290
0
291
1
  0
VISUALSTYLE
  5
65
102
{ACAD_REACTORS
330
16
102
}
330
16
100
AcDbVisualStyle
  2
GouraudWithEdges
 70
3
 90
2
 40
0.6
 62
7
290
0
291
1
  0
VISUALSTYLE
  5
66
102
{ACAD_REACTORS
330
16
102
}
330
16
100
AcDbVisualStyle
  2
Hidden
 70
6
 90
1
 40
0.6
 62
7
290
0
291
0
  0
VISUALSTYLE
  5
67
102
{ACAD_REACTORS
330
16
102
}
330
16
100
AcDbVisualStyle
  2
JitterOff
 70
20
 90
2
 40
0.6
 62
7
290
0
291
1
  0
VISUALSTYLE
  5
68
102
{ACAD_REACTORS
330
16
102
}
330
16
100
AcDbVisualStyle
  2
Linepattern
 70
14
 90
2
 40
0.6
 62
7
290
0
291
1
  0
VISUALSTYLE
  5
69
102
{ACAD_REACTORS
330
16
102
}
330
16
100
AcDbVisualStyle
  2
Modeling
 70
10
 90
2
 40
0.6
 62
7
290
0
291
0
  0
VISUALSTYLE
  5
6A
102
{ACAD_REACTORS
330
16
102
}
330
16
100
AcDbVisualStyle
  2
OverhangOff
 70
21
 90
2
 40
0.6
 62
7
290
0
291
1
  0
VISUALSTYLE
  5
6B
102
{ACAD_REACTORS
330
16
102
}
330
16
100
AcDbVisualStyle
  2
Realistic
 70
8
 90
2
 40
0.6
 62
7
290
0
291
0
  0
VISUALSTYLE
  5
6C
102
{ACAD_REACTORS
330
16
102
}
330
16
100
AcDbVisualStyle
  2
Shaded
 70
27
 90
2
 40
0.6
 62
7
290
0
291
0
  0
VISUALSTYLE
  5
6D
102
{ACAD_REACTORS
330
16
102
}
330
16
100
AcDbVisualStyle
  2
Shaded with edges
 70
26
 90
2
 40
0.6
 62
7
290
0
291
0
  0
VISUALSTYLE
  5
6E
102
{ACAD_REACTORS
330
16
102
}
330
16
100
AcDbVisualStyle
  2
Shades of Gray
 70
23
 90
2
 40
0.6
 62
7
290
0
291
0
  0
VISUALSTYLE
  5
6F
102
{ACAD_REACTORS
330
16
102
}
330
16
100
AcDbVisualStyle
  2
Sketchy
 70
24
 90
1
 40
0.6
 62
7
290
0
291
0
  0
VISUALSTYLE
  5
70
102
{ACAD_REACTORS
330
16
102
}
330
16
100
AcDbVisualStyle
  2
Thicken
 70
13
 90
2
 40
0.6
 62
7
290
0
291
1
  0
VISUALSTYLE
  5
71
102
{ACAD_REACTORS
330
16
102
}
330
16
100
AcDbVisualStyle
  2
Wireframe
 70
5
 90
0
 40
0.6
 62
7
290
0
291
0
  0
VISUALSTYLE
  5
72
102
{ACAD_REACTORS
330
16
102
}
330
16
100
AcDbVisualStyle
  2
X-Ray
 70
25
 90
2
 40
0.5
 62
7
290
0
291
0
  0
DICTIONARYVAR
  5
3C8
330
2D
100
DictionaryVariables
280
0
  1
1.4.4 @ 2026-07-21T03:23:09.049568+00:00
  0
ENDSEC
  0
EOF
